<?xml version="1.0" encoding="utf-8"?>
<!-- Generator: Adobe Illustrator 25.0.1, SVG Export Plug-In . SVG Version: 6.00 Build 0)  -->
<svg version="1.1" id="Layer_1" xmlns="http://www.w3.org/2000/svg" xmlns:xlink="http://www.w3.org/1999/xlink" x="0px" y="0px"
	 viewBox="0 0 253.2 72" style="enable-background:new 0 0 253.2 72;" xml:space="preserve">
<style type="text/css">
	.st0{fill:#3F3800;}
</style>
<path class="st0" d="M87.3,0.4C87.2,0.3,87.1,0.1,87,0C70,8.3,52.9,16.7,35.5,25.2c1.7-2.1,4-3.7,4.3-5.6c0.3-2-1.2-4.3-1.9-6.4
	c-0.1-0.2-0.1-0.3-0.2-0.5C36.4,9.3,35.2,5.9,33.8,2c-0.6,1.4-1,2.3-1.3,3.2c-3.1,7.9-6.2,15.9-9.5,23.7c-0.6,1.4-1.9,2.8-3.3,3.6
	c-3.5,2-7.3,3.6-10.9,5.3c-1.6,0.7-3.1,1.5-5,2.5c8.1,2.9,15.7,5.6,23.3,8.3c-2.8,0.7-5.5,1.1-8.1,1.1c-1.8,0-2.6,0.8-3.2,2.3
	c-2.3,5.3-4.8,10.5-7.2,15.7c-0.7,1.4-1.3,2.9-2.3,5c1.3-0.9,2-1.3,2.6-1.8c8.2-6,16.4-11.9,24.6-17.9c1.5-1.1,2.8-1.3,4.5-0.7
	c6.1,2.2,12.2,4.4,18.3,6.5c2.6,0.9,5.2,1.8,7.8,2.7c0.1-0.1,0.1-0.3,0.2-0.4c-8.3-6.9-16.6-13.8-25-20.9
	C55.3,26.9,71.3,13.6,87.3,0.4z M42.1,48.5c-0.1,0.2-0.1,0.3-0.2,0.5c-8.6-3-17.2-6.1-26.4-9.3c13.6-6.5,26.6-12.8,39.6-19
	c0.1,0.1,0.2,0.3,0.3,0.4c-7.6,6.3-15.2,12.6-23.1,19.1C35.7,43,38.9,45.7,42.1,48.5z"/>
<g>
	<path class="st0" d="M78.1,41.2c0.2,1.9,1.9,3.6,5.2,3.6c3.1,0,4.7-1.4,4.7-3.4c0-1.8-1.3-2.6-4-3.2l-3.9-0.9
		c-3.7-0.8-6.7-2.8-6.7-7.3c0-5.1,4.3-7.9,9.8-7.9c5.8,0,9.7,3.2,9.8,7.8h-5.1c-0.1-1.8-1.6-3.5-4.6-3.5c-2.7,0-4.3,1.3-4.3,3.3
		c0,1.5,1.2,2.5,3.5,3l3.9,0.9c3.8,0.8,7,2.7,7,7.4c0,5.1-4,8.2-10.4,8.2c-7.7,0-10.1-4.3-10.2-8H78.1z"/>
	<path class="st0" d="M99.2,23.6h5.2v4.8h3.9v4.1h-3.9v9.6c0,1.9,0.9,2.6,2.9,2.6c0.4,0,0.9,0,1.1,0v3.9c-0.4,0.1-1.3,0.2-2.4,0.2
		c-5.1,0-6.9-1.7-6.9-5.8V32.5h-2.9v-4.1h3V23.6z"/>
	<path class="st0" d="M117.8,49c-3.9,0-6.7-2.3-6.7-6.2c0-3.7,2.5-6,7.2-6h4.9V35c0-1.9-1.2-3-3.1-3c-2,0-3.1,1.1-3.2,2.6h-5
		c0.1-3.4,2.3-6.6,8.3-6.6c4.7,0,8.3,2.1,8.3,6.9v13.6h-5v-2.5h-0.2C122.5,47.7,120.8,49,117.8,49z M123.2,42v-2.1h-3.6
		c-2.1,0-3.2,1-3.2,2.5c0,1.8,1.5,2.7,3.1,2.7C121.6,45.1,123.2,43.9,123.2,42z"/>
	<path class="st0" d="M133.1,28.4h5.4v2.9h0.2c0.4-1.3,1.9-3.1,4.7-3.1c0.7,0,1.3,0.1,1.7,0.2v4.6c-0.4-0.1-1.2-0.2-2.1-0.2
		c-3.2,0-4.4,1.9-4.4,4.6v11.3h-5.5V28.4z"/>
	<path class="st0" d="M172.4,48.7H156v-26h5.5V44h10.8V48.7z"/>
	<path class="st0" d="M180.9,49c-3.9,0-6.7-2.3-6.7-6.2c0-3.7,2.5-6,7.2-6h4.9V35c0-1.9-1.2-3-3.1-3c-2,0-3.1,1.1-3.2,2.6h-5
		c0.1-3.4,2.3-6.6,8.3-6.6c4.7,0,8.3,2.1,8.3,6.9v13.6h-5v-2.5h-0.2C185.6,47.7,183.9,49,180.9,49z M186.3,42v-2.1h-3.6
		c-2.1,0-3.2,1-3.2,2.5c0,1.8,1.5,2.7,3.1,2.7C184.7,45.1,186.3,43.9,186.3,42z"/>
	<path class="st0" d="M201.8,45.5h-0.2v3.1h-5.3V21.3h5.4v10.1h0.2c0.9-1.9,3.1-3.2,5.8-3.2c4.6,0,7.6,3.3,7.6,9.5v1.8
		c0,6.1-3,9.5-7.7,9.5C204.8,48.9,202.8,47.6,201.8,45.5z M209.9,39.2v-1.4c0-3.6-1.6-5.4-4-5.4c-2.6,0-4.2,1.8-4.2,5.4v1.4
		c0,3.6,1.7,5.5,4.2,5.5C208.2,44.7,209.9,42.8,209.9,39.2z"/>
	<path class="st0" d="M218.6,39.3v-1.8c0-6.1,3.8-9.5,9.1-9.5c5.6,0,9,3.8,9,9.6v2h-12.9v0.6c0,2.9,1.7,4.7,4.1,4.7
		c1.9,0,3.3-1,3.7-2.6h4.9c-0.4,3.2-3,6.6-8.7,6.6C222.3,49,218.6,45.6,218.6,39.3z M231.6,36.4L231.6,36.4c0-2.5-1.5-4.4-3.8-4.4
		c-2.3,0-3.9,1.9-3.9,4.4v0H231.6z"/>
	<path class="st0" d="M240.8,21.3h5.4v27.4h-5.4V21.3z"/>
</g>
</svg>
