<svg id="Layer_1" data-name="Layer 1" xmlns="http://www.w3.org/2000/svg" viewBox="0 0 187.41 249.09"><defs><style>.cls-1{fill:#131114;}.cls-2{fill:#0e0e0f;}.cls-3{fill:#111213;}.cls-4{fill:#171718;}.cls-5{fill:#141515;}.cls-6{fill:#1a1a1c;}.cls-7{fill:#0d0e0f;}.cls-8{fill:#664426;}.cls-9{fill:#0a0a0b;}.cls-10{fill:#0e0f10;}.cls-11{fill:#202122;}.cls-12{fill:#101012;}.cls-13{fill:#232425;}.cls-14{fill:#4a4a49;}.cls-15{fill:#404143;}.cls-16{fill:#585859;}.cls-17{fill:#19191b;}.cls-18{fill:#707071;}.cls-19{fill:#1c1c1d;}.cls-20{fill:#4e4f50;}.cls-21{fill:#272426;}.cls-22{fill:#666667;}.cls-23{fill:#303234;}.cls-24{fill:#1f2021;}.cls-25{fill:#030405;}.cls-26{fill:#242526;}.cls-27{fill:#232320;}.cls-28{fill:#1f1f20;}.cls-29{fill:#161717;}.cls-30{fill:#222323;}.cls-31{fill:#2f3030;}.cls-32{fill:#604124;}.cls-33{fill:#604935;}.cls-34{fill:#5e3e25;}.cls-35{fill:#1c1b17;}.cls-36{fill:#08fa05;}.cls-37{fill:#0b07e6;}.cls-38{fill:#f1fc13;}.cls-39{fill:#37c88e;}.cls-40{fill:#0020a2;}.cls-41{fill:#16a56c;}.cls-42{fill:#424390;}.cls-43{fill:#ecf463;}.cls-44{fill:#6e6f70;}.cls-45{fill:#62391d;}.cls-46{fill:#5a4326;}.cls-47{fill:#421a02;}.cls-48{fill:#633612;}.cls-49{fill:#393b8b;}.cls-50{fill:#643512;}.cls-51{fill:#5f3812;}.cls-52{fill:#66401c;}.cls-53{fill:#633713;}.cls-54{fill:#613613;}.cls-55{fill:#623814;}.cls-56{fill:#623816;}.cls-57{fill:#603524;}.cls-58{fill:#653811;}.cls-59{fill:#623719;}.cls-60{fill:#61381c;}.cls-61{fill:#2d150f;}.cls-62{fill:#5f3913;}.cls-63{fill:#5e3c1f;}.cls-64{fill:#663d20;}.cls-65{fill:#5f3919;}.cls-66{fill:#c25a5b;}.cls-67{fill:#603a20;}.cls-68{fill:#614c39;}.cls-69{fill:#62472f;}.cls-70{fill:#f70503;}.cls-71{fill:#30ba77;}.cls-72{fill:#0204f6;}.cls-73{fill:#0401df;}.cls-74{fill:#f8fa08;}.cls-75{fill:#fbf70f;}.cls-76{fill:#272881;}.cls-77{fill:#1c377b;}.cls-78{fill:#0a2fb1;}.cls-79{fill:#00218c;}.cls-80{fill:#61380f;}.cls-81{fill:#5e3816;}.cls-82{fill:#603712;}.cls-83{fill:#5d3515;}.cls-84{fill:#5f381f;}.cls-85{fill:#3a1c10;}.cls-86{fill:#643519;}.cls-87{fill:#351c12;}.cls-88{fill:#432919;}.cls-89{fill:#4f331f;}.cls-90{fill:#5f3e22;}.cls-91{fill:#583e23;}.cls-92{fill:#4a3116;}.cls-93{fill:#66330f;}.cls-94{fill:#311f15;}.cls-95{fill:#49321f;}.cls-96{fill:#351d03;}.cls-97{fill:#431d01;}.cls-98{fill:#6d4221;}.cls-99{fill:#70431d;}.cls-100{fill:#5e3913;}.cls-101{fill:#5e3611;}.cls-102{fill:#553a1c;}.cls-103{fill:#33220f;}.cls-104{fill:#57351b;}.cls-105{fill:#5a3f27;}.cls-106{fill:#653310;}.cls-107{fill:#5f3815;}.cls-108{fill:#573c15;}.cls-109{fill:#603913;}.cls-110{fill:#512d0e;}.cls-111{fill:#643814;}.cls-112{fill:#563526;}.cls-113{fill:#61370e;}.cls-114{fill:#574126;}.cls-115{fill:#5a432a;}.cls-116{fill:#5e360d;}.cls-117{fill:#512711;}.cls-118{fill:#673411;}.cls-119{fill:#43240d;}.cls-120{fill:#5b3a17;}.cls-121{fill:#f80402;}.cls-122{fill:#5e3a1a;}.cls-123{fill:#65350f;}.cls-124{fill:#42261e;}.cls-125{fill:#63311a;}.cls-126{fill:#5d4428;}.cls-127{fill:#5f402b;}.cls-128{fill:#3b2921;}.cls-129{fill:#392216;}.cls-130{fill:#452b18;}.cls-131{fill:#4b2202;}.cls-132{fill:#503209;}.cls-133{fill:#482500;}.cls-134{fill:#462a10;}.cls-135{fill:#36190c;}.cls-136{fill:#220500;}.cls-137{fill:#4a1d02;}.cls-138{fill:#512511;}.cls-139{fill:#643516;}.cls-140{fill:#5d3c1c;}.cls-141{fill:#594120;}.cls-142{fill:#503620;}.cls-143{fill:#613709;}.cls-144{fill:#29180e;}.cls-145{fill:#634328;}.cls-146{fill:#411f05;}.cls-147{fill:#3c2f26;}.cls-148{fill:#62321c;}.cls-149{fill:#59391a;}.cls-150{fill:#5e3b22;}.cls-151{fill:#36180a;}.cls-152{fill:#1b0a03;}.cls-153{fill:#4a3422;}.cls-154{fill:#321e0f;}.cls-155{fill:#463629;}.cls-156{fill:#594938;}.cls-157{fill:#392516;}.cls-158{fill:#3d1e05;}.cls-159{fill:#4a260a;}.cls-160{fill:#1f1709;}.cls-161{fill:#5c351d;}.cls-162{fill:#442c21;}.cls-163{fill:#5d3d1d;}.cls-164{fill:#6a3d1d;}.cls-165{fill:#4a3128;}.cls-166{fill:#23160f;}.cls-167{fill:#624129;}.cls-168{fill:#421916;}.cls-169{fill:#492d10;}.cls-170{fill:#422a1b;}.cls-171{fill:#26150e;}.cls-172{fill:#361a11;}.cls-173{fill:#5f3f24;}.cls-174{fill:#5b3319;}</style></defs><path class="cls-1" d="M92.67,226.68h-2c-.08-1.49-1.24-.85-2-1a2.46,2.46,0,0,0-2-2h-1v-6c1.37-1,1.37-2,0-3h-3a.85.85,0,0,0-1,1v10h-2v-1a.77.77,0,0,0,1-.75c.08-.68,0-1.32-1-1.25v-7c0-.69-.31-1-1-1-1,.38-2.53-.92-3,1a.78.78,0,0,0-1,.76c-.07.67,0,1.32,1,1.24v4c-1.5.09-.85,1.25-1,2a.85.85,0,0,0-1,1h-1v-2c1.93-.47.62-2,1-3v-1c-.15-.75.5-1.91-1-2-1,0-1.33-.82-1.82-1.38-.65-.74-1.4-.61-2.18-.62h-2v-2h6c.47,1.93,2,.62,3,1,.69,0,1-.3,1-1h9c0,.7.31,1,1,1s1.92.5,2-1h6c0,.7.31,1,1,1,0,.7.31,1,1,1,.15.76-.5,1.92,1,2v5c-1.5.09-.85,1.25-1,2a.85.85,0,0,0-1,1,.85.85,0,0,0-1,1C93.91,225.83,92.76,225.19,92.67,226.68Zm1-3c.69,0,1-.3,1-1,1.5-.08.85-1.24,1-2v-2c-.15-.75.5-1.91-1-2,0-.69-.31-1-1-1-1.06-.14-1.72-1.49-3-1h-2v3c-.87-.06-1,.5-1,1.18v2.82c0,.7.31,1,1,1,0,.7.31,1,1,1,0,.7.31,1,1,1h2C93.36,224.71,93.7,224.38,93.67,223.68Z"/><path class="cls-2" d="M158.67,216.68V213.2c.6-.87,1.52-.35,2.2-.55,2.67,1.25,2.83,4.69,5.77,6.07v-5.95h2.86v13.59c-.63.74-1.59.29-2.54.13-2.05-1.91-2-5.37-5.25-6.77v6.87h-3v-9.91Z"/><path class="cls-3" d="M157.67,221.68c-.17,1.52-2.36,1.86-2.12,3.62-1.92,1.49-4.15,1.5-6.36,1.36-1.22-1.31-4-1.21-3.52-4v-6c-.44-2.11,1.58-2.69,2.48-4h6.08c1,1.37,2.75,2.22,3.44,4Zm-3.06-4.58c-1.38-1.19-2.16-2.93-4.59-2.29l-2.32,2.47V221l3.82,4.07c-.24-2.16,1.57-.86,2-1.84C154.76,221.42,154.82,219.38,154.61,217.1Z"/><path class="cls-4" d="M51.67,212.68h2.57c.93,1.43.11,3.13.57,4.78,1.73.3,3.46.77,4.87-1.37V213.2c.67-.82,1.38-.39,2-.52.35,2.16-.81,4.55.94,6.52-1.35.84-.88,2.24-.94,3.48-.87-.06-1,.5-1,1.18v2.82a.76.76,0,0,1-1-.79c-.06-1.3,0-2.6,0-3.59-1.31-2-3-1.69-5-1.47v5.76h-3V212.68Z"/><path class="cls-5" d="M107.67,220.68h-1c0-.69-.31-1-1-1,0-.69-.31-1-1-1,0-.69-.31-1-1-1s-.83-.24-1-.69c-.5-1.35.58-2.23,1-3.31.69,0,1-.3,1-1h17v2c-1,.38-2.53-.92-3,1-.94-.07-1,.57-1,1.25v9.75h-2v-12h-9c-1.37,1-1.37,2,0,3h1c0,.7.31,1,1,1a2.44,2.44,0,0,0,2,2c-.38,1,.93,2.53-1,3-.15-.75.5-1.91-1-2C108.7,221,108.36,220.66,107.67,220.68Z"/><path class="cls-6" d="M121.67,226.68h-1v-3c.69,0,1-.3,1-1v-2c1.5-.08.85-1.24,1-2,1.5-.08.85-1.24,1-2v-1c.69,0,1-.3,1-1v-2h2c0,.7.31,1,1,1v1c.15.76-.5,1.92,1,2,.15.76-.5,1.92,1,2v1c.15.76-.5,1.92,1,2,.13.61-.33,1.36.34,1.82.83.57.66,1.39.66,2.18v1c-2.24-.21-2.79-.76-3-3,0-.69-.31-1-1-1-1-1.37-2-1.37-3,0a.85.85,0,0,0-1,1c-1.5.09-.85,1.25-1,2A.85.85,0,0,0,121.67,226.68Zm4-7c.11.28.17.76.34.8.6.13.7-.31.66-.8v-1c.49,0,.88-.05.83-.68a2.75,2.75,0,0,0-3,.18C124.92,218.67,124.28,219.69,125.67,219.68Z"/><path class="cls-7" d="M25.67,214.68a4.41,4.41,0,0,1,4.2-2c1.93,0,3.87,0,5.8,0,.49,1.28-.85,1.94-1,3h-2c-1-1.37-2-1.37-3,0-.76.15-1.91-.49-2,1a.85.85,0,0,0-1,1,.78.78,0,0,0-1,.76c-.07.67,0,1.32,1,1.24v3c.09,1.5,1.24.85,2,1,.09,1.5,1.24.85,2,1h1c.69,0,1-.3,1-1,1.85-.73.89-1.91.58-3H30.67v-1h4v6H31.85c-.69,0-1.24.14-1.18,1h-1c-.08-1.49-1.24-.85-2-1-.08-1.49-1.24-.85-2-1v-1c-.15-.75.5-1.91-1-2v-5C26.17,216.6,25.52,215.44,25.67,214.68Z"/><path class="cls-8" d="M35.67,177.68h-1a15,15,0,0,0-5-2v-2h1c.12.29.16.73.37.83a25,25,0,0,0,9.09,2.07c5.8.37,11.64,0,17.46.17,1.3,0,2-.88,3.08-1.07,0,.17-.07.41,0,.49a5.65,5.65,0,0,0,1,.5v-16h1v17h-27Z"/><path class="cls-9" d="M132.67,214.68h-2v-2h11.75c.68,0,1.32.06,1.25,1-.28.12-.81.23-.81.35q-.08,5.16,0,10.3c0,.12.53.24.81.35v2h-2c0-2,0-3.91,0-5.87s.26-4.14-.24-6.13h-3.75a.85.85,0,0,0-1,1c-.94-.07-1,.57-1,1.25v9.75h-1v-9.75c0-.68-.06-1.32-1-1.25C133.7,215,133.36,214.66,132.67,214.68Z"/><path class="cls-10" d="M48.67,219.68c-.38,1.41-1.29,1.92-2.75,2.06a2.34,2.34,0,0,0-2.25,2.94c-.6-.11-1.29.28-1.8-.29,1.12-2.2-1.45-4.54.27-6.68.55.27.72,1.11,1.53,1H46.3c.18-.83,1.57-1,1.37-2.2a3,3,0,0,0-2.1-1.82l-1.9,1c-1.7-.31-1-2.24-2-3h7l1,2C49.64,216.41,50,218.21,48.67,219.68Z"/><path class="cls-11" d="M22.67,224.68v1.49c-.78,1.06-1.8.13-2.84.79V212.78h2.43c.72.57.28,1.29.41,1.9v10Z"/><path class="cls-12" d="M43.67,218.68c-.81.14-1-.7-1.53-1-1.72,2.14.85,4.48-.27,6.68.51.57,1.2.18,1.8.29v2c-1.27.49-1.94-.85-3-1v-13h1c1,.76.3,2.69,2,3Z"/><path class="cls-13" d="M143.67,224.68c-.28-.11-.81-.23-.81-.35q-.08-5.15,0-10.3c0-.12.53-.23.81-.35v3h2v6h-2Z"/><path class="cls-1" d="M69.67,226.68h-1c-.08-1.49-1.24-.85-2-1,0-.69-.31-1-1-1,0-.69-.31-1-1-1v-2.82c0-.68-.13-1.24-1-1.18v-1c1.93-.47.62-2,1-3l2-1v2a4.78,4.78,0,0,0,0,6c0,.7.31,1,1,1-.06.87.49,1,1.18,1h3.82v1C71.69,226.06,70.14,224.76,69.67,226.68Z"/><path class="cls-14" d="M63.67,218.68v4c-1.65.17-.81,1.45-1,2.25s.34,1.75-1,1.75v-4c.06-1.24-.41-2.64.94-3.48-1.75-2-.59-4.36-.94-6.52,1.35,0,.86,1,1,1.75s-.66,2.09,1,2.25Z"/><path class="cls-15" d="M108.67,214.68h7v12c-1,.08-1-.57-1-1.25v-9.75h-4.75C109.24,215.68,108.6,215.63,108.67,214.68Z"/><path class="cls-13" d="M139.67,214.68h1.75c.5,2,.18,4.08.24,6.13s0,3.92,0,5.87c-.93.07-1-.55-1-1.23,0-2.43-.15-4.88.06-7.29A6.46,6.46,0,0,0,139.67,214.68Z"/><path class="cls-16" d="M48.67,219.68c1.32-1.47,1-3.27,1-5,.94.08.94-.57,1-1.24a.78.78,0,0,1,1-.76v6c-.82-.13-1,.72-1.57,1Z"/><path class="cls-17" d="M34.67,225.68v-6h-4c-.06-.88.51-1,1.2-1h3.8v7Z"/><path class="cls-15" d="M118.67,215.68v11h-1v-9.75C117.67,216.25,117.73,215.61,118.67,215.68Z"/><path class="cls-5" d="M103.67,223.68h1a2.47,2.47,0,0,0,4,0h1v2c-.76.15-1.91-.49-2,1h-3c0-.69-.31-1-1-1Z"/><path class="cls-13" d="M135.67,226.68v-9.75c0-.68.06-1.32,1-1.25v11Z"/><path class="cls-18" d="M22.67,224.68v-3h2v2Z"/><path class="cls-19" d="M109.67,224.68v-1c1.93-.47.62-2,1-3a2.48,2.48,0,0,1,0,4Z"/><path class="cls-17" d="M30.67,221.68v-1h2.58c.31,1.09,1.27,2.27-.58,3-.15-.75.5-1.91-1-2Z"/><path class="cls-20" d="M22.67,218.68v-4c.94-.07.94.57,1,1.25a.77.77,0,0,0,1,.75v1a.85.85,0,0,0-1,1Z"/><path class="cls-21" d="M97.67,221.68v-5A3.43,3.43,0,0,1,97.67,221.68Z"/><ellipse class="cls-22" cx="158.17" cy="219.18" rx="0.71" ry="3.54"/><path class="cls-23" d="M75.67,217.68h1v3c0,.7-.31,1-1,1Z"/><path class="cls-24" d="M63.67,222.68v-3c.87-.06,1,.5,1,1.18v2.82C64,223.71,63.65,223.38,63.67,222.68Z"/><path class="cls-24" d="M66.67,214.68l-2,1a2.47,2.47,0,0,1,2-3Z"/><path class="cls-25" d="M61.67,222.68v4h-1v-2.82C60.67,223.18,60.8,222.62,61.67,222.68Z"/><path class="cls-26" d="M108.67,223.68a2.47,2.47,0,0,1-4,0Z"/><path class="cls-17" d="M30.67,226.68c-.06-.86.49-1,1.18-1h2.82c.06.87-.49,1-1.17,1Z"/><path class="cls-27" d="M106.67,217.68c-1.37-1-1.37-2,0-3Z"/><path class="cls-24" d="M63.67,218.68v-2a.85.85,0,0,1,1-1C64.29,216.67,65.6,218.21,63.67,218.68Z"/><path class="cls-27" d="M110.67,220.68a2.44,2.44,0,0,1-2-2h2Z"/><path class="cls-28" d="M124.67,222.68c1-1.37,2-1.37,3,0Z"/><path class="cls-29" d="M86.67,223.68a2.46,2.46,0,0,1,2,2h-2Z"/><path class="cls-24" d="M69.67,226.68c.47-1.92,2-.62,3-1C72.2,227.61,70.66,226.3,69.67,226.68Z"/><path class="cls-26" d="M107.67,226.68c.09-1.49,1.24-.85,2-1C109.59,227.18,108.43,226.53,107.67,226.68Z"/><path class="cls-29" d="M92.67,226.68c.09-1.49,1.24-.85,2-1C94.59,227.18,93.43,226.53,92.67,226.68Z"/><path class="cls-29" d="M88.67,225.68c.76.15,1.92-.49,2,1C89.91,226.53,88.76,227.18,88.67,225.68Z"/><ellipse class="cls-30" cx="80.67" cy="226.18" rx="1.41" ry="0.71"/><path class="cls-24" d="M66.67,225.68c.76.15,1.92-.49,2,1C67.91,226.53,66.76,227.18,66.67,225.68Z"/><path class="cls-17" d="M27.67,225.68c.76.15,1.92-.49,2,1C28.91,226.53,27.76,227.18,27.67,225.68Z"/><path class="cls-17" d="M25.67,224.68c.76.15,1.92-.49,2,1C26.91,225.53,25.76,226.18,25.67,224.68Z"/><path class="cls-28" d="M122.67,225.68c.15-.75-.5-1.91,1-2C123.52,224.44,124.17,225.6,122.67,225.68Z"/><path class="cls-26" d="M103.67,223.68v2c-.94.08-1-.57-1-1.24A.78.78,0,0,1,103.67,223.68Z"/><path class="cls-23" d="M73.67,224.68a.85.85,0,0,1,1-1c-.15.76.5,1.92-1,2Z"/><path class="cls-17" d="M30.67,224.68c-.76-.15-1.91.5-2-1h2Z"/><path class="cls-19" d="M109.67,223.68h-1v-2C110.17,221.77,109.52,222.93,109.67,223.68Z"/><path class="cls-21" d="M96.67,223.68c.15-.75-.5-1.91,1-2C97.52,222.44,98.17,223.6,96.67,223.68Z"/><path class="cls-23" d="M74.67,223.68c.15-.75-.5-1.91,1-2C75.52,222.44,76.17,223.6,74.67,223.68Z"/><path class="cls-31" d="M26.67,222.68v-2h1v2Z"/><path class="cls-31" d="M27.67,218.68h-1v-1a.85.85,0,0,1,1-1v2Z"/><path class="cls-21" d="M97.67,216.68c-1.5-.08-.85-1.24-1-2h1Z"/><path class="cls-31" d="M25.67,214.68c-.15.76.5,1.92-1,2C24.82,215.93,24.17,214.77,25.67,214.68Z"/><path class="cls-13" d="M130.67,212.68v2c-1.5-.08-.85-1.24-1-2Z"/><path class="cls-13" d="M136.67,215.68a.85.85,0,0,1,1-1C137.7,215.38,137.36,215.71,136.67,215.68Z"/><path class="cls-27" d="M108.67,218.68c-.69,0-1-.3-1-1C108.36,217.66,108.7,218,108.67,218.68Z"/><path class="cls-27" d="M105.67,220.68v-1c.69,0,1,.31,1,1Z"/><path class="cls-27" d="M107.67,220.68c.69,0,1,.31,1,1C108,221.71,107.65,221.38,107.67,220.68Z"/><path class="cls-28" d="M128.67,223.68h-1v-1C128.36,222.66,128.7,223,128.67,223.68Z"/><path class="cls-31" d="M25.67,223.68v1c-.69,0-1-.3-1-1Z"/><path class="cls-24" d="M64.67,223.68c.69,0,1,.31,1,1C65,224.71,64.65,224.38,64.67,223.68Z"/><path class="cls-29" d="M95.67,224.68a.85.85,0,0,1,1-1C96.7,224.38,96.36,224.71,95.67,224.68Z"/><path class="cls-24" d="M65.67,224.68c.69,0,1,.31,1,1C66,225.71,65.65,225.38,65.67,224.68Z"/><circle class="cls-24" cx="73.17" cy="225.18" r="0.71"/><path class="cls-29" d="M94.67,225.68a.85.85,0,0,1,1-1C95.7,225.38,95.36,225.71,94.67,225.68Z"/><path class="cls-26" d="M109.67,224.68h1c0,.7-.31,1-1,1Z"/><path class="cls-26" d="M103.67,225.68c.69,0,1,.31,1,1C104,226.71,103.65,226.38,103.67,225.68Z"/><path class="cls-15" d="M119.67,226.68a.85.85,0,0,1,1-1v1Z"/><path class="cls-28" d="M121.67,226.68a.85.85,0,0,1,1-1C122.7,226.38,122.36,226.71,121.67,226.68Z"/><path class="cls-32" d="M19.67,43.68c1.12-1.94,0-5,3-6,0,2.06-1.7,3.83-1,6v4c-1.94.35-1,1.87-1,2.78-.07,16.07,0,32.15,0,48.22,0,13.62-.11,27.24,0,40.85.1,8-1,16,1.2,23.89.57.77,1.62,1.16,1.76,2.26h-2a51,51,0,0,1-2-6.35c0-1,0-2,0-3Z"/><path class="cls-33" d="M21.67,165.68h2c.15.76-.5,1.92,1,2h1v1c-.49,0-.88,0-.79,1h1.79l-1,2A7.12,7.12,0,0,1,21.67,165.68Z"/><path class="cls-33" d="M29.67,173.68v1c-2.2.15-3.12-1.39-4-3h2A2.44,2.44,0,0,0,29.67,173.68Z"/><path class="cls-32" d="M23.67,33.68c1.82-.35,2.18-2.65,4-3v1c-.09,1.22-1.61,1.62-2,2.78.9.3,1.62.07,2,.78-.75,1-2.24-.17-3,.92.29.54,1.11.72,1,1.52h-3c.13-.6-.33-1.35.34-1.81C23.84,35.3,23.67,34.48,23.67,33.68Z"/><path class="cls-34" d="M27.67,31.68v-1h1c.69,0,1-.3,1-1,.76-1,2.69-.3,3-2h125l8,6,1,2c0,.7.31,1,1,1-.13,1.87,1.29,3.26,1.55,5a3.14,3.14,0,0,0,.45,0v121a15,15,0,0,0-2,5c-2.84,3.43-5.66,6.79-10,8.65-1,.42-2.84-.74-3,1.35h-26v-1c.69,0,1-.3,1-1H155.8c4-2.32,6.36-6.13,9.86-8.65.22-1.09-.46-2.31.38-3.24l1.63-.33V41.1c-.79-.42-1-1.47-2-1.42v-2h-2c-.11-.59.26-1.27-.28-1.79l-1.65-.53-.16-2.46c-1.44-.21-2.81-.31-3.91-1.22l-.83-.34c-.23-.65,1-.68.44-1.66H41.67c-.94,0-1.88,0-2.82,0-.69,0-1.24.14-1.18,1h-1c0-.49-.06-.87-.67-.83l-.72,1.83Zm6.5-2c-.47.33-.47.66,0,1C34.64,30.35,34.64,30,34.17,29.69Zm-1.5.49c-.33-.46-.67-.46-1,0C32,30.65,32.34,30.65,32.67,30.18Z"/><path class="cls-32" d="M29.67,29.68c0,.7-.31,1-1,1A.85.85,0,0,1,29.67,29.68Z"/><path class="cls-24" d="M68.67,214.68a2.44,2.44,0,0,1-2,2v-2Z"/><path class="cls-35" d="M85.67,217.68v-3C87,215.69,87,216.68,85.67,217.68Z"/><path class="cls-21" d="M90.67,214.68a2.44,2.44,0,0,1-2,2v-2Z"/><path class="cls-23" d="M72.67,222.68c.38-1-.93-2.53,1-3C73.29,220.67,74.6,222.21,72.67,222.68Z"/><path class="cls-30" d="M79.67,224.68v-2c.94-.07,1.06.57,1,1.25A.77.77,0,0,1,79.67,224.68Z"/><path class="cls-21" d="M94.67,222.68c.15-.75-.5-1.91,1-2C95.52,221.44,96.17,222.6,94.67,222.68Z"/><path class="cls-21" d="M95.67,218.68c-1.5-.08-.85-1.24-1-2C96.17,216.77,95.52,217.93,95.67,218.68Z"/><path class="cls-23" d="M73.67,218.68c-1.5-.08-.85-1.24-1-2C74.17,216.77,73.52,217.93,73.67,218.68Z"/><path class="cls-23" d="M75.67,215.68v2c-.94.08-1-.57-1-1.24A.78.78,0,0,1,75.67,215.68Z"/><path class="cls-30" d="M75.67,213.68a.85.85,0,0,1,1-1C76.7,213.38,76.36,213.71,75.67,213.68Z"/><path class="cls-30" d="M86.67,212.68v1c-.69,0-1-.3-1-1Z"/><path class="cls-21" d="M95.67,212.68v1c-.69,0-1-.3-1-1Z"/><path class="cls-21" d="M96.67,213.68v1c-.69,0-1-.3-1-1Z"/><path class="cls-30" d="M79.67,215.68c-.69,0-1-.3-1-1C79.36,214.66,79.7,215,79.67,215.68Z"/><path class="cls-30" d="M82.67,215.68h-1a.85.85,0,0,1,1-1Z"/><path class="cls-21" d="M94.67,216.68c-.69,0-1-.3-1-1C94.36,215.66,94.7,216,94.67,216.68Z"/><path class="cls-29" d="M87.67,221.68h1v1C88,222.71,87.65,222.38,87.67,221.68Z"/><path class="cls-23" d="M71.67,223.68a.85.85,0,0,1,1-1v1Z"/><path class="cls-29" d="M88.67,222.68c.69,0,1,.31,1,1C89,223.71,88.65,223.38,88.67,222.68Z"/><path class="cls-29" d="M93.67,223.68a.85.85,0,0,1,1-1C94.7,223.38,94.36,223.71,93.67,223.68Z"/><circle class="cls-24" cx="72.17" cy="224.18" r="0.71"/><path class="cls-29" d="M89.67,223.68c.69,0,1,.31,1,1C90,224.71,89.65,224.38,89.67,223.68Z"/><path class="cls-29" d="M92.67,224.68a.85.85,0,0,1,1-1C93.7,224.38,93.36,224.71,92.67,224.68Z"/><path class="cls-28" d="M121.67,212.68h1c-.15.76.5,1.92-1,2Z"/><path class="cls-27" d="M104.67,218.68c-.69,0-1-.3-1-1C104.36,217.66,104.7,218,104.67,218.68Z"/><path class="cls-27" d="M105.67,219.68c-.69,0-1-.3-1-1C105.36,218.66,105.7,219,105.67,219.68Z"/><path class="cls-36" d="M107.67,207.68h-12v-52h12Z"/><path class="cls-37" d="M121.67,207.68h-10v-48c.61.13,1.33-.31,2.09.65v43.09h5.91v-3.74c1.67-.17,1-1.48,1-2.28,0-11.81,0-23.62.06-35.43,0-.8-.7-2.11,1-2.29v48Z"/><path class="cls-38" d="M95.67,155.68v52h-12v-2c2.68,0,5.37.1,8-.09v-1.91c.61-.12,1.33.31,1.84-.33.67-16.17.32-45.23-.39-45.53-2.22-.87-1,1.33-1.89,1.75-1.14.06-2.41.49-3.56-.35v-3.54Z"/><path class="cls-39" d="M107.67,207.68v-52c.07-.93-.56-1-1.24-1H97.67v-1h16c-.08,1.5-1.24.85-2,1h-2a.85.85,0,0,0-1,1v52Z"/><path class="cls-40" d="M111.67,159.68v48h-2v-2c1.94-.34,1-1.86,1-2.77.07-15.07,0-30.15,0-45.23h1Z"/><path class="cls-41" d="M109.67,205.68v2h-1v-52h1Z"/><ellipse class="cls-42" cx="122.17" cy="191.68" rx="0.71" ry="22.63"/><path class="cls-43" d="M83.67,205.68v2h-1v-4C84.17,203.77,83.52,204.93,83.67,205.68Z"/><path class="cls-28" d="M125.67,219.68c-1.39,0-.75-1-1.12-1.5a2.75,2.75,0,0,1,3-.18c0,.63-.34.72-.83.68A.85.85,0,0,0,125.67,219.68Z"/><path class="cls-28" d="M129.67,219.68c1.5.09.85,1.25,1,2C129.17,221.6,129.82,220.44,129.67,219.68Z"/><path class="cls-28" d="M121.67,220.68c.15-.75-.5-1.91,1-2C122.52,219.44,123.17,220.6,121.67,220.68Z"/><path class="cls-28" d="M128.67,216.68c1.5.09.85,1.25,1,2C128.17,218.6,128.82,217.44,128.67,216.68Z"/><path class="cls-28" d="M122.67,218.68c.15-.75-.5-1.91,1-2C123.52,217.44,124.17,218.6,122.67,218.68Z"/><path class="cls-28" d="M127.67,214.68c1.5.09.85,1.25,1,2C127.17,216.6,127.82,215.44,127.67,214.68Z"/><path class="cls-28" d="M126.67,212.68c.69,0,1,.31,1,1C127,213.71,126.65,213.38,126.67,212.68Z"/><path class="cls-28" d="M123.67,215.68a.85.85,0,0,1,1-1C124.7,215.38,124.36,215.71,123.67,215.68Z"/><path class="cls-44" d="M125.67,219.68a.85.85,0,0,1,1-1v1Z"/><path class="cls-28" d="M125.67,219.68h1c0,.49-.06.93-.66.8C125.84,220.44,125.78,220,125.67,219.68Z"/><path class="cls-28" d="M120.67,223.68a.85.85,0,0,1,1-1C121.7,223.38,121.36,223.71,120.67,223.68Z"/><path class="cls-13" d="M131.67,225.68c.49,0,.93.07.79.67,0,.16-.51.22-.79.33Z"/><path class="cls-13" d="M133.67,215.68c.94-.07,1,.57,1,1.25v9.75c-.94.08-1-.56-1-1.24Z"/><path class="cls-13" d="M132.67,214.68c.69,0,1,.31,1,1C133,215.71,132.65,215.38,132.67,214.68Z"/><path class="cls-17" d="M28.67,222.68v1c-.76-.15-1.91.5-2-1h2Z"/><path class="cls-17" d="M25.67,223.68h-1v-2C26.17,221.77,25.52,222.93,25.67,223.68Z"/><ellipse class="cls-31" cx="24.17" cy="220.68" rx="0.71" ry="1.41"/><path class="cls-17" d="M26.67,217.68v2c-.94.08-1.05-.57-1-1.24A.78.78,0,0,1,26.67,217.68Z"/><path class="cls-31" d="M23.67,218.68a.85.85,0,0,1,1-1v1Z"/><circle class="cls-17" cx="24.17" cy="219.18" r="0.71"/><path class="cls-17" d="M31.67,224.68v-1h1C32.7,224.38,32.36,224.71,31.67,224.68Z"/><path class="cls-45" d="M29.67,173.68a2.44,2.44,0,0,1-2-2,.7.7,0,0,0,.89-.59c0-.08-.22-.31-.29-.3a.71.71,0,0,0-.6.89h-2l1-2c.94.13,1.95-.29,2.83.32.3.55,0,1.34,1.1,1.85h7.75l1.75,3.83H57.67v-12H59.1c.58.29.75,1.14,1.57,1v11c-1.07.19-1.78,1.1-3.08,1.07-5.82-.15-11.66.2-17.46-.17A25,25,0,0,1,31,174.51c-.21-.1-.25-.54-.37-.83a.69.69,0,0,0,.89-.64C30.68,172.52,29.91,172.29,29.67,173.68Z"/><path class="cls-46" d="M60.67,164.68c-.82.14-1-.71-1.57-1H57.67c-1.22-.16-1.58-1.46-2-1.67-4,.61-7.32,1.94-11,1.67-1.61-.15-3.32.32-5.33-.5l2.81-1c-1.94-.66-4.06-.31-4.48-2.49h2c0,1.35,1,1,1.76,1,6.75,0,13.49,0,20.24,0v1C59.74,162.15,61.05,163.7,60.67,164.68Z"/><path class="cls-47" d="M60.67,164.68c.38-1-.93-2.53,1-3v15a5.65,5.65,0,0,1-1-.5c-.08-.08,0-.32,0-.49Z"/><path class="cls-48" d="M29.67,173.68c.24-1.39,1-1.16,1.89-.64a.69.69,0,0,1-.89.64Z"/><path class="cls-49" d="M122.67,175.68h-1v-21h1Z"/><ellipse class="cls-20" cx="23.17" cy="220.68" rx="0.71" ry="1.41"/><circle class="cls-31" cx="23.17" cy="219.18" r="0.71"/><path class="cls-24" d="M66.67,216.68v6A4.78,4.78,0,0,1,66.67,216.68Z"/><path class="cls-23" d="M71.67,223.68v1H68.85c-.69,0-1.24-.13-1.18-1Z"/><path class="cls-24" d="M66.67,222.68c.69,0,1,.31,1,1C67,223.71,66.65,223.38,66.67,222.68Z"/><path class="cls-50" d="M21.67,47.68v-4c.6-.11,1.28.27,1.79-.28.65-1.14-.32-2.53.58-3.61.58-.18,1.3,0,1.63-.69V37.68c2.31-.37,2.81,1.75,4,2.48.11,1.7-.36,3.07,1,4.05.2.14.25.95-.41,1.39H28.07c-.62-.78-.23-2.67-2.23-1.65a6.72,6.72,0,0,0,.1,3.66l3.45.17a4.22,4.22,0,0,0,1.75,2.87c1.89-.92,1.89-.92,4.53-1,.15.76-.5,1.92,1,2h1v1h-1c-1.6-.2-.49,1.73-1.54,2-.91-1.12-2.86-1.15-2.9-3-1,.2-1.89-.31-2.42.37v3.63h4.41c.45.84,1.5,1,1.45,2H32.18c-.84,1.12-2.41,1.71-2.59,3.37a3.5,3.5,0,0,1,2.51,2.67c.88-.71.45-1.43.57-2,1.5.09.85,1.25,1,2v7.76l-3.73,2.37v6.07H45.65l-.14,1.89H29.82v4.06h8.85v1.85H35.85c-.69,0-1.24.14-1.18,1l-2,1h-1c-.28.11-.75.18-.79.34-.14.6.3.7.79.66V93c.37,1.08,1.62.32,2,1.25v1.43h-4v16H24c-.7-1.09.15-2.25-.71-2.89l-1.63-.32V47.68Z"/><path class="cls-51" d="M21.67,98.68v9.79l1.63.32c.86.64,0,1.8.71,2.89h3.66v37.46l2,2.14v4.16c.82-.14.71,1.36,1.8,1,.57-13.92.37-40.56-.34-44.76h-1.5v-16h4V162c-1.51-.68-2.82.33-4-.73.07-1.25-.35-1.89-1.7-1.38-.62.88-.19,1.89-.32,2.83l-2,1c-.22-1.33.46-2.81-.47-4l-1.27.11a5.1,5.1,0,0,0,.13,3.91h1.61c0,.73-.15,1.45.53,2.09s.07.85-.54.91a.85.85,0,0,0-1,1c-1.5-.08-.85-1.24-1-2-.14-1.1-1.19-1.49-1.76-2.26-2.16-7.87-1.1-15.92-1.2-23.89-.15-13.61,0-27.23,0-40.85Z"/><path class="cls-52" d="M21.67,98.68h-1c0-16.07,0-32.15,0-48.22,0-.91-1-2.43,1-2.78Z"/><path class="cls-53" d="M25.67,37.68V39.1c-.33.73-1.05.51-1.63.69-.9,1.08.07,2.47-.58,3.61-.51.55-1.19.17-1.79.28-.7-2.17,1-3.94,1-6Z"/><path class="cls-48" d="M25.67,163.68l2-1c-.18,1.62,1.73.51,2,1.58s-.32,2.22.36,3.34h4.13l1-2.15H45.88c-.56-.59-.9-.92-1.2-1.28-.08-.1,0-.32,0-.49,3.65.27,7-1.06,11-1.67.45.21.81,1.51,2,1.67v6H47.12c-1.25,1.72-1.25,1.72-1,3.9,1.85.4,3.82-.31,5.6.38v1.72H40.1l-1.75-3.83H30.6c-1.11-.51-.8-1.3-1.1-1.85-.88-.61-1.89-.19-2.83-.32v-1c.69,0,1-.3,1.3-2,.09-.78-.29-.49-.27-.45.27.44-.6,1.53.42,1.33.81-.17.77-1.15-.15-.88-1,.94-1.32,1.27-1.3,2h-1v-2c.61-.06,1.32-.18.54-.91S25.71,164.41,25.67,163.68Z"/><path class="cls-52" d="M25.67,168.68h1v1H24.88C24.79,168.73,25.18,168.65,25.67,168.68Z"/><path class="cls-52" d="M25.67,166.68v1h-1A.85.85,0,0,1,25.67,166.68Z"/><path class="cls-53" d="M35.67,49.68c-2.64,0-2.64,0-4.53,1a4.22,4.22,0,0,1-1.75-2.87l-3.45-.17a6.72,6.72,0,0,1-.1-3.66c2-1,1.61.87,2.23,1.65h2.14c.66-.44.61-1.25.41-1.39-1.34-1-.87-2.35-1-4.05-1.16-.73-1.66-2.85-4-2.48.13-.8-.69-1-1-1.52.72-1.09,2.21.12,3-.92-.35-.71-1.07-.48-2-.78.38-1.16,1.9-1.56,2-2.78h7.61L36,29.85c.61,0,.71.34.67.83.11.28.17.76.34.8.6.13.7-.31.66-.8-.06-.86.49-1,1.18-1,.94,0,1.88,0,2.82,0v1.25c.34,1.17,1.58.39,2,1.23-.27.54-1.11.72-1,1.52H39.75c.81,1.51-1.31,1.87-1.07,3.38,1.08.57,2.2,1.18,2.47,2.58l1.11-.9a2.52,2.52,0,0,1,.08,2.77c-.81.54-2-.35-2.67.69v1.48h-1c-.13-.61.32-1.33-.43-1.92l-1,.81c-.57.13-.58-1.17-1.39-.6-.32.55,0,1.34-.71,1.68-.87-.33,0-1.64-1-1.89-1.13.64.39,2.27-1,2.8-1-.18.31-1.81-1.12-1.7-.61.74-.2,1.58-.26,2.19.3,1,1.24.34,1.57.75.85.89-.19,2.12.8,2.82.61-.19.76-1.1,1.57-.94Z"/><path class="cls-54" d="M57.67,29.68h99.61c.59,1-.67,1-.44,1.66l.83.34c-.13.62.31,1.33-.54,2h-6l-1.92,1.92c-6.79.13-6.79.13-10.57-1.93h-4.22l-2.78,2.45v2.55c-1.5.09-.85,1.25-1,2a7.47,7.47,0,0,1-2-.3c-.78-.09-.49.3-.45.27.44-.27,1.53.61,1.32-.41-.16-.81-1.14-.78-.87.14,1,1.24.4,1.27-.28,1.31-1.23.07-.38,1.42-1.08,1.82-3.14.59-6.41-.34-9.75.58.78.88,1.47.48,2.07.59-.07.91.53,1,1.21,1h4.79c0,1.27-1,1-1.66,1a6.16,6.16,0,0,0-4.34,1h-2v7.74l2,.5v3.46c.87.42,1.64.13,2.15,1.11v9.82c1,1.07,2.31,1.75,1.86,3.37.17,1.28-.33,2.61.25,3.83a3.21,3.21,0,0,1,2.67,1.75c-.28.89-1.69-.15-1.79,1,.21.45,1.28.68.24,1.47-1.81-.2-2.38-1.86-3.53-2.76V76c-.67-.44-1.47-.09-1.84-.83V73.68a4.77,4.77,0,0,0-1-3.92c1.05-2.27,1.05-2.27.64-6.27-1.15.68-2.51-.47-3.6.7a41.17,41.17,0,0,1-.06,5.45c-.18,1.32.9,2,1.06,3-1.93.47-.62,2-1,3-1-.15-1.28,1.62-2.52,1a5.36,5.36,0,0,0-2-2.94l-1,.94c-1.22-1.66-3-.73-4.47-1a1.53,1.53,0,0,0-.2-.94c.84-.23,1.74.4,2.21-.89-.76-.12-1.42-.47-2.21.89a2.79,2.79,0,0,0-.8-.06c0-.69-.31-1-1-1h-4c.13-.61-.31-1.33.34-1.85.32,0,.7-.23.93-.12a15.37,15.37,0,0,1,1.66,1.13c2.1-1.89,4.54-.91,6.84-1.2a3.6,3.6,0,0,0,1.8,3c.4-1.15,1.81-.59,2.41-1.41-.09-1.12.33-2.28-.08-3-1.82-1.51-3.51-2.56-4.41-4.64h-8.24l-1.55-1.72c-2.05-.57-3.67.1-5.5,1.23C93.72,58,91,53.9,91.76,49c-3.54-1.88-3.82-6-6.22-9.08-2.69.37-4.47-2.59-7.35-2.22-.89.38-.13,1.65-1.08,2s-2.42-.74-3.24.73l1.78.63c-.35,1.06-1.62.27-2,1.15v1.49h-8v-8c.61-.12,1.33.31,1.89-.39,0-1.19.49-2.47-.35-3.61H63.67c-.6.12-1.28-.27-1.8.3l-.55,1.7c-1-.36-.28-1.58-1.13-2l-.95.89c-.63-.14-.74-1.09-1.57-.92Zm57.5,19a1.21,1.21,0,0,0,0,2A1.21,1.21,0,0,0,115.17,48.67Z"/><path class="cls-55" d="M167.67,63.68v99.78l-1.63.33c-.84.93-.16,2.15-.38,3.24-3.5,2.52-5.83,6.33-9.86,8.65H141.67c.12-.61-.3-1.32.52-2h3.17c-.41-2.08,2.81-1.51,2.23-3.77H140l-.65,1.61c-.54.27-1.31,0-1.66.73v3.42h-2v-6c-.59-2.1,2.31-2.08,2.32-4h10.68c0,1.2.83,1,1.62.91.65-1.53,1.12-3.27,3.38-2.91h3.72c.19-.74.3-1.18.41-1.63,1.08-1.1,2.91.51,3.85-1,.34-1.65-1.11-1.23-2-1.86V128.08c-.82-.56-1.63-.2-1.83-.6V111.9l1.83-.48V95.68c.94-.12,2,.29,3.11-.5-.94-5,.9-10,1-14.92.32-1,1.31-.2,1.89-1.27V61.68c.94-.07.94.57,1,1.25A.77.77,0,0,0,167.67,63.68Zm-5.84,64.09v16.78c1.46-.35,2.06,1.83,3.67.86V127.77Z"/><path class="cls-56" d="M167.67,63.68a.77.77,0,0,1-1-.75c-.08-.68-.08-1.32-1-1.25-.15-2.34.33-4.73-.3-7.18-3.31,1.87-6.57.94-9.7,1.18.12-.6-.29-1.3.31-1.82.53-.32,1.32,0,1.68-.68l-.91-1c1.64-2,.62-4.26.94-6.2-.9-.46-1.67-.16-2-.9V43.68c.61-.11,1.3.29,1.91-.4.45-.72-.4-1.87.64-2.63l1.21.2c.6.94-.25,2.08.61,2.73h5.63v-3.9c1,0,1.21,1,2,1.42Z"/><path class="cls-56" d="M138.67,33.68c3.78,2.06,3.78,2.06,10.57,1.93l1.92-1.92h6c.85-.68.41-1.39.54-2,1.1.91,2.47,1,3.91,1.22l.16,2.46,1.65.53c.54.52.17,1.2.28,1.79h-8.75l-.53,2h-4.55c-.22.89-1.29.9-.91,1.78,1.55.58,3.3-.37,4.74.62v1.56h-5c-.47-2-2.45-1.92-3.64-2.81-.53.4-.73,1-1.36.81-1.77-.63-1.25-2.92-3-4v2a4.58,4.58,0,0,1-2-4Z"/><path class="cls-57" d="M128.67,161.68c0-1.37,1.06-1,1.78-1,5.82,0,11.63,0,17.44,0,.72,0,1.77.38,1.78-1,.69,0,1-.3,1-1h2v-2h1v3c-2.64-.57-3,2.81-5.49,3-.46-.48-1-1.5-2.17-.87-.23.56-.45,1.13-.73,1.83-2.91,0-5.85,0-8.8,0-1.9,0-3.72.11-4.81,2v10h-2c0-4.08,0-8.17,0-12.25C129.65,162.71,130,161.69,128.67,161.68Z"/><path class="cls-58" d="M153.67,43.68V42.12c-1.44-1-3.19,0-4.74-.62-.38-.88.69-.89.91-1.78h4.55l.53-2h10.75v5.9H160c-.86-.65,0-1.79-.61-2.73l-1.21-.2c-1,.76-.19,1.91-.64,2.63-.61.69-1.3.29-1.91.4Zm5.5-4q.71-.49,0-1Q158.48,39.19,159.17,39.68Z"/><path class="cls-59" d="M137.67,175.68v-3.42c.35-.75,1.12-.46,1.66-.73l.65-1.61h7.61c.58,2.26-2.64,1.69-2.23,3.77h-3.17c-.82.67-.4,1.38-.52,2Z"/><path class="cls-60" d="M57.67,29.68v2a49,49,0,0,1-5.94-.06c-1.32-.16-2,.89-3.06,1.06,0-.69-.31-1-1-1h-2v-2Z"/><path class="cls-55" d="M131.67,175.68v-10h2v10Z"/><path class="cls-61" d="M128.67,161.68c1.34,0,1,1,1,1.75,0,4.08,0,8.17,0,12.25,0,.7-.31,1-1,1Z"/><path class="cls-54" d="M45.67,29.68v4h-3c-.14-.8.7-1,1-1.52-.39-.84-1.63-.06-2-1.23V29.68Z"/><ellipse class="cls-62" cx="134.67" cy="172.68" rx="1.41" ry="4.24"/><path class="cls-54" d="M37.67,30.68c0,.49-.06.93-.66.8-.17,0-.23-.52-.34-.8Z"/><path class="cls-32" d="M34.17,29.69c.47.33.47.66,0,1C33.7,30.35,33.7,30,34.17,29.69Z"/><path class="cls-54" d="M32.67,30.18c-.33.47-.67.47-1,0C32,29.72,32.34,29.72,32.67,30.18Z"/><path class="cls-63" d="M133.67,127.68c-.12.61.23,1.25-.31,1.84-3.31,3.58-5.82,8-10.34,10.35-.2.1-.24.53-.35.81-.78,0-1.53-.12-2.18.62-.48.56-.84,1.43-1.82,1.38a.85.85,0,0,0-1,1h-2v-1c.69,0,1-.3,1-1,.16-.81-.73-1-1-1.56.69-1,1.89,0,3-.92,1.35-.52.76-3.25,3-3.52.8-.15,1,.75.5.61,3.22.12,3.49-2.58,5.3-3,.56-1.13-.36-2.49.64-3.44,1.15.19-.22,1.83,1.2,1.7l1.17-2.42c-1.87-2.26-.38-3.84,1.17-5.41.19,1.34-.43,2.79.44,4Z"/><path class="cls-64" d="M139.67,90.68c.38,1-.93,2.53,1,3-.72,2.31,1.09,4.22,1,6.44s0,4.57,0,6.85a30.18,30.18,0,0,1-2,6.71v-6c-.17-4,.35-8-.32-12.07l-1.68,1.33V91.68Z"/><path class="cls-63" d="M139.67,111.68v2a20.31,20.31,0,0,1-6,14c-.42-1.09.74-1.82.94-3.77-.24.55-1.37.49-.48-.16.48-.12,1.19.07,1.58-.72a5.53,5.53,0,0,1,1-4.35c.69,0,1-.3,1-1v-6Z"/><path class="cls-65" d="M33.67,151.68V94.25c-.38-.93-1.63-.17-2-1.25V91.68c1.5-.08.85-1.24,1-2l2-1a.7.7,0,0,0,.6.88c.07,0,.31-.21.29-.29a.69.69,0,0,0-.89-.59c-.06-.87.49-1,1.18-1H49.29c.53.84.19,1.64.92,2,.43.07,1-.21,1.46.63v23.37c.14.71-.39,1.56.73,2,1.4.59,2.08,2.08,3.25,3,.16.13,0,.63,0,1,.13,1-.33,2.07.5,3,.8-.66.38-1.37.5-2h1v5.68c1,.47,1.53.41,2-.19v-1.49c.61-.12,1.32.3,2-.51v-3.76l1.51-1.81c1,.84.11,2,.93,3.07,2.44-1.88.82,3.06,3.28,1.87a5.44,5.44,0,0,0,.21-3.11c-2.28-2.06-4.22-3.73-3.92-6.75h1.77c-.26,1.83,1.77,2.41,2.23,4-.28.11-.75.18-.79.34-.14.6.3.7.79.66l2,1v3.6L73.41,125c.56,1-.16,1.9.55,2.53,1.22.6,2.66-.42,3.71.67v1.51H73.61c.83,2.5-2.78,1.73-2.24,3.75-.9.63-2.05-.29-2.7.8v1.45c-1.5.09-.85,1.25-1,2H66.36c-1.08-.37-.32-1.61-1.25-2H63.67a2.46,2.46,0,0,0-3-2c.64-1.42-1.25-2.09-1-3.4-1.8-.15-1.76-3.13-4-2.6-3.22-3.75-4.29-8.53-5.87-13a10.32,10.32,0,0,1-1.11-3c-.06-1.33,0-2.66,0-4,0-2.32.07-4.65,0-7-.12-3.23.06-6.41,1.65-9.44-7.53-1.08-12.07-.8-14.63.88v63.57c-1.65-.16-.81-1.44-1-2.25S35,151.69,33.67,151.68Zm12-62.54c-.9-.6-1.54-.9-2,.33C44.41,89.68,45,90,45.71,89.14Zm2.46-.45c-.47.33-.47.66,0,1C48.64,89.35,48.64,89,48.17,88.69Z"/><path class="cls-66" d="M82.67,203.68v4h-1v-52c-3.3,0-6.13.15-8.93-.06-1.31-.1-2,.89-3.07,1.06-.49-1.27.86-1.93,1-3h11c0,.7.31,1,1,1v49Z"/><path class="cls-67" d="M103.67,148.68h-18c.07-.94-.64-.81-1.24-1-1.6-.61-3.57-.37-4.76-2,.81.13,1-.74,1.54-1,1.82-.8,3.64-1.81,5.51,0,.17.16.63,0,1,0v1c.16.62-.39.83-.68,1.18a3.74,3.74,0,0,1-.28.33c-.52-.41.11,1,.29.49h16.67Z"/><path class="cls-43" d="M82.67,155.68v-2h15v1a.85.85,0,0,0-1,1h-14Z"/><path class="cls-68" d="M55.67,127.68c2.24-.53,2.2,2.45,4,2.6-.25,1.31,1.64,2,1,3.4A11.32,11.32,0,0,1,55.67,127.68Z"/><path class="cls-69" d="M63.67,135.68h1.44c.93.39.17,1.63,1.25,2h1.31v2c-2.2.15-3.12-1.39-4-3Z"/><path class="cls-69" d="M78.67,145.68h-2c-.08-1.49-1.24-.85-2-1h-1l-1-2c1.28-.49,1.94.86,3,1h2Z"/><path class="cls-69" d="M68.67,141.68l-1-2c2.06.36,4.09.74,5,3h-2C70.59,141.19,69.43,141.83,68.67,141.68Z"/><path class="cls-46" d="M35.67,155.68a4.6,4.6,0,0,1,2,4h-2Z"/><path class="cls-68" d="M63.67,135.68v1a5.39,5.39,0,0,1-3-3A2.46,2.46,0,0,1,63.67,135.68Z"/><path class="cls-70" d="M69.67,156.68c1.07-.17,1.76-1.16,3.07-1.06,2.8.21,5.63.06,8.93.06v52h-11c-.38-1,.93-2.53-1-3Zm9.84,46.91V175.9l-1.86-.49V157.79h-4v17.73l-1.72.35v17.77l.57,0c.13-2.34.27-4.68.4-7a47.67,47.67,0,0,1,.81,10.66L71.8,198v2.84l2.72,2.77Z"/><path class="cls-66" d="M69.67,204.68c1.93.47.62,2,1,3C68.74,207.21,70.05,205.67,69.67,204.68Z"/><path class="cls-71" d="M96.67,155.68a.85.85,0,0,1,1-1h8.76c.68,0,1.31.07,1.24,1Z"/><path class="cls-72" d="M111.67,159.68v-4h6c.13.62-.31,1.34.42,1.92.49.16,1.25-.08,1.58.69v45.13h-5.91V160.33C113,159.37,112.28,159.81,111.67,159.68Z"/><path class="cls-73" d="M119.67,199.68V158.29c-.33-.77-1.09-.53-1.58-.69-.73-.58-.29-1.3-.42-1.92h1c.11.28.17.76.34.8.6.13.7-.31.66-.8h2v4c-1.67.18-1,1.49-1,2.29,0,11.81,0,23.62-.06,35.43C120.64,198.2,121.34,199.51,119.67,199.68Z"/><path class="cls-74" d="M85.67,155.68h2v3.54c1.15.84,2.42.41,3.56.35.92-.42-.33-2.62,1.89-1.75.71.3,1.06,29.36.39,45.53-.51.64-1.23.21-1.84.33-.13-.61.32-1.34-.56-2H85.67Z"/><path class="cls-75" d="M85.67,155.68v46h5.44c.88.68.43,1.41.56,2v1.91c-2.63.19-5.32,0-8,.09-.15-.75.5-1.91-1-2v-5a3.43,3.43,0,0,0,0-5v-2a.76.76,0,0,0,1-.79q0-16.71,0-33.42a.76.76,0,0,0-1-.79v-1Z"/><path class="cls-76" d="M121.67,155.68h-10v-1c.76-.15,1.92.5,2-1h6.77c.68,0,1.3.08,1.23,1Z"/><path class="cls-77" d="M111.67,154.68v1h-2v-1Z"/><path class="cls-71" d="M109.67,154.68v1h-1A.85.85,0,0,1,109.67,154.68Z"/><path class="cls-78" d="M109.67,155.68h1v2c0,15.08,0,30.16,0,45.23,0,.91,1,2.43-1,2.77Z"/><ellipse class="cls-79" cx="111.17" cy="156.68" rx="0.71" ry="1.41"/><path class="cls-80" d="M51.67,175.68V174c-1.78-.69-3.75,0-5.6-.38-.2-2.18-.2-2.18,1-3.9H57.67v6Z"/><path class="cls-52" d="M27.68,171.68a.7.7,0,0,1,.59-.89c.07,0,.31.22.29.3A.7.7,0,0,1,27.68,171.68Z"/><path class="cls-81" d="M35.67,155.68v4h2c.42,2.18,2.54,1.83,4.48,2.49l-2.81,1c2,.82,3.72.35,5.33.5,0,.17-.07.39,0,.49.3.36.64.69,1.2,1.28H35.14l-1,2.15H30c-.68-1.12-.22-2.28-.36-3.34s-2.18,0-2-1.58c.13-.94-.3-2,.32-2.83,1.35-.51,1.77.13,1.7,1.38,1.16,1.06,2.47.05,4,.73V151.68c1.35,0,.86,1,1,1.75S34,155.52,35.67,155.68Z"/><path class="cls-82" d="M59.67,124.68v1.49c-.47.6-1,.66-2,.19V111.85H53c-.49.73,0,1.93-1.28,1.83V90.31c-.48-.84-1-.56-1.46-.63-.73-.36-.39-1.16-.92-2H45.67c-.12-.61.31-1.32-.21-1.74H39.67v1.74h-1V85.83H29.82V81.77H45.51l.14-1.89H29.94V73.81l3.73-2.37V63.68c.81.17,1-.75,1.91-1-.34,2,1.4,3.48,1.08,5.55l3.56,3.41,1-.88c.89.33,0,1.67,1.07,1.87.71-1.57,1.74-3,1.4-4.91h1v2.83c0,.68.13,1.24,1,1.17.11.67-.35,1.5.54,1.94.5-.31.7-1.06,1.46-.94.12.61-.3,1.33.59,2.06,1-.51,2.29.57,3.41-.54V69.68c2,.21.26,2.22,1.37,2.87.54,0,.69-.38.63-.87.61-.12,1.32.3,2-.52,0-.77-.05-1.74,0-2.7a.78.78,0,0,1,1-.78c.22,1.28-.43,2.71.45,4,.85-.7.43-1.41.55-2h1c.13.62-.31,1.34.56,2,1.34-.25,3,.33,4.44-.33v-8.7h1v8.77c0,.68.07,1.3,1,1.23-.08,1.5-1.24.85-2,1-1,.13-2.07-.32-3,.55,1.1.74,2.1.33,3,.45v7h5c0,.7.31,1,1,1,.18,1.62-1.74.5-2,1.58v3.42c-.61.13-1.32-.3-1.81.3-.62,1.19.41,2.65-.65,3.69-.51.08-1.06-.2-1.54.64v21.37c-.3,3,1.64,4.69,3.92,6.75a5.44,5.44,0,0,1-.21,3.11c-2.46,1.19-.84-3.75-3.28-1.87-.82-1.06,0-2.23-.93-3.07l-1.51,1.81v3.76c-.67.81-1.38.39-2,.51a.71.71,0,0,0-.6-.89c-.07,0-.31.22-.29.3A.71.71,0,0,0,59.67,124.68Zm4.5-34c.47-.32.47-.65,0-1C63.7,90,63.7,90.35,64.17,90.67Z"/><path class="cls-81" d="M29.67,111.68h1.5c.71,4.2.91,30.84.34,44.76-1.09.36-1-1.14-1.8-1v-4.16l-2-2.14V111.68Z"/><path class="cls-83" d="M43.67,67.68C44,69.55,43,71,42.27,72.59c-1.1-.2-.18-1.54-1.07-1.87l-1,.88-3.56-3.41c.32-2.07-1.42-3.53-1.08-5.55-.94.29-1.1,1.21-1.91,1-.15-.75.5-1.91-1-2L31.83,60c1.39-1.13,1.82.82,2.84.67.09,1.5,1.24.85,2,1,.69,0,1,.31,1,1-.07.91.53,1,1.21,1h4.79Z"/><path class="cls-53" d="M35.67,57.68c0-1-1-1.21-1.45-2H29.81V52c.53-.68,1.43-.17,2.42-.37,0,1.86,2,1.89,2.9,3,1-.23-.06-2.16,1.54-2-.12.81.68,1,1,1.5-.31.51-1.11.7-1,1.5-.07.92.55,1,1.23,1h7.77c.07.93-.55,1-1.23,1H35.67Z"/><path class="cls-84" d="M36.67,55.68c-.12-.8.68-1,1-1.5-.31-.51-1.11-.69-1-1.5h1c.76-.15,1.92.5,2-1h2c.11.28.17.76.34.8.6.13.7-.31.66-.8h2v4Z"/><path class="cls-53" d="M34.67,60.68c-1,.15-1.45-1.8-2.84-.67l.84,1.67c-.12.61.31,1.33-.57,2a3.5,3.5,0,0,0-2.51-2.67c.18-1.66,1.75-2.25,2.59-3.37h3.49C36.16,59,34.82,59.62,34.67,60.68Z"/><path class="cls-85" d="M41.67,51.68h-5c.47-1.92,2-.62,3-1h3.81c.68,0,1.26-.11,1.19-1h1c.53,1.13,1.31,2.12,1,3.55a19.84,19.84,0,0,0,0,3.45h-1V52.86c0-.68-.13-1.24-1-1.18h-3Z"/><path class="cls-53" d="M39.67,50.68c-1,.38-2.53-.92-3,1-1.5-.08-.85-1.24-1-2h4Z"/><path class="cls-53" d="M37.67,51.68h2c-.08,1.5-1.24.85-2,1Z"/><path class="cls-81" d="M32.67,89.68c-.15.76.5,1.92-1,2v-2Z"/><path class="cls-51" d="M31.67,89.68v1c-.49,0-.93-.06-.79-.66C30.92,89.86,31.39,89.79,31.67,89.68Z"/><path class="cls-48" d="M25.68,163.68H24.07a5.1,5.1,0,0,1-.13-3.91l1.27-.11C26.14,160.87,25.46,162.35,25.68,163.68Z"/><path class="cls-50" d="M28.27,165.76c.62.69.66,1.67-.15,1.84-1,.2-.15-.89-.42-1.33C27.68,166.23,28.06,165.94,28.27,165.76Z"/><path class="cls-52" d="M27.67,167.68c0,.7-.31,1-1,1A.85.85,0,0,1,27.67,167.68Z"/><path class="cls-86" d="M42.67,33.68h3c.69,0,1,.31,1,1a.85.85,0,0,0-1,1c-.92-.07-1,.55-1,1.23v6.77h-5V42.2c.68-1,1.86-.15,2.67-.69a2.52,2.52,0,0,0-.08-2.77l-1.11.9c-.27-1.4-1.39-2-2.47-2.58-.24-1.51,1.88-1.87,1.07-3.38Z"/><path class="cls-86" d="M35.67,47.68c-.81-.16-1,.75-1.57.94-1-.7,0-1.93-.8-2.82-.33-.41-1.27.25-1.57-.75.06-.61-.35-1.45.26-2.19,1.43-.11.08,1.52,1.12,1.7,1.37-.53-.15-2.16,1-2.8,1,.25.18,1.56,1,1.89.73-.34.39-1.13.71-1.68.81-.57.82.73,1.39.6l1-.81c.75.59.3,1.31.43,1.92-.62.21-1.57-.51-1.87.66l.87.34v1h-1c-.67.12-1.5-.34-1.94.55C35.05,46.72,35.79,46.92,35.67,47.68Z"/><path class="cls-87" d="M37.67,44.68l-.87-.34c.3-1.17,1.25-.45,1.87-.66h7v1Z"/><path class="cls-88" d="M35.67,47.68c.12-.76-.62-1-.94-1.45.44-.89,1.27-.43,1.94-.55v4h-1Z"/><path class="cls-82" d="M137.67,111.68v6c-.33,0-.67,0-1.08,0-.09-1.25-.09-2.54-.09-3.82a5.45,5.45,0,0,1-2.84,2.49c.17.77-.36,1.67.39,2.14,1.45,1.28,1.51-1.16,2.54-.81a4.65,4.65,0,0,1,.08,1,5.53,5.53,0,0,0-1,4.35c-.39.79-1.1.6-1.58.72-.89.65.24.71.48.16-.2,2-1.36,2.68-.94,3.77h-1.56c-.87-1.21-.25-2.66-.44-4v-6h-6c.17-1.27-.33-2.6.22-3.77.64-.36,1.43,0,1.77-.77v-1c-.36-.89-1.64-.07-1.92-1.07l1.93-1.94V102a49,49,0,0,0-2-6.32V90.09c-.81-.58-1.62-.21-2.15-1.23v-4c-1.54-.67-1.5-2.42-2.69-3.25-.79-.54-2.67-3.65-3.31-4.55-.42-.59-.85-1.46-1.85-1.43.38-1-.93-2.53,1-3,.14.66-.39,1.52.59,1.93a2.26,2.26,0,0,1,2.41-.93v1.46c.37.74,1.17.39,1.84.83v3c1.15.9,1.72,2.56,3.53,2.76,1-.79,0-1-.24-1.47.1-1.18,1.51-.14,1.79-1a3.21,3.21,0,0,0-2.67-1.75c-.58-1.22-.08-2.55-.25-3.83,2.68,0,5.37.1,8-.09V71.68h10.5l2.07,2.07c1-.5,2.35.62,3.43-.59V71.68c1.32-1.47,1-3.27,1-5h1c.17,1.31-.37,2.72.55,4.28.46-3.64.46-3.64-.55-5.28v-3h1.56c1.08-1.37-.08-1.84-.47-2.44.19-.63,1.07-.75.91-1.56.45-1.36,2.5-1.33,2.46-3h1.54c3.13-.24,6.39.69,9.7-1.18.63,2.45.15,4.84.3,7.18V79c-.58,1.07-1.57.26-1.89,1.27-.1,4.94-1.94,9.91-1,14.92-1.16.79-2.17.38-3.11.5h-2V88c-1-.47-1.53-.41-2,.18v1.49c-.76-.15-1.91.5-2-1,.28-.11.76-.17.79-.33.14-.6-.3-.7-.79-.67H141.76v-2h15.81v-3.8H141.82c-.13,1.19-.24,2.21-1.74,1.73-1-1.06.13-2.55-.72-3.75a5.44,5.44,0,0,0-3.66.23c.05,1.18-.32,2.34.27,3.43.53.31,1.33,0,1.7.71v4.46c-2.33,1.11-2.61,3.7-4.38,5.38l2.59,1.19-2.15.74c-.92,3.71,2.87,7.56-.32,11.22l2.14.82c.52,1.14-.52,2.6.62,3.65Zm4.09-31.94c2.72-.25,5.51.65,7.9-1.9h-7.9Z"/><path class="cls-82" d="M73.67,43.68V42.19c.36-.88,1.63-.09,2-1.15l-1.78-.63c.82-1.47,2.19-.41,3.24-.73s.19-1.62,1.08-2c2.88-.37,4.66,2.59,7.35,2.22,2.4,3.06,2.68,7.2,6.22,9.08-.79,4.92,2,9.05,2.11,14.11,1.83-1.13,3.45-1.8,5.5-1.23l1.55,1.72h8.24c.9,2.08,2.59,3.13,4.41,4.64.41.71,0,1.87.08,3-.6.82-2,.26-2.41,1.41a3.6,3.6,0,0,1-1.8-3c-2.3.29-4.74-.69-6.84,1.2a15.37,15.37,0,0,0-1.66-1.13c-.23-.11-.61.07-.93.12-.65.52-.21,1.24-.34,1.85h-17l-1.16,1.75c-1.61.7-3.22-.7-3.79,1.25-.76.15-1.91-.49-2,1h-3c-1.66-1,0-2.79-2-3a.71.71,0,0,0-.6-.89c-.07,0-.31.22-.29.3a.71.71,0,0,0,.89.59c.17,1.58-1.59.55-2,1.53.51.6,1.54,1.12.54,2.47H67.67c-.2-1.66.4-3.42-.31-5H65.67v-8c3-.13,6,.29,9.59-.35l-1.59-.65v-5H66c-.68,0-1.36,0-1.28-1h1c2.62-.15,5.29.31,8.19-.34-.87-.92-1.57-.55-2.19-.66v-2c1.29-.19,2.72.41,4-.41l-1-1.2,1-.39c.28-.11.76-.17.79-.33.14-.6-.3-.7-.79-.67v-4c.84-.42.93,1.33,1.91.67V46.09c-.62-.69-1.31-.29-1.91-.41l-2-1Z"/><path class="cls-89" d="M119.67,52.68v1a.69.69,0,0,0-.89.59c0,.08.22.31.29.29a.7.7,0,0,0,.6-.88,10.1,10.1,0,0,1,4,4l-.82.3a1.92,1.92,0,0,0,1.52,1.52l.3-.82c.63-.11,1.15.55,1,.75-2,2.06-.15,5-1.85,7.27-.74,1-.11,2.79.89,4,0,.7.31,1,1,1s1.61.18,2.19-.66c.45-.67,1.2-.21,1.81-.34.09,1.5,1.24.85,2,1v1.91c-2.63.19-5.32,0-8,.09.45-1.62-.88-2.3-1.86-3.37V60.49c-.51-1-1.28-.69-2.15-1.11V55.92l-2-.5V51.68h1C118.65,52.38,119,52.71,119.67,52.68Z"/><path class="cls-90" d="M77.67,74.68c.57-2,2.18-.55,3.79-1.25l1.16-1.75h21c0,.7.31,1,1,1h1v1c-2.16.51-3.88-1.25-6.07-1.06-3,.25-6,0-9,.08a12.28,12.28,0,0,0-3.22.58,64.7,64.7,0,0,0-11.74,5.4v-3c.8-.12,1,.68,1,.71L79,75.21Z"/><path class="cls-60" d="M57.67,31.68c.83-.17.94.78,1.57.92l.95-.89c.85.39.08,1.61,1.13,2l.55-1.7c.52-.57,1.2-.18,1.8-.3a5.34,5.34,0,0,0,1,4v9h-1v-9h-4c-.93-.07-1,.56-1,1.24v7.76h-1v-13Z"/><path class="cls-82" d="M119.67,73.68a2.26,2.26,0,0,0-2.41.93c-1-.41-.45-1.27-.59-1.93-.16-1.06-1.24-1.72-1.06-3a41.17,41.17,0,0,0,.06-5.45c1.09-1.17,2.45,0,3.6-.7.41,4,.41,4-.64,6.27A4.77,4.77,0,0,1,119.67,73.68Z"/><path class="cls-91" d="M131.67,40.68c.11,2-1.18,3.33-2.15,5h-2.85c.07-.91-.54-1-1.22-1h-5.78c-.6-.11-1.29.29-2.07-.59,3.34-.92,6.61,0,9.75-.58.7-.4-.15-1.75,1.08-1.82.68,0,1.31-.07,1.24-1h2Zm-2,2.5c-.33-.46-.67-.46-1,0C129,43.65,129.34,43.65,129.67,43.18Z"/><path class="cls-90" d="M105.67,73.68c1.5.25,3.25-.68,4.47,1l1-.94a5.36,5.36,0,0,1,2,2.94c1.24.64,1.5-1.13,2.52-1,.49,1.28-.85,1.94-1,3-1.06-.14-1.72-1.49-3-1,.11-.6-.27-.81-.74-1C109,75.92,107.06,75.31,105.67,73.68Z"/><path class="cls-92" d="M132.67,38.68v1h-1V36.13l2.78-2.45h4.22v2h-4a.85.85,0,0,0-1,1C132.17,36.77,132.82,37.93,132.67,38.68Z"/><path class="cls-93" d="M64.67,35.68a5.34,5.34,0,0,1-1-4h3.54c.84,1.14.4,2.42.35,3.61-.56.7-1.28.27-1.89.39Z"/><path class="cls-94" d="M64.67,44.68v-1h9v1Z"/><ellipse class="cls-95" cx="65.17" cy="39.68" rx="0.71" ry="5.66"/><path class="cls-96" d="M119.67,44.68h5.78c.68,0,1.29.09,1.22,1h-5.79C120.2,45.68,119.6,45.59,119.67,44.68Z"/><path class="cls-97" d="M131.67,38.68v2h-1C130.82,39.93,130.17,38.77,131.67,38.68Z"/><path class="cls-98" d="M127.74,40.09c.7-.63,1.68-.66,1.84.15.21,1-.88.14-1.32.41C128.22,40.68,127.93,40.29,127.74,40.09Z"/><path class="cls-99" d="M115.17,48.67a1.21,1.21,0,0,1,0,2A1.21,1.21,0,0,1,115.17,48.67Z"/><path class="cls-90" d="M105.27,72.81c1-1.43,1.65-1.08,2.41-1C107.21,73.14,106.31,72.51,105.27,72.81Z"/><path class="cls-82" d="M104.67,72.68c-.69,0-1-.3-1-1C104.36,71.66,104.7,72,104.67,72.68Z"/><path class="cls-100" d="M157.67,95.68h2v15.74l-1.83.48v15.58c.2.4,1,0,1.83.6v21.6c-.61-.13-1.34.32-2-.56V137.06l-3.08-1.27c.44,3.2,0,6,.92,9,.87,2.71.18,5.93.18,8.93a.69.69,0,0,0-.89.59c0,.08.22.31.29.29a.7.7,0,0,0,.6-.88c.6-.12,1.1.36,1,.72-.64,1.64-.88,3.61-3,4.27v-31c.62-.13,1.34.32,2-.53,0-8.77,0-17.73,0-26.68,0-.26-.31-.52-.48-.79h-1.5v-4h4Z"/><path class="cls-62" d="M153.67,158.68c2.08-.66,2.32-2.63,3-4.27.14-.36-.36-.84-1-.73,0-3,.69-6.21-.18-8.92-1-3-.48-5.77-.92-9l3.08,1.27v12.06c.68.88,1.41.43,2,.56v9.56c.87.63,2.32.21,2,1.86-.94,1.46-2.77-.15-3.85,1-.11.45-.22.89-.41,1.63h-3.72c-.13-.8.69-1,1.07-1.69-1.41-.25-1-1.36-1.07-2.31Zm3,3.5c-.33-.46-.67-.46-1,0C156,162.65,156.34,162.65,156.67,162.18Z"/><path class="cls-101" d="M161.83,127.77h3.67v17.64c-1.61,1-2.21-1.21-3.67-.86Z"/><path class="cls-100" d="M153.67,159.68c0,.95-.34,2.06,1.07,2.31-.38.71-1.2.89-1.07,1.69-2.26-.36-2.73,1.38-3.38,2.91-.79.13-1.59.29-1.62-.91-.11-.27-.17-.75-.34-.79-.6-.14-.69.31-.66.79H138c0,1.92-2.91,1.9-2.32,4h-2v-4h-2c1.09-1.89,2.91-2,4.81-2,3,0,5.89,0,8.8,0,.28-.7.5-1.27.73-1.83,1.13-.63,1.71.39,2.17.87C150.68,162.49,151,159.11,153.67,159.68Zm-1,2.5c-.33-.46-.67-.46-1,0C152,162.65,152.34,162.65,152.67,162.18Z"/><path class="cls-62" d="M147.67,165.68c0-.48.06-.93.66-.79.17,0,.23.52.34.79Z"/><path class="cls-102" d="M148.67,57.68c1.44-2.66,4.12-4.18,6-6.58V48.21c-.21-1-2.17.09-2-1.53.66-.13,1.52.4,1.91-.54-.36-.88-2,.06-1.91-1.46.69,0,1-.3,1-1h2v1.44c.35.74,1.12.44,2,.9-.32,1.94.7,4.17-.94,6.2l.91,1c-.36.69-1.15.36-1.68.68-.6.52-.19,1.22-.31,1.82h-1.54c0,1.67-2,1.64-2.46,3h-2C149.7,58,149.36,57.66,148.67,57.68Z"/><path class="cls-103" d="M142.67,44.68v-1c0-.69-.31-1-1-1v-1c0-.69-.31-1-1-1v-3c1.75,1.11,1.23,3.4,3,4,.15.76-.5,1.92,1,2v1Z"/><path class="cls-104" d="M144.67,43.68c-1.5-.08-.85-1.24-1-2,.63.17.83-.41,1.36-.81,1.19.89,3.17.79,3.64,2.81h-4Z"/><path class="cls-105" d="M146.67,43.68h7c0,.7-.31,1-1,1h-4.79C147.2,44.68,146.6,44.59,146.67,43.68Z"/><path class="cls-56" d="M159.17,39.68q-.69-.49,0-1Q159.88,39.19,159.17,39.68Z"/><path class="cls-106" d="M57.67,31.68v4h-1c-1.27-.49-1.94.86-3,1v-3h-3a.85.85,0,0,0-1,1h-1c-.11-.27-.17-.75-.34-.79-.6-.14-.69.31-.66.79h-1c0-.69-.31-1-1-1v-2h2c0,.7.31,1,1,1,1.07-.17,1.74-1.22,3.06-1.06A49,49,0,0,0,57.67,31.68Z"/><path class="cls-53" d="M48.67,32.68c-.69,0-1-.3-1-1C48.36,31.66,48.7,32,48.67,32.68Z"/><path class="cls-107" d="M137.67,88.68V84.22c-.37-.72-1.17-.4-1.7-.71-.59-1.09-.22-2.25-.27-3.43a5.44,5.44,0,0,1,3.66-.23c.85,1.2-.3,2.69.72,3.75,1.5.48,1.61-.54,1.74-1.73h15.75v3.8H141.76v2h10.91v3c-1.07-.17-1.75-1.17-3.06-1.06-2.63.22-5.29.06-7.94.06l-.52-1.32c-.33,1.13-1.49,1.19-1.48,2.32l-2,1Z"/><path class="cls-108" d="M153.67,99.68h1.5c.17.27.48.53.48.79,0,9,0,17.91,0,26.68-.66.85-1.38.4-2,.53Z"/><path class="cls-108" d="M152.67,90.68v-3h1v1c.09,1.5,1.24.85,2,1v6h-2v-3.8C153.67,91.2,153.56,90.62,152.67,90.68Z"/><path class="cls-64" d="M139.67,90.68c0-1.13,1.15-1.19,1.48-2.32l.52,1.32C141.59,91.18,140.43,90.53,139.67,90.68Z"/><path class="cls-109" d="M127.67,117.68h4v6c-1.55,1.57-3,3.15-1.17,5.41l-1.17,2.42c-1.42.13-.05-1.51-1.2-1.7-1,.95-.08,2.31-.64,3.44-1.81.46-2.08,3.16-5.3,3,.45.14.3-.76-.5-.61-2.23.27-1.64,3-3,3.52-1.09.92-2.29,0-3,.92.22.59,1.11.75,1,1.56-.62.21-1.57-.51-1.87.66l.87.34v1c-.08,1.5-1.24.85-2,1-1.4.48-2.17-1.27-3.51-1-.85.39-.1,1.64-1.06,2h-3.43c-.18-1-.82-1.49-2-2,.43,1.94-2.24.12-2,2-.76.15-1.91-.49-2,1h-6v-1c.61-.12,1.32.3,1.84-.33.65-1.94-.74-1.65-1.84-1.67H88.88c-.68,0-1.28.1-1.21,1-.32,0-.78.14-1,0-1.87-1.78-3.69-.77-5.51,0-.56.25-.73,1.12-1.54,1v-2h-4c.12-.61-.3-1.31.51-2h3.17c-.43-2.1,2.8-1.5,2.31-3.54-1.09-1.23-2.9.31-4-1v-1.51h4.61c.55.83.2,1.63.46,1.77h28.77c-2.4-1.08-1.69-2.54-1.84-3.77.61-.21,1.58.53,1.86-.64-.55-.65-1.25-.24-1.86-.36v-1h2.58c.67-.89,1.33-1.26,1.49-2.2a2.21,2.21,0,0,1,1.93-1.79.7.7,0,0,0,.6.88c.07,0,.31-.21.29-.29a.69.69,0,0,0-.89-.59v-2h2c.12.61-.29,1.31.49,2h3.17l.74,2.1c1.11-.45,2.39.53,3.61-.57l-.15-1.17c-.91-.78-2.09.2-2.79-.76.46-1,1.78-1.35,1.93-2.58l3-1.42Zm-13,13.5c.32.47.66.47,1,0C115.34,130.72,115,130.72,114.68,131.18Z"/><path class="cls-110" d="M115.67,142.68l-.87-.34c.3-1.17,1.25-.45,1.87-.66C116.7,142.38,116.36,142.71,115.67,142.68Z"/><path class="cls-111" d="M137.67,88.68v8.26l1.68-1.33c.67,4.12.15,8.11.32,12.07h-2v4h-1.5c-1.14-1.05-.1-2.51-.62-3.65l-2.14-.82c3.19-3.66-.6-7.51.32-11.22l2.15-.74-2.59-1.19C135.06,92.38,135.34,89.79,137.67,88.68Z"/><path class="cls-82" d="M137.67,111.68v-4h2v4Z"/><path class="cls-111" d="M136.67,118.68v-1h1C137.7,118.38,137.36,118.71,136.67,118.68Z"/><path class="cls-112" d="M105.67,145.68h3.43c1-.34.21-1.59,1.06-2,1.34-.29,2.11,1.46,3.51,1v1c-2-.52-3.92.54-5.39,1.22-1.64.76-3.09.53-4.61.78.06-.86-.49-1-1.17-1H99.67c.09-1.49,1.24-.85,2-1Z"/><path class="cls-113" d="M109.67,131.68v2c.15,1.23-.56,2.69,1.84,3.77H82.74c-.26-.14.09-.94-.46-1.77H73.91c-.32,2.48-2.29,2.37-3.58,3.2a2.54,2.54,0,0,0-2.66-1.2c.15-.75-.5-1.91,1-2a.7.7,0,0,0,.6.88c.07,0,.31-.21.29-.29a.69.69,0,0,0-.89-.59v-1.46c.65-1.09,1.8-.17,2.7-.8-.54-2,3.07-1.25,2.24-3.75h4.06v2h9c-.16,2.08-2.44.13-2.94,1.56,5.12.71,17.5.62,20.81-.14l-1.15-1.42Z"/><path class="cls-114" d="M86.67,131.68h-3c-.11-.27-.17-.75-.34-.79-.6-.14-.69.31-.66.79h-3c-.33-1.45,1.83-.53,2-2h-4v-1.51c-1-1.09-2.49-.07-3.71-.67-.71-.63,0-1.53-.55-2.53l-3.74-1.69v-3.6c1.44.27,2,1.59,2.92,2.48,4.67,4.69,10,8,16.73,8.71.15,0,.24.53.35.81Z"/><path class="cls-115" d="M63.67,113.68V92.31c.48-.84,1-.56,1.54-.64,1.06-1,0-2.5.65-3.69.49-.6,1.2-.17,1.81-.3v1a.85.85,0,0,0-1,1c-.38,1,.93,2.53-1,3s-.62,2-1,3v13c0,.7.31,1,1,1a6.07,6.07,0,0,0,.57,2.19c1.05,2.65,3.24,4.81,3.43,7.81l-2-1v-1c-.46-1.59-2.49-2.17-2.23-4Z"/><path class="cls-116" d="M51.67,113.68c1.32.1.79-1.1,1.28-1.83h4.72v8.83h-1c0-.69-.31-1-1-1,0-.32.14-.82,0-1-1.17-.93-1.85-2.42-3.25-3C51.28,115.24,51.81,114.39,51.67,113.68Z"/><path class="cls-50" d="M39.67,87.68V85.94h5.79c.52.42.09,1.13.21,1.74Z"/><path class="cls-82" d="M55.67,119.68c.69,0,1,.31,1,1s.3,1.32-.5,2C55.34,121.75,55.8,120.65,55.67,119.68Z"/><path class="cls-82" d="M45.71,89.14c-.74.82-1.3.54-2,.33C44.17,88.24,44.81,88.54,45.71,89.14Z"/><path class="cls-82" d="M48.17,88.69c.47.33.47.66,0,1C47.7,89.35,47.7,89,48.17,88.69Z"/><path class="cls-50" d="M34.68,88.69a.69.69,0,0,1,.88.59c0,.08-.22.31-.29.29A.69.69,0,0,1,34.68,88.69Z"/><path class="cls-82" d="M67.67,117.68v1c-.49,0-.93-.06-.79-.66C66.92,117.86,67.39,117.79,67.67,117.68Z"/><path class="cls-43" d="M82.67,156.68a.76.76,0,0,1,1,.79q0,16.71,0,33.42a.76.76,0,0,1-1,.79Z"/><path class="cls-43" d="M82.67,193.68a3.43,3.43,0,0,1,0,5Z"/><path class="cls-117" d="M93.67,146.68h6v1H87c-.18.5-.81-.9-.29-.49a3.74,3.74,0,0,0,.28-.33c.29-.35.84-.56.68-1.18h2c-.06.87.49,1,1.18,1Z"/><path class="cls-118" d="M89.67,145.68h-2v-1c-.07-.9.53-1,1.21-1h4.79v2Z"/><path class="cls-119" d="M99.67,147.68v-1h2.83c.68,0,1.23.14,1.17,1Z"/><path class="cls-67" d="M77.67,143.68h2v2h-1Z"/><path class="cls-120" d="M67.67,137.68a2.54,2.54,0,0,1,2.66,1.2c1.29-.83,3.26-.72,3.58-3.2h3.76v1.51c1.09,1.27,2.9-.27,4,1,.49,2-2.74,1.44-2.31,3.54H76.18c-.81.68-.39,1.38-.51,2-1.06-.14-1.72-1.49-3-1-.91-2.26-2.94-2.64-5-3Zm5.5,2q.7-.5,0-1Q72.48,139.19,73.17,139.68Z"/><path class="cls-121" d="M79.51,203.59h-5l-2.72-2.77V198l1.87-.67a47.67,47.67,0,0,0-.81-10.66c-.13,2.34-.27,4.68-.4,7l-.57,0V175.87l1.72-.35V157.79h4v17.62l1.86.49Z"/><path class="cls-72" d="M118.67,155.68h1c0,.49-.06.93-.66.8C118.84,156.44,118.78,156,118.67,155.68Z"/><path class="cls-122" d="M75.67,75.68v3a2.74,2.74,0,0,0-2.16.6c-1.23,1.18-2.14,2.75-3.84,3.4-.69,0-1-.3-1-1,1.21,0,1-.83.91-1.59-.42-.8-1.68,0-1.91-1.08V76.68h1.57c1-1.35,0-1.87-.54-2.47.38-1,2.14.05,2-1.53,2,.21.3,2,2,3Z"/><path class="cls-123" d="M67.67,76.68V79c.23,1.12,1.49.28,1.91,1.08.13.76.3,1.55-.91,1.59h-5v-8c.76-.15,1.92.5,2-1v-1h1.69C68.07,73.26,67.47,75,67.67,76.68Z"/><path class="cls-124" d="M51.67,62.68h7v7h-1V64.89c0-.68-.1-1.27-1-1.21h-3v8c.06.49-.09.82-.63.87-1.11-.65.66-2.66-1.37-2.87Z"/><path class="cls-125" d="M53.67,71.68v-8h3v4a.78.78,0,0,0-1,.78c-.07,1,0,1.93,0,2.7C55,72,54.28,71.56,53.67,71.68Z"/><path class="cls-126" d="M69.67,82.68c1.7-.65,2.61-2.22,3.84-3.4a2.74,2.74,0,0,1,2.16-.6c-.84,2-2.58,3.31-4.17,4.52s-1.46,4-3.83,4.48V84.26C67.93,83.18,69.85,84.3,69.67,82.68Z"/><path class="cls-127" d="M45.67,62.68c1-.07,1,.61,1,1.28v7.72h5v1l-2,1.09-2-1.09c-.76-.12-1,.63-1.46.94-.89-.44-.43-1.27-.54-1.94Z"/><path class="cls-128" d="M45.67,62.68v9c-.87.07-1-.49-1-1.17V64.86c0-.68-.13-1.24-1-1.18H38.88c-.68,0-1.28-.09-1.21-1Z"/><path class="cls-129" d="M64.67,62.68h9l1.59.65c-3.64.64-6.63.22-9.59.35h-1Z"/><path class="cls-130" d="M64.67,63.68h1v9c-.93.07-1-.55-1-1.23Z"/><path class="cls-131" d="M56.67,67.68v-4c.9-.06,1,.53,1,1.21v4.79c-.12.61.3,1.32-.55,2C56.24,70.39,56.89,69,56.67,67.68Z"/><path class="cls-132" d="M47.67,72.68l2,1.09,2-1.09V74.2c-1.12,1.11-2.46,0-3.41.54C47.37,74,47.79,73.29,47.67,72.68Z"/><path class="cls-127" d="M43.67,63.68c.87-.06,1,.5,1,1.18v2.82h-1Z"/><path class="cls-133" d="M63.67,73.68v1c-.94-.12-1.94.29-3-.45C61.6,73.36,62.71,73.81,63.67,73.68Z"/><path class="cls-126" d="M64.17,90.67c-.47-.32-.47-.65,0-1C64.64,90,64.64,90.35,64.17,90.67Z"/><path class="cls-65" d="M59.67,124.68a.71.71,0,0,1-.89-.59c0-.08.22-.31.29-.3A.71.71,0,0,1,59.67,124.68Z"/><path class="cls-134" d="M36.67,57.68v4c-.76-.15-1.91.5-2-1,.15-1.06,1.49-1.72,1-3Z"/><path class="cls-135" d="M36.67,55.68h8v1H37.9C37.22,56.68,36.6,56.6,36.67,55.68Z"/><circle class="cls-136" cx="45.17" cy="56.18" r="0.71"/><path class="cls-137" d="M45.67,55.68h-1v-4c.87-.06,1,.5,1,1.18Z"/><path class="cls-53" d="M41.67,51.68h1c0,.49-.06.93-.66.8C41.84,52.44,41.78,52,41.67,51.68Z"/><path class="cls-60" d="M46.67,34.68h3c.69,0,1-.3,1-1h3v2c-.92-.07-1,.55-1,1.23v7.77h-1V36.92c0-.68-.07-1.31-1-1.24h-1c-.93.12-1.92-.26-3,.42v8.58h-1v-9A.85.85,0,0,1,46.67,34.68Z"/><path class="cls-138" d="M45.67,35.68v8h-1V36.91C44.67,36.23,44.75,35.61,45.67,35.68Z"/><path class="cls-139" d="M127.67,117.68v5.58l-3,1.42a.71.71,0,0,0-.6-.89c-.07,0-.31.22-.29.3a.71.71,0,0,0,.89.59c-.15,1.23-1.47,1.58-1.93,2.58.7,1,1.88,0,2.79.76l.15,1.17c-1.22,1.1-2.5.12-3.61.57l-.74-2.1h-3.17c-.78-.67-.37-1.37-.49-2a.77.77,0,0,0,1-.75c.08-.68.08-1.32,1-1.25.61-.12,1.31.29,1.81-.3.64-1.16-.43-2.61.66-3.68l1,1c1.13-.73-.17-2.28,1-3h3.47Z"/><path class="cls-140" d="M125.67,117.68H124.2c-1.19.71.11,2.26-1,3l-1-1c-1.09,1.07,0,2.52-.66,3.68-.5.59-1.2.18-1.81.3v-2c.15-1.06,1.49-1.72,1-3,.69,0,1-.3,1-1,1.39-.47,2.1-1.68,3-2.62v-3.38c-.69-2.18,1-4,1-6.05V95.68a49,49,0,0,1,2,6.32v7.18l-1.93,1.94c.28,1,1.56.18,1.92,1.07v1c-.34.73-1.13.41-1.77.77C125.34,115.08,125.84,116.41,125.67,117.68Z"/><path class="cls-141" d="M125.67,95.68v1h-1a9.8,9.8,0,0,0-3-8,7.58,7.58,0,0,0-2.42-5c-1.56-1.66-3.51-3-4.58-5,.15-1.06,1.49-1.72,1-3,1,0,1.43.84,1.85,1.43.64.9,2.52,4,3.31,4.55,1.19.83,1.15,2.58,2.69,3.25v4c.53,1,1.34.65,2.15,1.23Z"/><path class="cls-142" d="M134.67,67.68h3c.09,1.5,1.24.85,2,1,.09,1.5,1.24.85,2,1,.76,1,2.69.31,3,2a.78.78,0,0,0,.76,1c.67.08,1.31,0,1.24-1h1v1.48c-1.08,1.21-2.43.09-3.43.59l-2.07-2.07h-10.5c-.08-1.49-1.24-.85-2-1,.09-1.49,1.24-.85,2-1s1.92.5,2-1C134.36,68.71,134.7,68.38,134.67,67.68Zm.94,2.53c.92.61,1.56.92,1.94-.18C136.93,69.53,136.37,69.49,135.61,70.21Z"/><path class="cls-143" d="M155.67,95.68V88.19c.47-.59,1-.65,2-.18v7.67Z"/><path class="cls-107" d="M141.76,79.74v-1.9h7.9C147.27,80.39,144.48,79.49,141.76,79.74Z"/><path class="cls-144" d="M148.67,57.68c.69,0,1,.31,1,1v6h-1c-.19-1,.25-2.05-.52-3.14S147,58.77,148.67,57.68Z"/><path class="cls-111" d="M136.5,117.62c-.94-.32-1,2.12-2.45.84-.75-.47-.22-1.37-.39-2.14a5.45,5.45,0,0,0,2.84-2.49Z"/><path class="cls-145" d="M149.67,62.68v-4h2c.16.81-.72.93-.91,1.56.39.6,1.55,1.07.47,2.44Z"/><path class="cls-146" d="M149.67,65.68c1,1.64,1,1.64.55,5.28-.92-1.56-.38-3-.55-4.28Z"/><path class="cls-147" d="M149.67,65.68v1h-1v-2h1Z"/><path class="cls-107" d="M153.67,88.68v-1c.49,0,.93.07.79.67C154.43,88.51,154,88.57,153.67,88.68Z"/><path class="cls-148" d="M75.67,49.68v2l-1,.39,1,1.2c-1.28.82-2.71.22-4,.41h-6v-2h6.77c.68,0,1.3-.08,1.23-1Z"/><ellipse class="cls-149" cx="68.67" cy="54.68" rx="4.24" ry="1.41"/><path class="cls-150" d="M75.67,49.68l-2,1h-1c1.47-1.81.92-4,1-6l2,1v1c-.28.11-.75.18-.79.34-.14.6.3.7.79.66Z"/><path class="cls-151" d="M65.67,55.68h6c.62.11,1.32-.26,2.19.66-2.9.65-5.57.19-8.19.34Z"/><path class="cls-122" d="M77.67,74.68l1.37.53-2.32,1.18c-.06,0-.25-.83-1-.71C75.76,74.19,76.91,74.83,77.67,74.68Z"/><path class="cls-54" d="M75.67,46.68v-1c.6.12,1.29-.28,1.91.41v1.26C76.6,48,76.51,46.26,75.67,46.68Z"/><path class="cls-122" d="M70.67,72.68a.71.71,0,0,1-.89-.59c0-.08.22-.31.29-.3A.71.71,0,0,1,70.67,72.68Z"/><path class="cls-152" d="M65.67,55.68v1h-1A.85.85,0,0,1,65.67,55.68Z"/><path class="cls-150" d="M75.67,51.68v-1c.49,0,.93.07.79.67C76.43,51.51,76,51.57,75.67,51.68Z"/><path class="cls-54" d="M75.67,47.68c-.49,0-.93-.06-.79-.66,0-.16.51-.23.79-.34Z"/><path class="cls-153" d="M146.67,43.68c-.07.91.53,1,1.21,1h4.79c-.13,1.52,1.55.58,1.91,1.46-.39.94-1.25.41-1.91.54h-1c.06-.86-.49-1-1.17-1h-5.83v-2Z"/><path class="cls-102" d="M147.67,45.68h2.83c.68,0,1.23.14,1.17,1h-2.82C148.16,46.69,147.61,46.55,147.67,45.68Z"/><path class="cls-154" d="M124.67,58.68l-.3.82A1.92,1.92,0,0,1,122.85,58l.82-.3C124.36,57.66,124.7,58,124.67,58.68Z"/><path class="cls-54" d="M132.67,38.68c.15-.75-.5-1.91,1-2C133.52,37.44,134.17,38.6,132.67,38.68Z"/><path class="cls-155" d="M144.67,44.68v1c-.76-.15-1.91.5-2-1Z"/><path class="cls-156" d="M137.67,67.68h-2c-.07-.94.57-1.05,1.24-1A.78.78,0,0,1,137.67,67.68Z"/><path class="cls-156" d="M139.67,68.68c-.76-.15-1.91.5-2-1C138.43,67.83,139.59,67.19,139.67,68.68Z"/><path class="cls-156" d="M133.67,68.68c-.08,1.5-1.24.85-2,1C131.76,68.19,132.91,68.83,133.67,68.68Z"/><path class="cls-156" d="M141.67,69.68c-.76-.15-1.91.5-2-1C140.43,68.83,141.59,68.19,141.67,69.68Z"/><path class="cls-82" d="M146.67,71.68c.07.94-.57,1.06-1.24,1a.78.78,0,0,1-.76-1Z"/><path class="cls-82" d="M125.67,71.68c-.69,0-1-.3-1-1C125.36,70.66,125.7,71,125.67,71.68Z"/><path class="cls-156" d="M134.67,67.68c0,.7-.31,1-1,1A.85.85,0,0,1,134.67,67.68Z"/><path class="cls-56" d="M141.67,42.68c.69,0,1,.31,1,1C142,43.71,141.65,43.38,141.67,42.68Z"/><path class="cls-56" d="M140.67,40.68c.69,0,1,.31,1,1C141,41.71,140.65,41.38,140.67,40.68Z"/><path class="cls-54" d="M131.67,40.68v-1h1C132.7,40.38,132.36,40.71,131.67,40.68Z"/><path class="cls-54" d="M133.67,36.68a.85.85,0,0,1,1-1C134.7,36.38,134.36,36.71,133.67,36.68Z"/><path class="cls-157" d="M129.67,70.68c.76.15,1.92-.49,2,1C130.91,71.53,129.76,72.18,129.67,70.68Z"/><path class="cls-158" d="M119.67,53.69a.7.7,0,0,1-.6.88c-.07,0-.31-.21-.29-.29A.69.69,0,0,1,119.67,53.69Z"/><ellipse class="cls-159" cx="57.17" cy="39.68" rx="0.71" ry="5.66"/><circle class="cls-160" cx="57.17" cy="44.18" r="0.71"/><path class="cls-54" d="M129.67,43.18c-.33.47-.67.47-1,0C129,42.72,129.34,42.72,129.67,43.18Z"/><path class="cls-62" d="M155.67,153.69a.7.7,0,0,1-.6.88c-.07,0-.31-.21-.29-.29A.69.69,0,0,1,155.67,153.69Z"/><path class="cls-55" d="M156.67,162.18c-.33.47-.67.47-1,0C156,161.72,156.34,161.72,156.67,162.18Z"/><path class="cls-62" d="M152.67,162.18c-.33.47-.67.47-1,0C152,161.72,152.34,161.72,152.67,162.18Z"/><path class="cls-161" d="M56.67,35.68v8h-3v-7C54.73,36.54,55.4,35.19,56.67,35.68Z"/><path class="cls-162" d="M53.67,36.68v7h-1V36.91c0-.68.08-1.3,1-1.23Z"/><path class="cls-53" d="M50.67,33.68c0,.7-.31,1-1,1A.85.85,0,0,1,50.67,33.68Z"/><path class="cls-53" d="M48.67,34.68h-1c0-.48.06-.93.66-.79C48.5,33.93,48.56,34.41,48.67,34.68Z"/><path class="cls-163" d="M89.67,131.68c2.83,0,5.73.41,8.46-.09,4-.73,8.28-.91,11.54-3.91.6-.11,1.21.18,1.81-.28,1.7-1.28,3.46-2.48,5.19-3.72.69,0,1-.3,1-1,.69,0,1-.3,1-1h1v2c-.94-.07-.94.57-1,1.25a.77.77,0,0,1-1,.75h-2v2a2.23,2.23,0,0,0-1.93,1.8c-.16.94-.82,1.31-1.49,2.2h-8.86l1.15,1.42c-3.31.76-15.69.85-20.81.14.5-1.43,2.78.52,2.94-1.56Z"/><path class="cls-164" d="M105.67,145.68h-4c-.22-1.87,2.45-.05,2-2C104.85,144.19,105.49,144.73,105.67,145.68Z"/><path class="cls-67" d="M93.67,145.68v-2c1.1,0,2.49-.27,1.84,1.67C95,146,94.28,145.56,93.67,145.68Z"/><path class="cls-67" d="M89.67,145.68h4v1H90.85C90.16,146.69,89.61,146.55,89.67,145.68Z"/><path class="cls-163" d="M109.67,133.68v-1c.61.12,1.31-.29,1.86.36C111.25,134.21,110.28,133.47,109.67,133.68Z"/><path class="cls-163" d="M114.68,131.18c.32-.46.66-.46,1,0C115.34,131.65,115,131.65,114.68,131.18Z"/><path class="cls-163" d="M115.68,127.69a.69.69,0,0,1,.88.59c0,.08-.22.31-.29.29A.69.69,0,0,1,115.68,127.69Z"/><path class="cls-65" d="M77.67,129.68h4c-.17,1.47-2.33.55-2,2h-2Z"/><path class="cls-65" d="M68.68,135.69a.69.69,0,0,1,.88.59c0,.08-.22.31-.29.29A.69.69,0,0,1,68.68,135.69Z"/><path class="cls-163" d="M82.67,131.68c0-.48.06-.93.66-.79.17,0,.23.52.34.79Z"/><path class="cls-126" d="M65.67,92.68c-.38,1,.93,2.53-1,3C65.05,94.7,63.74,93.15,65.67,92.68Z"/><path class="cls-126" d="M67.67,88.68c0,.7-.31,1-1,1A.85.85,0,0,1,67.67,88.68Z"/><path class="cls-126" d="M64.67,108.68c.69,0,1,.31,1,1C65,109.71,64.65,109.38,64.67,108.68Z"/><path class="cls-113" d="M73.17,139.68q-.69-.5,0-1Q73.88,139.19,73.17,139.68Z"/><path class="cls-165" d="M65.67,55.68a.85.85,0,0,0-1,1c-.9.07-1-.52-1-1.21V50.68h1c0,.7.31,1,1,1v4Z"/><path class="cls-166" d="M52.67,43.68h4v1h-4Z"/><path class="cls-109" d="M124.67,124.68a.71.71,0,0,1-.89-.59c0-.08.22-.31.29-.3A.71.71,0,0,1,124.67,124.68Z"/><path class="cls-167" d="M121.67,117.68c.11-2.44,1.45-4.27,3-6v3.38C123.77,116,123.06,117.21,121.67,117.68Z"/><path class="cls-167" d="M118.67,121.68a2.47,2.47,0,0,1,2-3c.49,1.28-.85,1.94-1,3Z"/><path class="cls-167" d="M120.67,118.68a.85.85,0,0,1,1-1C121.7,118.38,121.36,118.71,120.67,118.68Z"/><path class="cls-82" d="M135.61,70.21c.76-.72,1.32-.68,1.94-.18C137.17,71.13,136.53,70.82,135.61,70.21Z"/><path class="cls-168" d="M65.67,51.68c-.69,0-1-.3-1-1v-1h1c.74-.12,1,.6,1.42.91a.74.74,0,0,0,.58-.91h1c-.06.87.49,1,1.18,1h3.82c.07.92-.55,1-1.23,1Z"/><path class="cls-169" d="M53.67,50.68c-.06-.88.51-1,1.2-1h3.8v6h-2v-4c.49,0,.9,0,.78-1Z"/><path class="cls-167" d="M117.67,122.68a.85.85,0,0,1,1-1C118.7,122.38,118.36,122.71,117.67,122.68Z"/><path class="cls-167" d="M116.67,123.68a.85.85,0,0,1,1-1C117.7,123.38,117.36,123.71,116.67,123.68Z"/><path class="cls-170" d="M51.67,56.68V51.89c0-.68.1-1.27,1-1.21,0,.7.31,1,1,1v4a.85.85,0,0,0-1,1Z"/><path class="cls-171" d="M52.67,56.68a.85.85,0,0,1,1-1h5c.1,1-1,1.11-1.22,1.89C56,56.25,54.27,56.77,52.67,56.68Z"/><path class="cls-172" d="M53.67,51.68c-.69,0-1-.3-1-1h4.78c.12,1-.29,1-.78,1h-3Z"/><path class="cls-173" d="M55.67,51.68h1v4h-2c.13-.6-.33-1.35.34-1.81C55.84,53.3,55.67,52.48,55.67,51.68Z"/><path class="cls-174" d="M55.67,51.68c0,.8.17,1.62-.66,2.19-.67.46-.21,1.21-.34,1.81h-1v-4Z"/></svg>