<svg id="Layer_1" data-name="Layer 1" xmlns="http://www.w3.org/2000/svg" viewBox="0 0 187.41 249.09"><defs><style>.cls-1{fill:#300808;}.cls-2{fill:#2c0509;}.cls-3{fill:#35070c;}.cls-4{fill:#300c0c;}.cls-5{fill:#3b1316;}.cls-6{fill:#410708;}.cls-7{fill:#120302;}.cls-8{fill:#370107;}.cls-9{fill:#3e0f15;}.cls-10{fill:#341213;}.cls-11{fill:#241411;}.cls-12{fill:#451c20;}.cls-13{fill:#3d191a;}.cls-14{fill:#36191a;}.cls-15{fill:#381317;}.cls-16{fill:#441614;}.cls-17{fill:#461013;}.cls-18{fill:#15170f;}.cls-19{fill:#261c0f;}.cls-20{fill:#141112;}.cls-21{fill:#0a0a0c;}.cls-22{fill:#040406;}.cls-23{fill:#121214;}.cls-24{fill:#0e0e10;}.cls-25{fill:#0f0f11;}.cls-26{fill:#101112;}.cls-27{fill:#141517;}.cls-28{fill:#070709;}.cls-29{fill:#060608;}.cls-30{fill:#161618;}.cls-31{fill:#1d1e20;}.cls-32{fill:#222325;}.cls-33{fill:#555658;}.cls-34{fill:#131315;}.cls-35{fill:#28282a;}.cls-36{fill:#131416;}.cls-37{fill:#0f0c02;}.cls-38{fill:#7e7e82;}.cls-39{fill:#1b191a;}.cls-40{fill:#410e0e;}.cls-41{fill:#2a2814;}.cls-42{fill:#0f0a00;}.cls-43{fill:#441819;}.cls-44{fill:#2b290e;}.cls-45{fill:#201c17;}.cls-46{fill:#2f0806;}.cls-47{fill:#140b08;}.cls-48{fill:#29070c;}.cls-49{fill:#3a0f0e;}.cls-50{fill:#271c0d;}.cls-51{fill:#40060c;}.cls-52{fill:#1c1013;}.cls-53{fill:#451d1b;}.cls-54{fill:#260804;}.cls-55{fill:#381313;}.cls-56{fill:#6e1f21;}.cls-57{fill:#26210f;}.cls-58{fill:#2d2710;}.cls-59{fill:#2b2711;}.cls-60{fill:#2f2818;}.cls-61{fill:#301211;}.cls-62{fill:#461817;}.cls-63{fill:#322b12;}.cls-64{fill:#201a16;}.cls-65{fill:#2e1311;}.cls-66{fill:#4c2628;}.cls-67{fill:#120c09;}.cls-68{fill:#4c1416;}.cls-69{fill:#a73538;}.cls-70{fill:#d42326;}.cls-71{fill:#a92c37;}.cls-72{fill:#963438;}.cls-73{fill:#b03232;}.cls-74{fill:#8e3138;}.cls-75{fill:#aa2b31;}.cls-76{fill:#a3333c;}.cls-77{fill:#9c2730;}.cls-78{fill:#824c48;}.cls-79{fill:#b03b48;}.cls-80{fill:#b32c37;}.cls-81{fill:#9b464f;}.cls-82{fill:#9e2b33;}.cls-83{fill:#a82d37;}.cls-84{fill:#010101;}.cls-85{fill:#0e0404;}.cls-86{fill:#271d0d;}.cls-87{fill:#f2f222;}.cls-88{fill:#2d2911;}.cls-89{fill:#e4dc8f;}.cls-90{fill:#ecea3e;}.cls-91{fill:#ecef32;}.cls-92{fill:#cabb4c;}.cls-93{fill:#f1ef92;}.cls-94{fill:#e9e57c;}.cls-95{fill:#ebe922;}.cls-96{fill:#010103;}.cls-97{fill:#070608;}.cls-98{fill:#0a0709;}.cls-99{fill:#303132;}.cls-100{fill:#f2f43e;}.cls-101{fill:#7a7724;}.cls-102{fill:#eef05e;}.cls-103{fill:#8a8d0b;}.cls-104{fill:#eef453;}.cls-105{fill:#f4f71c;}.cls-106{fill:#c3c961;}.cls-107{fill:#e8ef2a;}.cls-108{fill:#eaeb7a;}.cls-109{fill:#f1f813;}.cls-110{fill:#b22d37;}.cls-111{fill:#be2a2d;}.cls-112{fill:#c22932;}.cls-113{fill:#dfe944;}.cls-114{fill:#f8e963;}.cls-115{fill:#c3c187;}.cls-116{fill:#d9d87c;}.cls-117{fill:#d8d28b;}.cls-118{fill:#f5f815;}.cls-119{fill:#d1cc46;}.cls-120{fill:#eceb73;}.cls-121{fill:#99292b;}.cls-122{fill:#fdfd06;}.cls-123{fill:#f1ef23;}.cls-124{fill:#c0bc4d;}.cls-125{fill:#f5ed87;}.cls-126{fill:#d9d580;}.cls-127{fill:#a93333;}.cls-128{fill:#d42224;}.cls-129{fill:#c82b1f;}.cls-130{fill:#bc2e2c;}.cls-131{fill:#ae4247;}.cls-132{fill:#d32530;}.cls-133{fill:#bd2b2f;}.cls-134{fill:#d0261b;}.cls-135{fill:#cb2725;}.cls-136{fill:#cc262a;}.cls-137{fill:#c8333e;}.cls-138{fill:#a33e46;}.cls-139{fill:#ca3c40;}.cls-140{fill:#ce281f;}.cls-141{fill:#db1f1f;}.cls-142{fill:#230202;}.cls-143{fill:#0b0306;}.cls-144{fill:#06080a;}.cls-145{fill:#eded32;}.cls-146{fill:#e2d769;}.cls-147{fill:#f1ea8c;}.cls-148{fill:#fafb0a;}.cls-149{fill:#e8e888;}.cls-150{fill:#040306;}.cls-151{fill:#0e0d10;}.cls-152{fill:#040001;}.cls-153{fill:#090303;}.cls-154{fill:#210203;}.cls-155{fill:#f8f03e;}.cls-156{fill:#f7fa14;}.cls-157{fill:#f5f950;}.cls-158{fill:#d4d72d;}.cls-159{fill:#ecee80;}.cls-160{fill:#fcfb03;}.cls-161{fill:#f1ee5e;}.cls-162{fill:#ecf469;}.cls-163{fill:#ccc97b;}.cls-164{fill:#eef18b;}.cls-165{fill:#d9221c;}.cls-166{fill:#f0f365;}.cls-167{fill:#e5e684;}.cls-168{fill:#f5ee84;}.cls-169{fill:#f4f492;}.cls-170{fill:#d7d282;}.cls-171{fill:#eeea50;}.cls-172{fill:#faed89;}.cls-173{fill:#f0e99c;}.cls-174{fill:#d3ca8a;}.cls-175{fill:#fefd01;}.cls-176{fill:#bc2d30;}.cls-177{fill:#9f2124;}.cls-178{fill:#420b0a;}.cls-179{fill:#6b1b21;}.cls-180{fill:#210101;}.cls-181{fill:#340000;}.cls-182{fill:#fefc07;}.cls-183{fill:#d22422;}.cls-184{fill:#d12626;}.cls-185{fill:#d82325;}.cls-186{fill:#bb2f2d;}.cls-187{fill:#5a1e1c;}.cls-188{fill:#b22725;}.cls-189{fill:#3b0406;}.cls-190{fill:#d02722;}.cls-191{fill:#d72324;}</style></defs><path class="cls-1" d="M120.26,44.68h-3c-.09-1.49-1.25-.85-2-1h-1a.85.85,0,0,0-1-1,5.39,5.39,0,0,1-3-3,.85.85,0,0,0-1-1v-8h1v3c.38,1-.93,2.53,1,3,1,1.3.9,3.49,3,4,0,.7.3,1,1,1h1a3.43,3.43,0,0,0,5,0h1c.69,0,1-.3,1-1h1c0,.7.3,1,1,1,0,.7-.31,1-1,1s-1,.31-1,1h-1C121.5,43.83,120.34,43.19,120.26,44.68Z"/><path class="cls-2" d="M96.26,18.68c3.76.83,5.25,3.6,6,7v6c-.7,0-1,.31-1,1h-1v-5c.27-.11.75-.17.79-.33.14-.6-.31-.7-.79-.67a4.62,4.62,0,0,0-2-4,2.47,2.47,0,0,0-2-2Z"/><path class="cls-3" d="M66.26,23.68c-.11.57.32,1.06.67,1,1.39-.39,2.25.62,3.33,1,0,.7.3,1,1,1,0,.7-.31,1-1,1h-1a.85.85,0,0,0-1-1h-6c-.76.15-1.92-.49-2,1-.7,0-1,.31-1,1h-1v-2c.69,0,1-.3,1-1C61.53,24.81,63.69,23.52,66.26,23.68Z"/><path class="cls-4" d="M87.26,18.68h1v2h-2v3c-2.4,1.43-2,3.79-2,6l-2,1V24.32c1.27-1.67,1.71-4,4-4.64C87,19.71,87.28,19.38,87.26,18.68Z"/><path class="cls-5" d="M38.26,34.68h1v2h-3a.78.78,0,0,0-.76-1c-.67-.07-1.32,0-1.24,1h-2c-.7,0-1,.31-1,1-.7,0-1,.31-1,1a2.46,2.46,0,0,0-2,2l-2-1v-1c1.82-.35,2.18-2.65,4-3,.69,0,1-.3,1-1h7Z"/><path class="cls-6" d="M88.26,20.68v-2a.76.76,0,0,1,.78-1q3.21-.06,6.44,0a.77.77,0,0,1,.78,1v2h-1a3.45,3.45,0,0,0-5,0h-2Z"/><path class="cls-7" d="M121.26,24.68h2c0,.7.3,1,1,1a.85.85,0,0,1,1,1c0,.7-.31,1-1,1-.09-1.49-1.25-.85-2-1a6.4,6.4,0,0,0-7,0h-2v-1c1.06-.14,1.72-1.49,3-1Z"/><path class="cls-8" d="M113.26,26.68h1v1c-.7,0-1,.31-1,1-1.91,1.17-2.1,3-2,5h-1v-5a2.46,2.46,0,0,1,2-2Z"/><path class="cls-9" d="M82.26,30.68l2-1c0,.7.3,1,1,1,0,.7.3,1,1,1v1c-.76.15-1.92-.49-2,1a.77.77,0,0,1-1-.75c-.08-.68-.08-1.32-1-1.25Z"/><path class="cls-10" d="M121.26,24.68h-5A3.45,3.45,0,0,1,121.26,24.68Z"/><path class="cls-11" d="M128.26,28.68v2h-2v-3Z"/><path class="cls-12" d="M109.26,31.68v5c-.89.07-1-.51-1-1.19V31.68Z"/><path class="cls-13" d="M38.26,34.68h-5c-.07-.88.51-1,1.19-1h3.81Z"/><path class="cls-10" d="M126.26,27.68v2l-2-1v-1c.69,0,1-.3,1-1A.85.85,0,0,1,126.26,27.68Z"/><path class="cls-14" d="M102.26,29.68v-4A2.48,2.48,0,0,1,102.26,29.68Z"/><path class="cls-12" d="M110.26,28.68v2h-1C109.41,29.93,108.76,28.77,110.26,28.68Z"/><ellipse class="cls-15" cx="100.76" cy="33.68" rx="0.71" ry="1.41"/><path class="cls-13" d="M31.26,34.68c0,.7-.31,1-1,1v-1Z"/><path class="cls-14" d="M101.26,32.68c0-.69.3-1,1-1C102.28,32.38,102,32.71,101.26,32.68Z"/><path class="cls-16" d="M56.26,28.68v-1h1C57.28,28.38,57,28.71,56.26,28.68Z"/><path class="cls-16" d="M58.26,26.68v1h-1C57.23,27,57.56,26.66,58.26,26.68Z"/><path class="cls-17" d="M113.26,26.68h-1c0-.69.3-1,1-1Z"/><path class="cls-16" d="M59.26,25.68c0,.7-.31,1-1,1C58.23,26,58.56,25.66,59.26,25.68Z"/><path class="cls-10" d="M124.26,25.68c-.7,0-1-.3-1-1A.85.85,0,0,1,124.26,25.68Z"/><path class="cls-6" d="M87.26,18.68c0,.7-.31,1-1,1C86.23,19,86.56,18.66,87.26,18.68Z"/><path class="cls-18" d="M131.26,59.68a23.5,23.5,0,0,1,13-3c0,.8.17,1.62-.67,2.19-.67.46-.21,1.21-.33,1.81-1.5.09-.85,1.25-1,2-.7,0-1,.31-1,1v1c-.7,0-1,.31-1,1v1c-.7,0-1,.31-1,1v1h-1v-3c1.49-.08.85-1.24,1-2,1.83-1.06.74-2.56,1.13-5.08-1.62,2-3.44-.17-4.13,2.08-1.07.15-1.73,1.49-3,1-.7,0-1,.31-1,1h-1c-.7,0-1,.31-1,1-.7,0-1,.31-1,1-.76-.15-1.92.5-2-1,.69,0,1-.3,1-1,.69,0,1-.3,1-1,.69,0,1-.3,1-1C131,60.71,131.28,60.38,131.26,59.68Z"/><path class="cls-19" d="M127.26,63.68c.08,1.5,1.24.85,2,1-.34.67-.67,1.34-1,2a2.46,2.46,0,0,0-3,2l-2,1a.85.85,0,0,0-1-1c-.15-.75.49-1.91-1-2-.38-1,.92-2.53-1-3v-1c-1.21-2.09-1.28-4.67-2.94-6.61-.41-.47-.06-1.57-.06-2.39,1.55-.17.57,1.52,1.37,1.89a.7.7,0,0,0,.63-.89,12.1,12.1,0,0,1,3,5.47c.47,1.86,1.13,3.55,2.34,4.35C126.16,65,126.3,63.47,127.26,63.68Z"/><path class="cls-20" d="M119.26,54.68a.7.7,0,0,1-.63.89c-.8-.37.18-2.06-1.37-1.89a.85.85,0,0,0-1-1c-.11-.27-.18-.75-.34-.79-.6-.14-.7.31-.66.79-.7,0-1,.31-1,1v1c-.7,0-1,.31-1,1-.7,0-1,.31-1,1-.7,0-1,.31-1,1h-1v-2c.69,0,1-.3,1-1,.69,0,1-.3,1-1v-1c.69,0,1-.3,1-1,.69,0,1-.3,1-1,1-1.3.9-3.49,3-4-.14,1.78.84,3.3,1.46,4.79A12.06,12.06,0,0,1,119.26,54.68Z"/><path class="cls-19" d="M128.26,62.68c0,.7-.31,1-1,1C127.23,63,127.56,62.66,128.26,62.68Z"/><path class="cls-19" d="M129.26,61.68c0,.7-.31,1-1,1C128.23,62,128.56,61.66,129.26,61.68Z"/><path class="cls-19" d="M130.26,60.68c0,.7-.31,1-1,1C129.23,61,129.56,60.66,130.26,60.68Z"/><path class="cls-19" d="M131.26,59.68c0,.7-.31,1-1,1C130.23,60,130.56,59.66,131.26,59.68Z"/><path class="cls-21" d="M32.26,207.68c1.54,0,1.71-2.57,4-1.75a65.55,65.55,0,0,1-.08,8.16c-.34,2.85,1.47,5.29,1.07,8.08-1.11,1.2-2.46.08-3.84.74v-4.67c-1.23-.53-.91-1.79-1.88-2.8L28.84,219l-2-4.26c-2.29,1.19-1.92,4.21-4,5.76-.84-1.19-2.36-.75-4.1-1.16,3.48-4.36,4.71-9.44,7.52-13.7l2,1c1,1.1.94,2.54,1.28,4C31.56,210.6,32.33,209.54,32.26,207.68Z"/><path class="cls-22" d="M95.26,220.68v1c.15.76-.5,1.92,1,2v2c-.76.15-1.92-.49-2,1-.7,0-1-.3-1-1a.85.85,0,0,0-1-1v-1c1.26-.07,1-.86.77-2H91.26c-.81.17-1-.74-1.9-1v5.64a7.49,7.49,0,0,1-3.89.32V210c1.08-.53,2.22-.21,3.34-.22,1,.71,0,1.93.83,2.86.1.11.24-.08.59-.33a2.49,2.49,0,0,0,1-2.58h6c-.42,1.4-2,1.78-2,3v1c-2.48,2.07-2.61,2.86-1,6C94.23,220.38,94.56,220.71,95.26,220.68Z"/><path class="cls-23" d="M153.26,208.14a7.83,7.83,0,0,1,4.52,4.52c2-1.44,1.25-4.2,3.08-5.71l6.25,12.38-1.34,1.34h-2l-2-4c-.77,0-1.51-.05-1.47.92a1,1,0,0,1-.78,1.1c-1.36.08-1.72-1.33-3-2.13,0,1.83-.85,3.25-1.39,4.76l-2.48,1.2c-1.52-2.39.64-4.53.64-6.85Z"/><path class="cls-24" d="M126.26,210.68a33.89,33.89,0,0,0,4.94-.05c1.59-.23,2.51,1.53,4.06,1.05-.17,1.77,1.51,3.17,1,5v1c-.28.11-.76.18-.8.34-.13.6.31.7.8.66v3.38c-.9.94-1.62,2.15-3,2.62h-6.12c.79-4.26-1.61-8-.88-12Zm5,4c-.11-.27-.18-.75-.34-.79-.6-.14-.7.31-.66.79v4.81c0,.68.11,1.26,1,1.19a2.34,2.34,0,0,0,2-2.27A4,4,0,0,0,131.26,214.68Z"/><path class="cls-24" d="M110.26,211.68h4v12.77c0,.68-.08,1.3-1,1.23-.69-1.75-2.42-2.59-3.5-4.09-1.05,1.53-.12,3.25-.67,4.77-.7.66-1.56.15-2.33.32a9.47,9.47,0,0,1-1.54-5.81c.14-2.63,0-5.28,0-7.91,0-.68,0-1.35,1-1.28-.17,2.7,2.35,3.28,4,5.84Z"/><path class="cls-25" d="M60.26,224.68H54.81c-1.51-.68-1.36-2.54-2.55-3.49a28.36,28.36,0,0,0,0-4.42c-.26-1.59,1.52-2.53,1-4.09.69,0,1-.3,1-1,2.05,0,3.82-1.7,6-1,.33.67.66,1.34,1,2-.13.61.3,1.32-.42,1.91-1.51.41-3.68-.68-4.41,1.5v4.5h1.42c1-.83-.17-2.07.8-2.81h2.61v5.9C60.56,223.66,60.23,224,60.26,224.68Z"/><path class="cls-23" d="M116.26,214.68l1-2c2-.7,3.62-2.47,6-2a5.4,5.4,0,0,1,1,4h-3c-.7,0-1,.31-1,1-1.5.09-.85,1.25-1,2v1c.15.76-.5,1.92,1,2,.07,1.28.87,1.06,2,.76v-3.76h3v7a3,3,0,0,0-1,0c-1.14.46-2.3,1.69-3.49.9-1.65-1.1-3.92-1.6-4.51-3.93a4.09,4.09,0,0,1,0-1Z"/><path class="cls-26" d="M145.26,209.68h1v2h-2c-.76.15-1.92-.49-2,1-.7,0-1,.31-1,1v1c-1.37,1-1.37,2,0,3,2,2.54,2.13,2.57,5,1a2.48,2.48,0,0,0,0-4v-3h2v1c.15.76-.5,1.92,1,2v5.45a10.64,10.64,0,0,1-5.78,3.73c-1.33-1.06-3.56-1-4.22-3.18-.15-.75.49-1.91-1-2,.08-1.22-.42-2.62,1-3.47-.27-.54-1.11-.72-1-1.53,1.49-.08.85-1.24,1-2,.69,0,1-.3,1-1,.69,0,1-.3,1-1Z"/><path class="cls-27" d="M48.26,211.68v2.83c0,.68.13,1.24,1,1.17v2.83c0,.68.13,1.24,1,1.17v1c.05,1.26-.41,2.65,1,3.55-2.35,1.64-3.42-.74-4.42-1.52-2.55-.18-4.3,2-6.4.63l6.31-12.66h1.52Zm-3.08,7.5c.91.65,1.54.94,2-.14C46.55,218.49,46,218.53,45.18,219.18Z"/><path class="cls-24" d="M72.26,216.68v3.81c0,.68.11,1.26,1,1.19.67,2.13,2.61.35,3.85,1.32v2.34c-.57.62-1.88.22-2.29,1.23-1.94-1.15-4.78-1.08-5.56-3.89-.38-1,.92-2.53-1-3v-1c1.49-.08.85-1.24,1-2v-1c.69,0,1-.3,1-1s.3-1,1-1,1-.3,1-1h5c-.13.61.29,1.32-.33,1.84-.78.64-2.44-.73-2.67,1.16h-1C72.56,215.66,72.23,216,72.26,216.68Zm-1,6.5c.32.47.65.47,1,0C71.92,222.72,71.59,222.72,71.27,223.18Z"/><path class="cls-28" d="M103.26,212.68V226.6h-3V212.68Z"/><path class="cls-29" d="M63.26,225.68v-4c.92.07,1-.54,1-1.22v-8.78h2c-.25,1.48.54,3.07-.82,4.49-.4.41-1,2.18.82,2.51v3c-.87-.06-1,.5-1,1.18v2.82Z"/><path class="cls-30" d="M67.26,212.68v5c-.7,0-1,.31-1,1-1.84-.33-1.22-2.1-.82-2.51,1.36-1.42.57-3,.82-4.49h1Z"/><path class="cls-31" d="M138.26,213.68c-.14.81.7,1,1,1.53-1.39.85-.89,2.25-1,3.47l-2-1v-1c1,.08,1-.57,1-1.25S136.92,213.69,138.26,213.68Z"/><path class="cls-32" d="M74.26,215.68c.23-1.89,1.89-.52,2.67-1.16.62-.52.2-1.23.33-1.84h1v3Z"/><path class="cls-32" d="M77.26,212.68h-5A3.45,3.45,0,0,1,77.26,212.68Z"/><path class="cls-33" d="M28.26,206.68l-2-1V204.2a1.22,1.22,0,0,1,1.69-.33C28.54,204.74,28.13,205.74,28.26,206.68Z"/><path class="cls-30" d="M66.26,221.68v4h-1v-2.82C65.25,222.18,65.39,221.62,66.26,221.68Z"/><path class="cls-34" d="M91.26,221.68H93c.28,1.14.49,1.93-.77,2C90.76,223.6,91.41,222.44,91.26,221.68Z"/><path class="cls-31" d="M145.26,209.68h-4v-1h2.82C144.76,208.68,145.32,208.82,145.26,209.68Z"/><path class="cls-35" d="M103.26,212.68h-3C101.26,211.31,102.25,211.31,103.26,212.68Z"/><path class="cls-34" d="M94.26,226.68c.08-1.49,1.24-.85,2-1C96.17,227.18,95,226.53,94.26,226.68Z"/><path class="cls-34" d="M96.26,225.68v-2c.94-.07,1,.57,1,1.25A.77.77,0,0,1,96.26,225.68Z"/><path class="cls-34" d="M96.26,223.68c-1.5-.08-.85-1.24-1-2C96.75,221.77,96.11,222.93,96.26,223.68Z"/><path class="cls-31" d="M138.26,218.68c1.49.09.85,1.25,1,2C137.76,220.6,138.41,219.44,138.26,218.68Z"/><path class="cls-36" d="M149.26,214.68c-1.5-.08-.85-1.24-1-2C149.75,212.77,149.11,213.93,149.26,214.68Z"/><path class="cls-31" d="M139.26,211.68c-.15.76.49,1.92-1,2C138.41,212.93,137.76,211.77,139.26,211.68Z"/><path class="cls-36" d="M141.26,209.68c0,.7-.31,1-1,1C140.23,210,140.56,209.66,141.26,209.68Z"/><circle class="cls-31" cx="146.76" cy="210.18" r="0.71"/><path class="cls-36" d="M140.26,210.68c0,.7-.31,1-1,1C139.23,211,139.56,210.66,140.26,210.68Z"/><path class="cls-31" d="M148.26,211.68h-1v-1A.85.85,0,0,1,148.26,211.68Z"/><path class="cls-32" d="M71.26,213.68v-1h1C72.28,213.38,72,213.71,71.26,213.68Z"/><path class="cls-32" d="M69.26,214.68h1c0,.7-.31,1-1,1Z"/><path class="cls-31" d="M136.26,218.68c-.49,0-.93-.06-.8-.66,0-.16.52-.23.8-.34Z"/><path class="cls-34" d="M95.26,220.68c-.7,0-1-.3-1-1A.85.85,0,0,1,95.26,220.68Z"/><path class="cls-34" d="M92.26,224.68a.85.85,0,0,1,1,1C92.56,225.71,92.23,225.38,92.26,224.68Z"/><path class="cls-37" d="M132.26,83.68v1c-.7,0-1,.31-1,1,.49,1.28-.86,1.94-1,3h-77v-4h1c.15.76-.5,1.92,1,2h2c.17,1.68,1.49,1,2.29,1,12.48,0,25,0,37.45,0,8.32,0,16.64,0,25,0,.8,0,2.11.71,2.29-1h1c.11.28.17.76.33.8.6.13.7-.31.67-.8h1c.11.28.17.76.33.8.6.13.7-.31.67-.8v-1h1c1.49-.08.85-1.24,1-2,.74.12.94-.59,1.41-.9A.73.73,0,0,1,132.26,83.68Z"/><ellipse class="cls-38" cx="91.76" cy="89.18" rx="54.45" ry="0.71"/><path class="cls-39" d="M47.26,56.68c0,.7.3,1,1,1,.08,1.5,1.24.85,2,1h1c0,.7.3,1,1,1a.85.85,0,0,1,1,1c.08,1.5,1.24.85,2,1,0,.7.3,1,1,1,.08,1.5,1.24.85,2,1,0,.7.3,1,1,1a.77.77,0,0,0,.75,1c.68.08,1.32,0,1.25-1,1.49-.08.85-1.24,1-2v-1c1.49-.08.85-1.24,1-2v-1h1v5c-1.5.09-.85,1.25-1,2-1.5.09-.85,1.25-1,2-.7,0-1,.31-1,1h-1a.85.85,0,0,0-1-1,.85.85,0,0,0-1-1h-1a.85.85,0,0,0-1-1,.85.85,0,0,0-1-1,.85.85,0,0,0-1-1c-.09-1.49-1.25-.85-2-1v-2h-4a.78.78,0,0,0-.76-1c-.67-.07-1.32,0-1.24,1-.28.11-.76.18-.8.34-.13.6.31.7.8.66.15.76-.5,1.92,1,2,0,.7.3,1,1,1v1c-.15.76.49,1.92-1,2a.85.85,0,0,0-1-1v-1a.85.85,0,0,0-1-1v-1a.85.85,0,0,0-1-1v-1a.85.85,0,0,0-1-1c-.5-1.73-2.17-3-2-5h2c.79,0,1.61-.17,2.18.67C45.9,57,46.65,56.56,47.26,56.68Z"/><path class="cls-40" d="M26.26,39.68l2,1v1c-.7,0-1,.31-1,1,.38,1-.93,2.53,1,3v3c0,.7.3,1,1,1,0,.7.3,1,1,1,.08,1.5,1.24.85,2,1h1c0,.7.3,1,1,1h3c.69,0,1-.3,1-1h2v1c0,1.34-1,.94-1.75,1s-1.33.06-1.25,1h-3c-.09-1.49-1.25-.85-2-1h-1a.85.85,0,0,0-1-1h-1a.85.85,0,0,0-1-1,.85.85,0,0,0-1-1,.85.85,0,0,0-1-1v-10Z"/><path class="cls-41" d="M47.26,67.68c1.49-.08.85-1.24,1-2h1a3.87,3.87,0,0,0,1.36,3.61c1.25,1-.49,3.14,1.64,3.39v3c-1.5.09-.85,1.25-1,2-1.92-.22-.82-1.82-1.13-2.72C49.28,72.49,47.63,70.33,47.26,67.68Z"/><path class="cls-42" d="M51.26,77.68c.15-.75-.5-1.91,1-2v2.83c0,.68.13,1.24,1,1.17v5h-1v-2c-.15-.75.49-1.91-1-2Z"/><path class="cls-43" d="M37.26,54.68c-.08-1,.57-1,1.25-1s1.74.35,1.75-1h1c.08.87-.44,2.08,1.23,2a.75.75,0,0,1,.77,1h-2A5.4,5.4,0,0,0,37.26,54.68Z"/><path class="cls-43" d="M32.26,53.68c.75.15,1.91-.49,2,1C33.5,54.53,32.34,55.18,32.26,53.68Z"/><path class="cls-41" d="M51.26,80.68c1.49.09.85,1.25,1,2C50.76,82.6,51.41,81.44,51.26,80.68Z"/><path class="cls-44" d="M52.26,84.68h1v2C51.76,86.6,52.41,85.44,52.26,84.68Z"/><path class="cls-41" d="M46.26,66.68a.85.85,0,0,1,1,1C46.56,67.71,46.23,67.38,46.26,66.68Z"/><path class="cls-41" d="M45.26,64.68a.85.85,0,0,1,1,1C45.56,65.71,45.23,65.38,45.26,64.68Z"/><path class="cls-41" d="M44.26,62.68a.85.85,0,0,1,1,1C44.56,63.71,44.23,63.38,44.26,62.68Z"/><path class="cls-41" d="M43.26,60.68a.85.85,0,0,1,1,1C43.56,61.71,43.23,61.38,43.26,60.68Z"/><path class="cls-43" d="M30.26,52.68a.85.85,0,0,1,1,1C30.56,53.71,30.23,53.38,30.26,52.68Z"/><path class="cls-43" d="M28.26,51.68a.85.85,0,0,1,1,1C28.56,52.71,28.23,52.38,28.26,51.68Z"/><path class="cls-43" d="M27.26,50.68a.85.85,0,0,1,1,1C27.56,51.71,27.23,51.38,27.26,50.68Z"/><path class="cls-45" d="M64.26,56.68c.09-2.85,2.36-5,2-7.79,2.22-.72,2.42,1.77,4,1.79.11.6-.32,1.34.31,1.8,1.45,1.06,1.82,2.78,2.69,4.2,0,.7.3,1,1,1,.33.67.66,1.34,1,2,0,.7.3,1,1,1,0,.7.3,1,1,1,0,.7.3,1,1,1,0,.7.3,1,1,1,.11.28.17.76.33.8.6.13.7-.31.67-.8.69,0,1-.3,1-1,.14-1.06,1.49-1.72,1-3,.69,0,1-.3,1-1,.33-.66.66-1.33,1-2,.69,0,1-.3,1-1v-1c.69,0,1-.3,1-1v-1c.69,0,1-.3,1-1v-1c.69,0,1-.3,1-1v-1c.69,0,1-.3,1-1v-1c.69,0,1-.3,1-1a2.5,2.5,0,0,1,1.65-1.85c.46,1,.9,1.92,1.35,2.85,0,.7.3,1,1,1v1c0,.7.3,1,1,1v1c-.7,0-1,.31-1,1h-1c-.15-.75.49-1.91-1-2v-1c-.11-.27-.18-.75-.34-.79-.6-.14-.7.31-.66.79-.7,0-1,.31-1,1v1c-.7,0-1,.31-1,1v1c-.7,0-1,.31-1,1-1.5.09-.85,1.25-1,2v1c-1.5.09-.85,1.25-1,2-1.5.09-.85,1.25-1,2-1.5.09-.85,1.25-1,2-.7,0-1,.31-1,1v1c-.7,0-1,.31-1,1-.7,0-1,.31-1,1h-3v-2h-2c-.15-.75.49-1.91-1-2h-1v-1a.85.85,0,0,0-1-1,.85.85,0,0,0-1-1,.85.85,0,0,0-1-1c-1-1.41-2-2.83-3.2-4.6-.77,1.54-1.29,2.57-1.8,3.6l-2,1Z"/><path class="cls-46" d="M57.26,27.68h1v2c-1.5.09-.85,1.25-1,2v1a.77.77,0,0,0-1,.77c-.06,1.28,0,2.57,0,3.82.79.43,1,1.46,2,1.41.33.67.66,1.34,1,2,.08,1.5,1.24.85,2,1,0,.7.3,1,1,1h6c.69,0,1-.3,1-1,.69,0,1-.3,1-1h2v1c-.7,0-1,.31-1,1-.7,0-1,.31-1,1h-1c-.76.15-1.92-.49-2,1h-5a.85.85,0,0,0-1-1h-1a.85.85,0,0,0-1-1h-1l-2-3a.85.85,0,0,0-1-1v-8c.69,0,1-.3,1-1v-1C57,28.71,57.28,28.38,57.26,27.68Z"/><path class="cls-47" d="M96.26,51.68v1c0,.7.3,1,1,1,0,.7.3,1,1,1,.66,1.34,1.33,2.67,2,4,0,.7.3,1,1,1v1c0,.7.3,1,1,1,0,.7.3,1,1,1-1.05,2,1.4,1.69,2.36,3h-3.36a.85.85,0,0,0-1-1c-.34-.66-.67-1.33-1-2a.85.85,0,0,0-1-1,.85.85,0,0,0-1-1,.85.85,0,0,0-1-1v-1a.85.85,0,0,0-1-1v-1a.85.85,0,0,0-1-1c-.38-1,.92-2.53-1-3v-1Z"/><path class="cls-48" d="M100.26,32.68v2c-.7,0-1,.31-1,1l-2,1c-.7,0-1,.31-1,1-1.45-.08-2.85,0-3.93,1-2.9-1.48-6.57-1.53-8.07-5,.08-1.49,1.24-.85,2-1a2.43,2.43,0,0,0,2.76,2c.68,0,1.31.06,1.24,1a2.47,2.47,0,0,0,4,0h1c.69,0,1-.3,1-1h1c.69,0,1-.3,1-1,.69,0,1-.3,1-1Z"/><path class="cls-49" d="M72.26,40.68h-2c.66-1,1.33-2,2-3,.69,0,1-.3,1-1,0-.94,0-1.88,0-2.82,0-.68-.14-1.24-1-1.18a4.62,4.62,0,0,0-2-4v-1c.69,0,1-.3,1-1,2.27.92,3.06,3,4,5-.89-.06-1,.52-1,1.2v6.8c-.7,0-1,.31-1,1Z"/><path class="cls-50" d="M102.26,65.68h3.36c-1-1.31-3.41-1-2.36-3,.83-.18.92.8,1.61.9.16-2.23,2.73-2.89,3.39-4.9.69,0,1-.3,1-1h2v1c-.7,0-1,.31-1,1v2c-.7,0-1,.31-1,1-.7,0-1,.31-1,1a2.47,2.47,0,0,0-2,3h-4Z"/><path class="cls-51" d="M126.26,30.68h2a.77.77,0,0,1,1,.77c0,1.79,0,3.59,0,5.45-1.07,1.16-.94,3.33-3,3.78h-2v-1c.69,0,1-.3,1-1,.59.12.86-.25,1-.72C127.08,34.82,127.07,33.92,126.26,30.68Z"/><path class="cls-52" d="M74.26,36.68v-3.8c0-.68.11-1.26,1-1.2v5Z"/><path class="cls-53" d="M74.26,36.68h1c-.15.76.49,1.92-1,2Z"/><path class="cls-54" d="M124.26,40.68h2c0,.7-.31,1-1,1S124.23,41.38,124.26,40.68Z"/><path class="cls-55" d="M67.26,44.68c.08-1.49,1.24-.85,2-1v1Z"/><path class="cls-56" d="M115.26,43.68c.75.15,1.91-.49,2,1C116.5,44.53,115.34,45.18,115.26,43.68Z"/><path class="cls-56" d="M120.26,44.68c.08-1.49,1.24-.85,2-1C122.17,45.18,121,44.53,120.26,44.68Z"/><path class="cls-57" d="M96.26,51.68h-2c0-.69.3-1,1-1A.85.85,0,0,1,96.26,51.68Z"/><path class="cls-58" d="M80.26,63.68c0,.49-.07.93-.67.8-.16,0-.22-.52-.33-.8Z"/><path class="cls-59" d="M81.26,62.68c0,.7-.31,1-1,1C80.23,63,80.56,62.66,81.26,62.68Z"/><path class="cls-58" d="M79.26,63.68c-.7,0-1-.3-1-1A.85.85,0,0,1,79.26,63.68Z"/><path class="cls-50" d="M103.26,62.68c-.7,0-1-.3-1-1A.85.85,0,0,1,103.26,62.68Z"/><path class="cls-58" d="M78.26,62.68c-.7,0-1-.3-1-1A.85.85,0,0,1,78.26,62.68Z"/><path class="cls-50" d="M102.26,61.68c-.7,0-1-.3-1-1A.85.85,0,0,1,102.26,61.68Z"/><path class="cls-58" d="M77.26,61.68c-.7,0-1-.3-1-1A.85.85,0,0,1,77.26,61.68Z"/><path class="cls-58" d="M76.26,60.68c-.7,0-1-.3-1-1A.85.85,0,0,1,76.26,60.68Z"/><path class="cls-50" d="M101.26,59.68c-.7,0-1-.3-1-1A.85.85,0,0,1,101.26,59.68Z"/><path class="cls-59" d="M83.26,58.68c0,.7-.31,1-1,1C82.23,59,82.56,58.66,83.26,58.68Z"/><path class="cls-60" d="M109.26,57.68c0,.7-.31,1-1,1C108.23,58,108.56,57.66,109.26,57.68Z"/><path class="cls-60" d="M110.26,57.68h-1c0-.69.3-1,1-1Z"/><path class="cls-58" d="M74.26,57.68c-.7,0-1-.3-1-1A.85.85,0,0,1,74.26,57.68Z"/><path class="cls-59" d="M85.26,55.68c0,.7-.31,1-1,1C84.23,56,84.56,55.66,85.26,55.68Z"/><path class="cls-60" d="M111.26,54.68c0,.7-.31,1-1,1C110.23,55,110.56,54.66,111.26,54.68Z"/><path class="cls-60" d="M112.26,53.68c0,.7-.31,1-1,1C111.23,54,111.56,53.66,112.26,53.68Z"/><path class="cls-57" d="M98.26,54.68c-.7,0-1-.3-1-1A.85.85,0,0,1,98.26,54.68Z"/><path class="cls-59" d="M85.26,53.68h1c0,.7-.31,1-1,1Z"/><path class="cls-57" d="M97.26,53.68c-.7,0-1-.3-1-1A.85.85,0,0,1,97.26,53.68Z"/><path class="cls-60" d="M113.26,51.68c0,.7-.31,1-1,1C112.23,52,112.56,51.66,113.26,51.68Z"/><path class="cls-59" d="M86.26,52.68v-1h1C87.28,52.38,87,52.71,86.26,52.68Z"/><path class="cls-60" d="M114.26,50.68c0,.7-.31,1-1,1C113.23,51,113.56,50.66,114.26,50.68Z"/><path class="cls-59" d="M88.26,49.68c0,.7-.31,1-1,1C87.23,50,87.56,49.66,88.26,49.68Z"/><path class="cls-59" d="M95.26,49.68c-.7,0-1-.3-1-1A.85.85,0,0,1,95.26,49.68Z"/><path class="cls-59" d="M89.26,47.68c0,.7-.31,1-1,1C88.23,48,88.56,47.66,89.26,47.68Z"/><path class="cls-59" d="M94.26,47.68c-.7,0-1-.3-1-1A.85.85,0,0,1,94.26,47.68Z"/><path class="cls-59" d="M90.26,45.68c0,.7-.31,1-1,1C89.23,46,89.56,45.66,90.26,45.68Z"/><path class="cls-56" d="M123.26,43.68c0-.69.3-1,1-1C124.28,43.38,124,43.71,123.26,43.68Z"/><path class="cls-56" d="M113.26,42.68a.85.85,0,0,1,1,1C113.56,43.71,113.23,43.38,113.26,42.68Z"/><path class="cls-55" d="M70.26,43.68c0-.69.3-1,1-1C71.28,43.38,71,43.71,70.26,43.68Z"/><path class="cls-55" d="M71.26,42.68c0-.69.3-1,1-1C72.28,42.38,72,42.71,71.26,42.68Z"/><path class="cls-55" d="M72.26,40.68h1c0,.7-.31,1-1,1Z"/><path class="cls-55" d="M73.26,40.68c0-.69.3-1,1-1C74.28,40.38,74,40.71,73.26,40.68Z"/><path class="cls-12" d="M109.26,38.68a.85.85,0,0,1,1,1C109.56,39.71,109.23,39.38,109.26,38.68Z"/><path class="cls-15" d="M96.26,37.68c0-.69.3-1,1-1C97.28,37.38,97,37.71,96.26,37.68Z"/><path class="cls-15" d="M99.26,35.68c0-.69.3-1,1-1C100.28,35.38,100,35.71,99.26,35.68Z"/><path class="cls-49" d="M71.26,26.68c-.7,0-1-.3-1-1A.85.85,0,0,1,71.26,26.68Z"/><path class="cls-61" d="M42.26,52.68h-2v-2h1c.69,0,1-.3,1-1v-1c.69,0,1-.3,1-1h1v2c-.7,0-1,.31-1,1Z"/><ellipse class="cls-62" cx="44.76" cy="48.68" rx="0.71" ry="1.41"/><path class="cls-63" d="M64.26,56.68v2h-1C63.41,57.93,62.76,56.77,64.26,56.68Z"/><path class="cls-64" d="M50.26,58.68c-.76-.15-1.92.5-2-1C49,57.83,50.17,57.19,50.26,58.68Z"/><path class="cls-63" d="M63.26,59.68c-.15.76.49,1.92-1,2C62.41,60.93,61.76,59.77,63.26,59.68Z"/><path class="cls-64" d="M55.26,61.68c-.76-.15-1.92.5-2-1C54,60.83,55.17,60.19,55.26,61.68Z"/><path class="cls-63" d="M58.26,63.68c-.76-.15-1.92.5-2-1C57,62.83,58.17,62.19,58.26,63.68Z"/><path class="cls-63" d="M62.26,62.68c-.15.76.49,1.92-1,2C61.41,63.93,60.76,62.77,62.26,62.68Z"/><path class="cls-63" d="M61.26,64.68c.07.94-.57,1.06-1.25,1a.77.77,0,0,1-.75-1Z"/><path class="cls-63" d="M59.26,64.68c-.7,0-1-.3-1-1A.85.85,0,0,1,59.26,64.68Z"/><path class="cls-64" d="M56.26,62.68c-.7,0-1-.3-1-1A.85.85,0,0,1,56.26,62.68Z"/><path class="cls-64" d="M52.26,59.68c-.7,0-1-.3-1-1A.85.85,0,0,1,52.26,59.68Z"/><path class="cls-62" d="M43.26,50.68c0-.69.3-1,1-1C44.28,50.38,44,50.71,43.26,50.68Z"/><path class="cls-55" d="M61.26,43.68a.85.85,0,0,1,1,1C61.56,44.71,61.23,44.38,61.26,43.68Z"/><path class="cls-55" d="M59.26,42.68a.85.85,0,0,1,1,1C59.56,43.71,59.23,43.38,59.26,42.68Z"/><path class="cls-16" d="M55.26,36.68h-1V33.86c0-.68.13-1.24,1-1.18Z"/><path class="cls-16" d="M56.26,29.68c0,.7-.31,1-1,1C55.23,30,55.56,29.66,56.26,29.68Z"/><path class="cls-65" d="M45.26,47.68h-1v-4a.85.85,0,0,0-1-1c-.15-.75.49-1.91-1-2v-1a.85.85,0,0,0-1-1,.85.85,0,0,0-1-1v-1h2c0,.7.3,1,1,1,1.49.09.85,1.25,1,2,0,.7.3,1,1,1v7Z"/><path class="cls-66" d="M45.26,47.68v-6A4.78,4.78,0,0,1,45.26,47.68Z"/><path class="cls-67" d="M41.26,36.68h-2v-1h2Z"/><path class="cls-66" d="M45.26,40.68c-.7,0-1-.3-1-1A.85.85,0,0,1,45.26,40.68Z"/><path class="cls-68" d="M43.26,37.68c-.7,0-1-.3-1-1A.85.85,0,0,1,43.26,37.68Z"/><path class="cls-68" d="M41.26,36.68v-1a.85.85,0,0,1,1,1Z"/><circle class="cls-13" cx="39.76" cy="35.18" r="0.71"/><path class="cls-69" d="M111.26,33.68c-.1-2,.09-3.83,2-5h1v4c.12,2-.29,4.06.27,6h1.73c.11.6-.27,1.28.51,2h5.49v1h-7a.85.85,0,0,0-1-1c-2.1-.51-2-2.7-3-4Z"/><path class="cls-70" d="M122.26,40.68h-5.49c-.78-.72-.4-1.4-.51-2,.15-.81-.73-1-1.07-1.84l7.07-.33V34.68h2v4c-.62.22-1.58-.52-1.87.64.56.66,1.26.24,1.87.36v1h-2Z"/><path class="cls-56" d="M116.26,41.68h5A3.43,3.43,0,0,1,116.26,41.68Z"/><path class="cls-12" d="M111.26,33.68v3c-1.93-.47-.62-2-1-3Z"/><path class="cls-56" d="M122.26,40.68h1c0,.7-.31,1-1,1Z"/><path class="cls-56" d="M114.26,40.68a.85.85,0,0,1,1,1C114.56,41.71,114.23,41.38,114.26,40.68Z"/><path class="cls-71" d="M95.26,20.68h1a2.47,2.47,0,0,1,2,2v1l-2,1c-.11-.6.27-1.28-.51-2H90.26v-2Z"/><path class="cls-72" d="M98.26,23.68v-1a4.62,4.62,0,0,1,2,4v4c-1.5.09-.85,1.25-1,2h-1v-9Z"/><path class="cls-15" d="M99.26,32.68c.15-.75-.5-1.91,1-2v2Z"/><path class="cls-14" d="M100.26,27.68v-1c.48,0,.93.07.79.67C101,27.51,100.53,27.57,100.26,27.68Z"/><path class="cls-73" d="M70.26,27.68v3c-.62-.13-1.34.32-1.86-.34-.26-.55,0-1.33-.27-1.46H62.71a14,14,0,0,1-4.45,4.31v3.49c-.87.07-1-.49-1-1.17V31.68c1.49-.08.85-1.24,1-2,.69,0,1-.3,1-1,.69,0,1-.3,1-1,.75-.15,1.91.5,2-1h6c0,.7.3,1,1,1Z"/><path class="cls-16" d="M62.26,26.68c-.09,1.5-1.25.85-2,1C60.34,26.19,61.5,26.83,62.26,26.68Z"/><path class="cls-16" d="M59.26,28.68c0,.7-.31,1-1,1v-1Z"/><path class="cls-16" d="M60.26,27.68c0,.7-.31,1-1,1C59.23,28,59.56,27.66,60.26,27.68Z"/><path class="cls-49" d="M69.26,27.68c-.7,0-1-.3-1-1A.85.85,0,0,1,69.26,27.68Z"/><path class="cls-74" d="M85.26,30.68c-.7,0-1-.3-1-1,0-2.21-.4-4.57,2-6v4c-.28.11-.76.18-.8.34-.13.6.31.7.8.66v1C85.56,29.66,85.23,30,85.26,30.68Z"/><path class="cls-75" d="M86.26,25.68v-3a2.46,2.46,0,0,0,2-2h1v2c-1.7.32-1,2.25-2,3Z"/><path class="cls-6" d="M88.26,20.68a2.46,2.46,0,0,1-2,2v-2Z"/><path class="cls-76" d="M30.26,38.68c0-.69.3-1,1-1s1-.3,1-1h7c0,.7.3,1,1,1v1h-10Z"/><path class="cls-77" d="M28.26,40.68a2.46,2.46,0,0,1,2-2v2Z"/><path class="cls-13" d="M36.26,36.68h-2c-.08-.94.57-1,1.24-1A.78.78,0,0,1,36.26,36.68Z"/><path class="cls-13" d="M32.26,36.68c0,.7-.31,1-1,1C31.23,37,31.56,36.66,32.26,36.68Z"/><path class="cls-78" d="M95.26,20.68h-5A3.45,3.45,0,0,1,95.26,20.68Z"/><ellipse class="cls-79" cx="89.76" cy="21.68" rx="0.71" ry="1.41"/><path class="cls-10" d="M115.26,26.68a6.4,6.4,0,0,1,7,0Z"/><path class="cls-10" d="M122.26,26.68c.75.15,1.91-.49,2,1C123.5,27.53,122.34,28.18,122.26,26.68Z"/><path class="cls-17" d="M114.26,27.68v-1h1C115.28,27.38,115,27.71,114.26,27.68Z"/><path class="cls-17" d="M114.26,28.68h-1c0-.69.3-1,1-1Z"/><path class="cls-80" d="M98.26,30.68v3c-.7,0-1,.31-1,1h-1c-.7,0-1,.31-1,1h-5c.07-.93-.56-1-1.24-1a2.43,2.43,0,0,1-2.76-2v-1l2-1v2h8v-2Z"/><path class="cls-81" d="M85.26,30.68c0-.69.3-1,1-1v2C85.56,31.71,85.23,31.38,85.26,30.68Z"/><path class="cls-82" d="M124.26,36.68v-2c-.15-.8.71-1,.94-1.48-1.58-1.25-.72-3-.94-4.52l2,1v1c.81,3.24.82,4.14,0,7.28-.13.47-.4.84-1,.72C125.11,37.93,125.75,36.77,124.26,36.68Z"/><path class="cls-83" d="M114.26,28.68v-1c.69,0,1-.3,1-1h7c.08,1.5,1.24.85,2,1v1h-10Z"/><path class="cls-84" d="M127.26,150.68v6a.75.75,0,0,1-1-.76c0-1.68-1.15-1.15-2-1.24v-2c.27-.11.75-.17.79-.33.14-.6-.31-.7-.79-.67v-1a32.53,32.53,0,0,0-.06-4.94c-.22-1.43-2-2.7-.25-4.26,1.49-1.31-1.28-2.56,0-4.16.75-.93-.58-4.74-1.69-6.64-.13-.61.31-1.34-.54-2-2,0-4.27.52-6.19-.14a17.46,17.46,0,0,0-5.63-.85c-2.16,0-4.33,0-6.49,0H96.92c-2,0-4.34-.66-5.9.17-2.13,1.12-4.12.66-6.17.8s-4.32,0-6.48,0a34.8,34.8,0,0,1-5.61-.82c-1.75-.27-3.75,2-5.4-.3l-3.1,1.62v1.49a.76.76,0,0,0-1,.77c0,1.67-1.15,1.15-2,1.23.52-3.67-1.75-7.09-1-10.79-1.92-1.25.19-4-2-5.21-.27-1.5.73-3.28-1-4.47-.43-3.86-3.11-6.85-4-10.53h81c0,2.57-1.73,4.4-2.31,6.56-.75,2.82-1.34,5.71-2.2,8.52s-1.9,5.42-1.49,8.35c.2,1.38-1.5,2.15-1,3.57-1.62.48-1.17,2.24-2.06,3.13,1.75,2.14.8,4.6,1.06,6.87v10.77C126.26,150.13,126.33,150.75,127.26,150.68ZM62.57,122.5c-.72,2.1,1.52,3.38,1,5.24,1.11-1.19.65-2.46.65-3.65Z"/><path class="cls-85" d="M126.26,138.68c-.26-2.27.69-4.73-1.06-6.87.89-.89.44-2.65,2.06-3.13v8.76C127.26,138.12,127.19,138.75,126.26,138.68Z"/><path class="cls-85" d="M127.26,150.68c-.93.07-1-.55-1-1.23v-7.77c.88-.06,1,.52,1,1.2,0,1.27,0,2.54,0,3.8v4Z"/><ellipse class="cls-85" cx="127.76" cy="154.68" rx="0.71" ry="2.83"/><path class="cls-86" d="M131.26,85.68c0-.69.3-1,1-1v1Z"/><path class="cls-86" d="M132.26,83.68a.73.73,0,0,0-.59-.9c-.47.31-.67,1-1.41.9v-3c1.49-.08.85-1.24,1-2,1.49-.08.85-1.24,1-2,.69,0,1-.3,1-1v-1c1.69-.31,1-2.24,2-3v-2h1c1.49-.08.85-1.24,1-2v-1h1v3c.16,1.77-1.52,3.17-1,5-1.5.09-.85,1.25-1,2-1.81,2-3.17,4.17-3,7Z"/><path class="cls-87" d="M136.26,69.68h-2c-.61-.12-1.32.3-1.88-.38.1-1.13,1.45-.19,1.78-1.13,0-1.08.48-2.36-.37-3.49h-1.53v-2c.69,0,1-.3,1-1,1.27.49,1.93-.85,3-1h3v3c-.7,0-1,.31-1,1h-2v5Z"/><path class="cls-88" d="M139.26,63.68v-3h-3c.69-2.25,2.51-.1,4.13-2.08C140,61.12,141.09,62.62,139.26,63.68Z"/><path class="cls-89" d="M132.26,62.68v2h-2v-1c.69,0,1-.3,1-1Z"/><path class="cls-88" d="M138.26,64.68c0-.69.3-1,1-1-.15.76.49,1.92-1,2Z"/><path class="cls-88" d="M138.26,69.68v-1h1C139.28,69.38,139,69.71,138.26,69.68Z"/><path class="cls-88" d="M140.26,66.68c0,.7-.31,1-1,1C139.23,67,139.56,66.66,140.26,66.68Z"/><path class="cls-88" d="M138.26,66.68h-1c0-.69.3-1,1-1Z"/><path class="cls-88" d="M141.26,64.68v1h-1C140.23,65,140.56,64.66,141.26,64.68Z"/><path class="cls-19" d="M130.26,63.68v1h-1C129.23,64,129.56,63.66,130.26,63.68Z"/><path class="cls-88" d="M142.26,62.68c0,.7-.31,1-1,1C141.23,63,141.56,62.66,142.26,62.68Z"/><path class="cls-19" d="M131.26,62.68c0,.7-.31,1-1,1C130.23,63,130.56,62.66,131.26,62.68Z"/><path class="cls-19" d="M133.26,61.68c0,.7-.31,1-1,1C132.23,62,132.56,61.66,133.26,61.68Z"/><path class="cls-90" d="M117.26,53.68c0,.82-.35,1.92.06,2.39,1.66,1.94,1.73,4.52,2.94,6.61h-2c.54-2.27-2.53-2.16-2.51-4h-3.49v-2c.69,0,1-.3,1-1,.69,0,1-.3,1-1,.75-.15,1.91.5,2-1Z"/><path class="cls-91" d="M118.26,62.68h2v1c.38,1-.93,2.53,1,3,1.49.09.85,1.25,1,2,0,.7.3,1,1,1l2-1h1v2h-4c-2.09.61-2-2.36-4-2.27Z"/><path class="cls-92" d="M126.26,68.68h-1a2.46,2.46,0,0,1,3-2A2.46,2.46,0,0,1,126.26,68.68Z"/><path class="cls-93" d="M121.26,66.68c-1.93-.47-.62-2-1-3C122.18,64.15,120.88,65.7,121.26,66.68Z"/><path class="cls-94" d="M129.26,64.68h1v2h-2C128.59,66,128.92,65.35,129.26,64.68Z"/><path class="cls-95" d="M123.26,69.68c-.7,0-1-.3-1-1A.85.85,0,0,1,123.26,69.68Z"/><path class="cls-50" d="M112.26,56.68v1h-1C111.23,57,111.56,56.66,112.26,56.68Z"/><path class="cls-60" d="M113.26,55.68c0,.7-.31,1-1,1C112.23,56,112.56,55.66,113.26,55.68Z"/><path class="cls-60" d="M114.26,54.68c0,.7-.31,1-1,1C113.23,55,113.56,54.66,114.26,54.68Z"/><path class="cls-60" d="M116.26,53.68v-1a.85.85,0,0,1,1,1Z"/><path class="cls-60" d="M115.26,52.68c0,.7-.31,1-1,1C114.23,53,114.56,52.66,115.26,52.68Z"/><path class="cls-60" d="M116.26,52.68h-1c0-.48.06-.93.66-.79C116.08,51.93,116.15,52.41,116.26,52.68Z"/><path class="cls-96" d="M52.26,175.68c.15-.75-.5-1.91,1-2H55c.32,1.07.51,2.48,2.31,2.87v-1.87c1.65-.36.46,2.85,2.77,1.86.77-1.39-.39-3.34.63-4.83,1.43-.29,2.2,1.45,3.6,1h10c.13.62-.32,1.34.53,2h30.68a.83.83,0,0,0,.43-.15,2.88,2.88,0,0,0,.36-.33v-2.52c6.69-.78,13.31,1.33,20,1v-2c.81.16,1-.73,1.52-.93.5.11.6,1.3,1.43.51-.66-2.54-1.31-5.06-2-7.58-.15-.75.49-1.91-1-2v-1c.14-1.06,1.49-1.72,1-3h1v1c.38,1-.93,2.53,1,3,.38,1-.93,2.53,1,3v1c0,.7.3,1,1,1v1a.71.71,0,0,0-.88.49c.23.6,1,.75.87,1.52a.69.69,0,0,0-.88.59c0,.08.21.31.29.29a.69.69,0,0,0,.59-.88h1v1c-.06,1.26.4,2.65-1,3.55,1.09.32.68,1.85,1.31,2.33,1.36-.86-.31-2.67,1.66-2.88,2.35,3.52,4.62,7.1,7.11,10.52a6,6,0,0,0,2.91,2.53,5,5,0,0,1,3,3c-.13.62.31,1.34-.35,1.86-1.51-1.59-3.86,2-5.06-.87-1.35,1.65-3.13,1-4.68,1q-47.32.06-94.64,0c-1.16,0-2.33,0-3.49,0a.76.76,0,0,1-.78-1c.75-.15,1.91.5,2-1,1.86.15,3.15-1.55,5.22-1.1-.56-.92-1.35-1.11-1.22-1.9.69,0,1-.3,1-1l2,1a.7.7,0,0,0,.59.88c.08,0,.31-.21.3-.29a.7.7,0,0,0-.89-.59c-.13-.81.68-1,1-1.51-.3-.51-1.11-.69-1-1.5,0-.69.3-1,1-1s1-.3,1-1c1.49-.08.85-1.24,1-2h2ZM72,178.59a6.43,6.43,0,0,0,0-3.81H70.49a6.43,6.43,0,0,0,0,3.81Zm-7.75-.41a1.21,1.21,0,0,0-2,0A1.21,1.21,0,0,0,64.27,178.18Z"/><path class="cls-97" d="M38.26,189.68a.76.76,0,0,0,.78,1c1.16.06,2.33,0,3.49,0q47.32,0,94.64,0c1.55,0,3.33.67,4.68-1,1.2,2.85,3.55-.72,5.06.87.66-.52.22-1.24.35-1.86.75.15,1.91-.49,2,1a.7.7,0,0,0-.89.65c.88.51,1.65.74,1.89-.65,1.27-.49,1.93.86,3,1,.11.28.17.76.33.8.6.13.7-.31.67-.8,1.29.09,1.06.89.78,1.86H32.47c-.27-1-.51-1.77.79-1.86.11.28.17.76.33.8.6.13.7-.31.67-.8A5.39,5.39,0,0,1,38.26,189.68Z"/><path class="cls-98" d="M134.26,172.68c-2,.21-.3,2-1.66,2.88-.63-.48-.22-2-1.31-2.33,1.37-.9.91-2.29,1-3.55C134,170,133.23,171.93,134.26,172.68Z"/><path class="cls-97" d="M44.26,185.68c-.13.79.66,1,1.22,1.9-2.07-.45-3.36,1.25-5.22,1.1C40.77,186.59,43,186.73,44.26,185.68Z"/><path class="cls-97" d="M47.26,182.68c-.13.81.68,1,1,1.5-.3.51-1.11.7-1,1.5l-2-1v-1Z"/><path class="cls-98" d="M131.26,168.68c.14-.76-.65-.91-.88-1.51a.71.71,0,0,1,.88-.49c1.49.09.85,1.25,1,2Z"/><path class="cls-98" d="M130.26,163.68c-1.93-.47-.62-2-1-3C131.18,161.15,129.88,162.7,130.26,163.68Z"/><path class="cls-85" d="M129.26,160.68c-1.93-.47-.62-2-1-3C130.18,158.15,128.88,159.7,129.26,160.68Z"/><path class="cls-96" d="M150.26,189.68c-.24,1.39-1,1.16-1.89.65a.7.7,0,0,1,.89-.65Z"/><path class="cls-97" d="M40.26,188.68c-.09,1.5-1.25.85-2,1C38.34,188.19,39.5,188.83,40.26,188.68Z"/><path class="cls-98" d="M131.26,165.68c-.7,0-1-.3-1-1A.85.85,0,0,1,131.26,165.68Z"/><path class="cls-97" d="M45.26,184.68c0,.7-.31,1-1,1C44.23,185,44.56,184.66,45.26,184.68Z"/><path class="cls-96" d="M34.26,190.68c0,.49-.07.93-.67.8-.16,0-.22-.52-.33-.8Z"/><path class="cls-96" d="M159.26,190.68c0,.49-.07.93-.67.8-.16,0-.22-.52-.33-.8Z"/><path class="cls-36" d="M146.26,218.68v-4A2.48,2.48,0,0,1,146.26,218.68Z"/><path class="cls-36" d="M146.26,214.68c-.94.08-.94-.57-1-1.24a.78.78,0,0,0-1-.76v-1h2Z"/><path class="cls-31" d="M141.26,214.68v3C139.89,216.68,139.89,215.69,141.26,214.68Z"/><path class="cls-31" d="M144.26,211.68v1h-2C142.34,211.19,143.5,211.83,144.26,211.68Z"/><circle class="cls-36" cx="146.76" cy="211.18" r="0.71"/><path class="cls-31" d="M142.26,212.68c0,.7-.31,1-1,1C141.23,213,141.56,212.66,142.26,212.68Z"/><path class="cls-99" d="M45.18,219.18c.82-.65,1.37-.69,2-.14C46.72,220.12,46.09,219.83,45.18,219.18Z"/><path class="cls-32" d="M72.26,216.68c0-.69.3-1,1-1C73.28,216.38,73,216.71,72.26,216.68Z"/><path class="cls-23" d="M71.27,223.18c.32-.46.65-.46,1,0C71.92,223.65,71.59,223.65,71.27,223.18Z"/><path class="cls-23" d="M63.26,213.68h1v6.78c0,.68-.08,1.29-1,1.22Z"/><path class="cls-100" d="M125.26,86.68h-69v-1c.75-.15,1.91.5,2-1h32a.77.77,0,0,0,.79,1q15.21,0,30.42,0a.78.78,0,0,0,.79-1h4c.08,1.5,1.24.85,2,1v1h-3Z"/><path class="cls-101" d="M57.26,86.68h67c-.18,1.68-1.49,1-2.29,1-8.33,0-16.65,0-25,0-12.49,0-25,0-37.45,0C58.75,87.65,57.43,88.36,57.26,86.68Z"/><path class="cls-102" d="M128.26,85.68c-.76-.15-1.92.5-2-1,.61-.12,1.32.31,1.81-.3.62-1.19-.42-2.64.67-3.7h1.52v1c-.28.11-.76.18-.8.34-.13.6.31.7.8.66v1c-1.5.09-.85,1.25-1,2Z"/><path class="cls-44" d="M53.26,84.68v-5h1v5Z"/><path class="cls-103" d="M54.26,84.68v-1h1v3C53.76,86.6,54.41,85.44,54.26,84.68Z"/><path class="cls-86" d="M129.26,85.68c.15-.75-.5-1.91,1-2C130.11,84.44,130.75,85.6,129.26,85.68Z"/><path class="cls-101" d="M127.26,86.68h1c0,.49-.07.93-.67.8C127.43,87.44,127.37,87,127.26,86.68Z"/><path class="cls-101" d="M125.26,86.68h1c0,.49-.07.93-.67.8C125.43,87.44,125.37,87,125.26,86.68Z"/><circle class="cls-104" cx="55.76" cy="86.18" r="0.71"/><path class="cls-105" d="M64.26,63.68v-2c1.69-.31,1-2.24,2-3h4v2h2v2h2v2c-1,.38-2.53-.92-3,1-2.1-.19-.16-2.42-1.75-3.09-1.64.42-1.88,2.49-3.46,3,.42,1.49,3.13.74,1.84,3.15H64.58c-.45.86-.15,1.63-.88,2H62.26v-3c1.49-.08.85-1.24,1-2C64.75,65.6,64.11,64.44,64.26,63.68Z"/><path class="cls-106" d="M48.26,60.68h1a.77.77,0,0,0,.76,1c.67.08,1.31.08,1.24,1-1,.38-2.53-.92-3,1h-1c-.15-.75.49-1.91-1-2v-1Z"/><path class="cls-107" d="M57.26,66.68h1v2h-4v-2Z"/><path class="cls-63" d="M66.26,58.68c-1,.76-.31,2.69-2,3v-3l2-1Z"/><path class="cls-64" d="M51.26,62.68c.07-.94-.57-.94-1.24-1a.77.77,0,0,1-.76-1h3v2Z"/><path class="cls-108" d="M57.26,66.68h-3v-1h2A.85.85,0,0,1,57.26,66.68Z"/><path class="cls-41" d="M48.26,60.68h-2c-.08-.94.57-1,1.24-1A.78.78,0,0,1,48.26,60.68Z"/><path class="cls-41" d="M46.26,61.68c1.49.09.85,1.25,1,2C45.76,63.6,46.41,62.44,46.26,61.68Z"/><path class="cls-63" d="M52.26,62.68c.75.15,1.91-.49,2,1h-2Z"/><path class="cls-63" d="M64.26,63.68c-.15.76.49,1.92-1,2C63.41,64.93,62.76,63.77,64.26,63.68Z"/><path class="cls-63" d="M63.26,65.68c-.15.76.49,1.92-1,2C62.41,66.93,61.76,65.77,63.26,65.68Z"/><path class="cls-63" d="M62.26,67.68v2h-1v-1C61.23,68,61.56,67.66,62.26,67.68Z"/><path class="cls-109" d="M61.26,68.68v1c-.76-.15-1.92.5-2-1h2Z"/><path class="cls-63" d="M60.26,68.68h-1v-1A.85.85,0,0,1,60.26,68.68Z"/><path class="cls-63" d="M58.26,67.68v-1a.85.85,0,0,1,1,1Z"/><path class="cls-63" d="M56.26,65.68h-1v-1A.85.85,0,0,1,56.26,65.68Z"/><circle class="cls-106" cx="48.76" cy="65.18" r="0.71"/><path class="cls-63" d="M54.26,63.68a.85.85,0,0,1,1,1h-1Z"/><path class="cls-41" d="M47.26,63.68h1v1C47.56,64.71,47.23,64.38,47.26,63.68Z"/><path class="cls-41" d="M46.26,60.68v1c-.49,0-.93-.06-.8-.66C45.5,60.86,46,60.79,46.26,60.68Z"/><path class="cls-110" d="M41.26,50.68h-1c-.7,0-1,.31-1,1h-1c-.7,0-1,.31-1,1h-3a.85.85,0,0,0-1-1h-1v-1c2-.12,4.06.29,6-.27V48.68l.85-.33L38.4,47l1.86-.73V40.68h2v9C41.56,49.66,41.23,50,41.26,50.68Z"/><path class="cls-111" d="M28.26,48.68v-5l2-1c.18,1.34-.43,2.79.44,4h1.56v4h-2a.85.85,0,0,0-1-1A.85.85,0,0,0,28.26,48.68Z"/><path class="cls-112" d="M30.26,42.68l-2,1v-3h2v-2h4v2h-2c0-.49-.06-.86-.66-.83C31.15,40.8,30.7,41.74,30.26,42.68Z"/><ellipse class="cls-5" cx="25.76" cy="44.18" rx="0.71" ry="4.95"/><path class="cls-77" d="M28.26,42.68v3c-1.93-.47-.62-2-1-3Z"/><path class="cls-43" d="M30.26,50.68h2v1C31.5,51.53,30.34,52.18,30.26,50.68Z"/><path class="cls-43" d="M37.26,52.68c0-.69.3-1,1-1C38.28,52.38,38,52.71,37.26,52.68Z"/><path class="cls-43" d="M33.26,51.68a.85.85,0,0,1,1,1C33.56,52.71,33.23,52.38,33.26,51.68Z"/><path class="cls-43" d="M39.26,51.68c0-.69.3-1,1-1v1Z"/><path class="cls-43" d="M29.26,49.68a.85.85,0,0,1,1,1C29.56,50.71,29.23,50.38,29.26,49.68Z"/><path class="cls-43" d="M28.26,48.68a.85.85,0,0,1,1,1C28.56,49.71,28.23,49.38,28.26,48.68Z"/><path class="cls-5" d="M28.26,42.68h-1c0-.69.3-1,1-1Z"/><path class="cls-113" d="M48.26,64.68v-1c.47-1.92,2-.62,3-1,0,.7.3,1,1,1v9c-2.13-.25-.39-2.38-1.64-3.39a3.87,3.87,0,0,1-1.36-3.61c1.39-.24,1.16-1,.64-1.88a.69.69,0,0,0-.64.88Z"/><path class="cls-107" d="M52.26,72.68v-2h2v4c-.7,0-1,.31-1,1h-1Z"/><path class="cls-44" d="M52.26,75.68h1v4c-.87.07-1-.49-1-1.17Z"/><path class="cls-114" d="M83.26,64.68v-1h1c.69,0,1-.3,1-1h1v2c-.61.13-1.33-.3-1.82.3-.62,1.19.43,2.65-.67,3.7H82.26c-.81-.13-1,.7-1.74,1.09-.07-2.28-2.5-.18-3.19-1.72l.93-.37c1-.38,2.53.93,3-1,.69,0,1-.3,1-1C83,65.71,83.28,65.38,83.26,64.68Z"/><path class="cls-115" d="M66.26,58.68v-1c.51-1,1-2.06,1.8-3.6,1.23,1.77,2.21,3.19,3.2,4.6h-5Z"/><path class="cls-116" d="M74.26,62.68h-2v-2h1c0,.7.3,1,1,1Z"/><path class="cls-58" d="M76.26,64.68h2v2h-1a.85.85,0,0,0-1-1Z"/><path class="cls-58" d="M81.26,66.68c-.47,1.93-2,.62-3,1v-1Z"/><path class="cls-59" d="M91.26,49.68h-1c0-.69.3-1,1-1h1v1Z"/><path class="cls-59" d="M93.26,51.68c-.7,0-1-.3-1-1v-1C93.75,49.77,93.11,50.93,93.26,51.68Z"/><path class="cls-59" d="M93.26,52.68v-1h1v2h-1Z"/><path class="cls-59" d="M88.26,53.68c0-.69.3-1,1-1v2h-1Z"/><path class="cls-57" d="M88.26,53.68v2h-1C87.41,54.93,86.76,53.77,88.26,53.68Z"/><path class="cls-59" d="M86.26,58.68c.15-.75-.5-1.91,1-2v2Z"/><path class="cls-59" d="M85.26,60.68c.15-.75-.5-1.91,1-2v2Z"/><path class="cls-59" d="M84.26,62.68c.15-.75-.5-1.91,1-2v2Z"/><ellipse class="cls-117" cx="74.76" cy="63.68" rx="0.71" ry="1.41"/><path class="cls-58" d="M75.26,64.68v-2c1.49.09.85,1.25,1,2Z"/><path class="cls-58" d="M82.26,65.68c0,.7-.31,1-1,1C81.23,66,81.56,65.66,82.26,65.68Z"/><path class="cls-58" d="M83.26,64.68c0,.7-.31,1-1,1C82.23,65,82.56,64.66,83.26,64.68Z"/><path class="cls-58" d="M84.26,63.68h-1c0-.69.3-1,1-1Z"/><path class="cls-58" d="M74.26,61.68c-.7,0-1-.3-1-1A.85.85,0,0,1,74.26,61.68Z"/><path class="cls-58" d="M73.26,60.68h-1v-1A.85.85,0,0,1,73.26,60.68Z"/><path class="cls-58" d="M71.26,58.68a.85.85,0,0,1,1,1C71.56,59.71,71.23,59.38,71.26,58.68Z"/><circle class="cls-59" cx="87.76" cy="56.18" r="0.71"/><circle class="cls-59" cx="89.76" cy="52.18" r="0.71"/><path class="cls-57" d="M90.26,51.68h-1c0-.69.3-1,1-1Z"/><path class="cls-57" d="M92.26,48.68h-1c0-.48.06-.93.66-.79C92.08,47.93,92.15,48.41,92.26,48.68Z"/><path class="cls-73" d="M72.26,37.68c-.67,1-1.34,2-2,3-.7,0-1,.31-1,1-.7,0-1,.31-1,1h-6a.85.85,0,0,0-1-1c-.09-1.49-1.25-.85-2-1-.34-.66-.67-1.33-1-2v-2c.32,0,.83-.13,1,0,1,1.31,2.65,2,3.25,3.67,0,.13.23.21.16.15h5.43c.15-.61.26-1.06.38-1.5l1.66-.66c.59-1.18-.44-2.63.65-3.68h1.52v3Z"/><path class="cls-16" d="M58.26,36.68v2c-1,0-1.21-1-2-1.41,0-1.25,0-2.54,0-3.82a.77.77,0,0,1,1-.77v2.83C57.25,36.19,57.39,36.75,58.26,36.68Z"/><path class="cls-16" d="M58.26,29.68c-.15.76.49,1.92-1,2C57.41,30.93,56.76,29.77,58.26,29.68Z"/><path class="cls-55" d="M59.26,40.68c.75.15,1.91-.49,2,1C60.5,41.53,59.34,42.18,59.26,40.68Z"/><path class="cls-55" d="M68.26,42.68c0-.69.3-1,1-1C69.28,42.38,69,42.71,68.26,42.68Z"/><path class="cls-55" d="M61.26,41.68a.85.85,0,0,1,1,1C61.56,42.71,61.23,42.38,61.26,41.68Z"/><path class="cls-55" d="M69.26,41.68c0-.69.3-1,1-1C70.28,41.38,70,41.71,69.26,41.68Z"/><path class="cls-16" d="M56.26,39.68c-.7,0-1-.3-1-1A.85.85,0,0,1,56.26,39.68Z"/><path class="cls-118" d="M93.26,53.68h1v2c0,.7.3,1,1,1h1v4H94.72l-.9-2c-1.16,0-2.36.25-3.21-1.3-.29,1.63-1.4,1.26-2.35,1.29v-2h2v-4h2c.2.62-.52,1.57.65,1.87Z"/><path class="cls-118" d="M97.26,59.68a.85.85,0,0,1,1,1v4h-2v-4C97,60.71,97.28,60.38,97.26,59.68Z"/><path class="cls-119" d="M98.26,64.68v-2h2c.33.67.66,1.34,1,2,0,.7.3,1,1,1v1h-2v-2Z"/><path class="cls-57" d="M94.26,55.68v-3c1.92.47.62,2,1,3Z"/><path class="cls-120" d="M97.26,59.68c0,.7-.31,1-1,1v-2h1Z"/><path class="cls-50" d="M102.26,65.68c-.7,0-1-.3-1-1A.85.85,0,0,1,102.26,65.68Z"/><path class="cls-50" d="M100.26,62.68h-1v-1A.85.85,0,0,1,100.26,62.68Z"/><path class="cls-50" d="M98.26,61.68v-1a.85.85,0,0,1,1,1Z"/><path class="cls-57" d="M97.26,58.68h-1v-1A.85.85,0,0,1,97.26,58.68Z"/><path class="cls-57" d="M96.26,56.68h-1v-1A.85.85,0,0,1,96.26,56.68Z"/><path class="cls-15" d="M90.26,35.68h4A2.47,2.47,0,0,1,90.26,35.68Z"/><path class="cls-15" d="M95.26,35.68c0-.69.3-1,1-1C96.28,35.38,96,35.71,95.26,35.68Z"/><path class="cls-15" d="M97.26,34.68c0-.69.3-1,1-1C98.28,34.38,98,34.71,97.26,34.68Z"/><path class="cls-15" d="M98.26,33.68v-1h1C99.28,33.38,99,33.71,98.26,33.68Z"/><path class="cls-121" d="M70.26,30.68v-2a4.62,4.62,0,0,1,2,4h-2Z"/><path class="cls-121" d="M72.26,36.68v-4c.86-.06,1,.5,1,1.18,0,.94,0,1.88,0,2.82Z"/><path class="cls-53" d="M72.26,36.68h1c0,.7-.31,1-1,1Z"/><path class="cls-122" d="M98.26,64.68h2v2c.12.62-.31,1.33.54,2,2.36-.08,4.93.14,7.46-.13V66.68h2v-6h2v-2h3.49c0,1.84,3,1.73,2.51,4v5.73c2-.09,1.91,2.88,4,2.27v4c-1.27.17-1.62,1.55-3.19,2.23h-8.66v3.47c.66.48,1.47.1,1.85.83v1.47h-4V74.84c2.26,0,2.18-2.66,4.13-2.66-.33-.92.23-1.84-.61-2.47a2.81,2.81,0,0,1-2.57,1c-4,0-8,0-12,0-.28,0-.56.24-.92.4,0,.42.06.87.09,1.27,1.59.82,3.35-.26,4.76.65.24.6-.22,1.41.75,1.52l.73-1.75h3.75c-.45,1.33.43,2.6-.49,3.76H96.54l-.6-1.72c-3.65-.68-7.36.84-11.07-1.35-.5,1.42-3,.74-2.89,3-1.28.15-2.55.48-3.72-.28V74.68a.69.69,0,0,0,.87-.49c-.22-.6-1-.75-.87-1.51h5.67c.47-1,.41-1.53-.19-2H82.26v-2h1.51c1.1-1.05,0-2.51.67-3.7.49-.6,1.21-.17,1.82-.3s1.28.27,2-.51V58.68c.95,0,2.06.34,2.35-1.29.85,1.55,2,1.29,3.21,1.3l.9,2h1.54v4Zm-6.07-1.9c.13.86-.14,1.39.45,1.76a1.22,1.22,0,0,0,1.62-.36C93.84,63,93.84,63,92.19,62.78Z"/><path class="cls-123" d="M108.26,66.68v1.88c-2.53.27-5.1,0-7.46.13-.85-.68-.42-1.39-.54-2h8Z"/><path class="cls-123" d="M110.26,62.68v4h-2v-3c0-.69.3-1,1-1Z"/><path class="cls-124" d="M108.26,63.68v3h-2A2.47,2.47,0,0,1,108.26,63.68Z"/><path class="cls-125" d="M112.26,58.68v2h-2v-1c.69,0,1-.3,1-1Z"/><path class="cls-126" d="M110.26,62.68h-1c0-.69.3-1,1-1Z"/><path class="cls-60" d="M111.26,58.68c0,.7-.31,1-1,1C110.23,59,110.56,58.66,111.26,58.68Z"/><circle class="cls-60" cx="111.76" cy="58.18" r="0.71"/><path class="cls-56" d="M124.26,39.68c-.61-.12-1.31.3-1.87-.36.29-1.16,1.25-.42,1.87-.64h1C125.28,39.38,125,39.71,124.26,39.68Z"/><ellipse class="cls-62" cx="43.76" cy="45.68" rx="0.71" ry="2.83"/><path class="cls-62" d="M41.26,50.68c0-.69.3-1,1-1C42.28,50.38,42,50.71,41.26,50.68Z"/><path class="cls-62" d="M42.26,48.68v-1h1C43.28,48.38,43,48.71,42.26,48.68Z"/><path class="cls-127" d="M43.26,47.68h-1v-7c1.49.09.85,1.25,1,2v5Z"/><path class="cls-127" d="M42.26,40.68h-2v-2h1c0,.7.3,1,1,1Z"/><path class="cls-66" d="M43.26,43.68v-1a.85.85,0,0,1,1,1Z"/><path class="cls-68" d="M42.26,39.68c-.7,0-1-.3-1-1A.85.85,0,0,1,42.26,39.68Z"/><path class="cls-68" d="M41.26,38.68h-1v-1A.85.85,0,0,1,41.26,38.68Z"/><path class="cls-68" d="M40.26,37.68c-.7,0-1-.3-1-1h1Z"/><path class="cls-128" d="M114.26,28.68h8v6c-1.27-.17-2.6.33-3.77-.21-.37-.64,0-1.43-.79-1.79h-3.44Z"/><path class="cls-129" d="M114.26,32.68h3.44c.74.36.42,1.15.79,1.79,1.17.54,2.5,0,3.77.21v1.83l-7.07.33c.34.87,1.22,1,1.07,1.84h-1.73C114,36.74,114.38,34.69,114.26,32.68Z"/><path class="cls-130" d="M122.26,34.68v-6h2c.22,1.52-.64,3.27.94,4.52-.23.5-1.09.68-.94,1.48Z"/><path class="cls-131" d="M125.26,38.68h-1v-2C125.75,36.77,125.11,37.93,125.26,38.68Z"/><path class="cls-132" d="M90.26,22.68h5.49c.78.72.4,1.4.51,2h-6Z"/><path class="cls-133" d="M98.26,23.68v3h-2v-2Z"/><path class="cls-134" d="M96.26,24.68v2h2v4h-2c-.11-.6.27-1.28-.51-2H90.26v-4Z"/><path class="cls-135" d="M72.26,32.68v2H70.74c-1.09,1-.06,2.5-.65,3.68L68.43,39c-.12.44-.23.89-.38,1.5H62.62c.07.06-.12,0-.16-.15-.6-1.65-2.26-2.36-3.25-3.67-.12-.15-.63,0-1,0V33.19a14,14,0,0,0,4.45-4.31h5.42c.31.13,0,.91.27,1.46.52.66,1.24.21,1.86.34v2Z"/><path class="cls-136" d="M90.26,24.68v5.55l2,.91v1.54h-4v-3a.85.85,0,0,0-1-1h-1v-2h1c.27-.11.75-.17.79-.33.14-.6-.31-.7-.79-.67,1-.75.3-2.68,2-3h1Z"/><path class="cls-137" d="M88.26,29.68v1l-2,1v-3h1C87.23,29.38,87.56,29.71,88.26,29.68Z"/><path class="cls-138" d="M86.26,27.68v1c-.49,0-.93-.06-.8-.66C85.5,27.86,86,27.79,86.26,27.68Z"/><circle class="cls-139" cx="86.76" cy="26.18" r="0.71"/><path class="cls-140" d="M32.26,40.68h2v-2h1c.14,1,1,1.47,1.69,2h3.31v5.61L38.4,47l.71,1.33-.85.33c-1.5-.08-.85-1.24-1-2,.05-1-1-1.2-1.47-2.1-1.1.53-2.45-.57-3.53.62v1.48H30.7c-.87-1.21-.26-2.66-.44-4h2Z"/><path class="cls-112" d="M40.26,40.68H37c-.71-.53-1.55-1-1.69-2h5Z"/><path class="cls-141" d="M92.26,32.68V31.14l-2-.91V28.68h5.49c.78.72.4,1.4.51,2v2Z"/><path class="cls-142" d="M126.26,159.68v6c-.67-.33-1.34-.66-2-1a6,6,0,0,0,0-2,26,26,0,0,1-2-10c0-.67-.62-1.37-.95-2,0-6.08,0-12.16,0-18.24,0-.72.36-1.75-1-1.76h-4c-.11-.27-.18-.75-.34-.79-.6-.14-.7.31-.66.79h-1a3.45,3.45,0,0,0-5,0h-3a.76.76,0,0,0-.79-1q-17.22,0-34.42,0a.76.76,0,0,0-.79,1h-2c-1.34,0-1,1-1,1.75,0,4.08,0,8.17,0,12.25.42,2.45-1.76,4.51-1,7-1.34,0-.94,1-1,1.75s-.06,1.33-1,1.25v-4.47c0-1.33-.06-2.66,0-4s-.47-2.9,1-4.1-1.66-2.16-.31-3.8c.67-.81.06-2.56.39-3.78s1.8-2.39.44-3.87H64.26v-1.49l3.1-1.62c1.65,2.26,3.65,0,5.4.3a34.8,34.8,0,0,0,5.61.82c2.16,0,4.33.11,6.48,0s4,.32,6.17-.8c1.56-.83,3.9-.17,5.9-.17h6.49c2.16,0,4.33,0,6.49,0a17.46,17.46,0,0,1,5.63.85c1.92.66,4.23.14,6.19.14.85.66.41,1.39.54,2,0,4.75,0,9.5,0,14.25a7.73,7.73,0,0,0,2,5.75v4C124.16,156.65,124.35,158.51,126.26,159.68Z"/><path class="cls-143" d="M64.26,130.68h1.49c1.36,1.48-.09,2.57-.44,3.87s.28,3-.39,3.78c-1.35,1.64,1.73,2.61.31,3.8s-.89,2.69-1,4.1,0,2.65,0,4v6.47h-2v2a.76.76,0,0,1-1-.74,2.45,2.45,0,0,0-2-2.26c-.53-2,1.16-3.55,1.06-5.54a9.72,9.72,0,0,1,.75-5.14c.85-1.73.19-4.21.19-6.36v-6c.87-.08,2.07.44,2-1.23A.76.76,0,0,1,64.26,130.68Z"/><path class="cls-85" d="M124.26,150.68a7.73,7.73,0,0,1-2-5.75c0-4.75,0-9.5,0-14.25,1.11,1.9,2.44,5.71,1.69,6.64-1.28,1.6,1.49,2.85,0,4.16-1.76,1.56,0,2.83.25,4.26A32.53,32.53,0,0,1,124.26,150.68Z"/><path class="cls-85" d="M126.26,159.68c-1.91-1.17-2.1-3-2-5,.87.09,2.07-.44,2,1.24a.75.75,0,0,0,1,.76C127.75,158,126.4,158.62,126.26,159.68Z"/><path class="cls-144" d="M62.57,122.5l1.6,1.59c0,1.19.46,2.46-.65,3.65C64.09,125.88,61.85,124.6,62.57,122.5Z"/><path class="cls-85" d="M124.26,152.68v-1c.48,0,.93.07.79.67C125,152.51,124.53,152.57,124.26,152.68Z"/><path class="cls-145" d="M135.26,71.68c-1,.76-.31,2.69-2,3h-1v-4h2C134.23,71.38,134.56,71.71,135.26,71.68Z"/><path class="cls-145" d="M132.26,76.68c-.15.76.49,1.92-1,2h-1v-2Z"/><path class="cls-146" d="M138.26,65.68c-.7,0-1,.31-1,1v1h-1v-3h2Z"/><path class="cls-88" d="M136.26,67.68h1c-.15.76.49,1.92-1,2Z"/><path class="cls-147" d="M130.26,78.68h1c-.15.76.49,1.92-1,2Z"/><path class="cls-148" d="M130.26,82.68c-.49,0-.93-.06-.8-.66,0-.16.52-.23.8-.34Z"/><path class="cls-145" d="M133.26,75.68c0,.7-.31,1-1,1v-1Z"/><circle class="cls-149" cx="132.76" cy="75.18" r="0.71"/><path class="cls-148" d="M130.26,78.68v2h-1.52c-1.09,1.06-.05,2.51-.67,3.7-.49.61-1.2.18-1.81.3h-70v-4c.61.13,1.33-.31,1.85.35.26.55,0,1.33.27,1.46h9.95V77a2.5,2.5,0,0,0,2.28-2.06c.06-.18.84-.13,1.17-.17.79.62.35,1.34.48,2V78c-.38,1-1.67.26-2,1.29.19,1.05-.42,2.25.35,3.24H102c.25-.69.45-1.27.65-1.82,1.22,0,2.37-.33,3.44.21.39.54,0,1.36.75,1.73H116l.74-2.22c1.16.74,2.59-.56,3.57.83,0,.5-.08,1,.38,1.29h3.62v-3.9h2v-2c2.08-.16,2.08-.16,1.47-2h-5.47v-2h2v-2h3.42c1-.32.09-2.23,1.92-2.08,1,.08.55-1.21.66-1.92h2v-2h1.53c.85,1.13.39,2.41.37,3.49-.33.94-1.68,0-1.78,1.13.56.68,1.27.26,1.88.38v1h-2c-.6.11-1.28-.27-2,.51v7.49Z"/><path class="cls-87" d="M132.26,64.68v2h-2v-2Z"/><path class="cls-87" d="M130.26,66.68c-.11.71.34,2-.66,1.92-1.83-.15-.92,1.76-1.92,2.08h-1.42v-2a2.46,2.46,0,0,0,2-2Z"/><path class="cls-87" d="M124.26,70.68v2h-2v-2Z"/><path class="cls-150" d="M59.26,155.68a2.45,2.45,0,0,1,2,2.26.76.76,0,0,0,1,.74v2c-.61.12-1.31-.29-2,.49v2.5c-.47,1.45-1.45.62-1.92,1.53v3.11c1.83-.09,2.33,2,3.9,2.37h2v2c-1.4.48-2.17-1.26-3.6-1-1,1.49.14,3.44-.63,4.83-2.31,1-1.12-2.22-2.78-1.86a.7.7,0,0,0-.59-.89c-.08,0-.31.22-.29.3a.7.7,0,0,0,.88.59c0,.59,0,1.19,0,1.87-1.8-.39-2-1.8-2.31-2.87H53.26c-.19-2.49,2.45-4.08,2.11-6.61C57.85,163.68,58.12,159.53,59.26,155.68Z"/><path class="cls-151" d="M52.26,175.68v3h-2C51.29,177.93,50.56,176,52.26,175.68Z"/><path class="cls-151" d="M50.26,178.68c-.15.76.49,1.92-1,2C49.41,179.93,48.76,178.77,50.26,178.68Z"/><path class="cls-151" d="M49.26,180.68c0,.7-.31,1-1,1C48.23,181,48.56,180.66,49.26,180.68Z"/><path class="cls-152" d="M106.26,171.68v2.52a2.88,2.88,0,0,1-.36.33.83.83,0,0,1-.43.15H74.79c-.85-.66-.4-1.38-.53-2,.17-1.66,1.47-1,2.26-1C86.43,171.67,96.35,171.68,106.26,171.68Z"/><path class="cls-153" d="M106.26,171.68c-9.91,0-19.83,0-29.74,0-.79,0-2.09-.7-2.26,1h-8v-2h60v2C119.57,173,113,170.9,106.26,171.68Z"/><path class="cls-98" d="M126.26,165.68v-3h1c.64,2.52,1.29,5,2,7.58-.83.79-.93-.4-1.43-.51-.55.2-.71,1.09-1.52.93v-5Z"/><path class="cls-150" d="M72,178.59H70.51a6.43,6.43,0,0,1,0-3.81H72A6.43,6.43,0,0,1,72,178.59Z"/><circle class="cls-154" cx="65.26" cy="171.68" r="1.41"/><path class="cls-150" d="M64.27,178.18a1.21,1.21,0,0,1-2,0A1.21,1.21,0,0,1,64.27,178.18Z"/><path class="cls-85" d="M127.26,162.68h-1v-2C127.75,160.77,127.11,161.93,127.26,162.68Z"/><path class="cls-98" d="M131.25,168.69a.69.69,0,0,1-.59.88c-.08,0-.31-.21-.29-.29A.69.69,0,0,1,131.25,168.69Z"/><path class="cls-97" d="M47.26,185.69a.7.7,0,0,1,.89.59c0,.08-.22.31-.3.29A.7.7,0,0,1,47.26,185.69Z"/><path class="cls-155" d="M90.26,84.68h32a.78.78,0,0,1-.79,1q-15.21,0-30.42,0A.77.77,0,0,1,90.26,84.68Z"/><path class="cls-104" d="M56.26,84.68h2c-.09,1.5-1.25.85-2,1Z"/><path class="cls-156" d="M54.26,74.68v-1l2,1v-2c.6.12,1.28-.27,1.86.36a6.07,6.07,0,0,1-.19,3.55c-.67.14-1.38,0-1.67.74v3.35h-2v-6Z"/><path class="cls-157" d="M54.26,80.68h2v4h-1v-1c-.15-.75.49-1.91-1-2Z"/><ellipse class="cls-158" cx="53.76" cy="78.68" rx="0.71" ry="1.41"/><path class="cls-158" d="M54.26,81.68c1.49.09.85,1.25,1,2h-1Z"/><circle class="cls-159" cx="55.76" cy="85.18" r="0.71"/><path class="cls-160" d="M56.26,80.68V77.33c.29-.79,1-.6,1.67-.74A6.07,6.07,0,0,0,58.12,73c-.58-.63-1.26-.24-1.86-.36h-2v-2h6c.16,2.08.16,2.08,2,1.48V70.68H63.7c.73-.35.43-1.12.88-2h3.31c1.29-2.41-1.42-1.66-1.84-3.15,1.58-.47,1.82-2.54,3.46-3,1.59.67-.35,2.9,1.75,3.1a.7.7,0,0,0,.59.88c.08,0,.31-.21.3-.29a.7.7,0,0,0-.89-.59c.47-1.93,2-.63,3-1v3.63c.84.52,1.63.19,2,.92v3.45h2c-.15.76.65.91.87,1.51a.69.69,0,0,1-.87.49H74.63c-.52.85-.19,1.64-.92,2H72.26c-.13-.61.31-1.33-.48-2-.33,0-1.11,0-1.17.17A2.5,2.5,0,0,1,68.33,77v5.53H58.38c-.3-.13,0-.91-.27-1.46C57.59,80.37,56.87,80.81,56.26,80.68Z"/><path class="cls-161" d="M60.26,70.68h-2v-2h1c.08,1.5,1.24.85,2,1h1v1Z"/><path class="cls-162" d="M71.26,58.68c0,.7.3,1,1,1v1h-2v-2Z"/><path class="cls-109" d="M58.26,68.68v2h-6v-4h2v2Z"/><circle class="cls-163" cx="58.76" cy="68.18" r="0.71"/><path class="cls-106" d="M52.26,63.68c-.7,0-1-.3-1-1h1Z"/><path class="cls-107" d="M54.26,66.68h-2v-2h2v2Z"/><circle class="cls-113" cx="54.76" cy="65.18" r="0.71"/><ellipse class="cls-106" cx="53.26" cy="64.18" rx="1.41" ry="0.71"/><path class="cls-164" d="M49.26,64.68a.69.69,0,0,1,.64-.88c.52.87.75,1.64-.64,1.88Z"/><path class="cls-135" d="M37.26,46.68c.15.76-.5,1.92,1,2v1.73c-1.94.56-4,.15-6,.27v-2h3.57C36.49,47.82,35.92,46.58,37.26,46.68Z"/><path class="cls-165" d="M37.26,46.68c-1.34-.1-.77,1.14-1.43,2H32.26V45.2c1.08-1.19,2.43-.09,3.53-.62C36.27,45.48,37.31,45.68,37.26,46.68Z"/><path class="cls-111" d="M32.26,40.68v2h-2c.44-.94.89-1.88,1.34-2.83C32.2,39.82,32.3,40.19,32.26,40.68Z"/><path class="cls-109" d="M54.26,72.68h2v2l-2-1Z"/><path class="cls-166" d="M54.26,74.68v2h-1v-1C53.23,75,53.56,74.66,54.26,74.68Z"/><circle class="cls-167" cx="53.76" cy="77.18" r="0.71"/><path class="cls-105" d="M76.26,70.68V69.23c-.37-.73-1.16-.4-2-.92V64.68h2v1c0,.7.3,1,1,1h1v1l-.93.37c.69,1.54,3.12-.56,3.19,1.72.75-.39.93-1.22,1.74-1.09v2Z"/><path class="cls-118" d="M88.26,58.68v5.49c-.72.78-1.4.4-2,.51v-6h2Z"/><ellipse class="cls-168" cx="85.76" cy="61.68" rx="0.71" ry="1.41"/><path class="cls-122" d="M84.26,63.68v-1h1C85.28,63.38,85,63.71,84.26,63.68Z"/><path class="cls-169" d="M93.26,53.68l-.35.87c-1.17-.3-.45-1.25-.65-1.87h1Z"/><path class="cls-170" d="M77.26,66.68c-.7,0-1-.3-1-1A.85.85,0,0,1,77.26,66.68Z"/><path class="cls-171" d="M90.26,54.68v2h-2v-2h2Z"/><ellipse class="cls-169" cx="89.76" cy="53.68" rx="0.71" ry="1.41"/><ellipse class="cls-172" cx="87.76" cy="57.68" rx="0.71" ry="1.41"/><path class="cls-173" d="M95.26,55.68v1c-.7,0-1-.3-1-1Z"/><circle class="cls-174" cx="98.76" cy="62.18" r="0.71"/><path class="cls-175" d="M72.26,76.68h1.45c.73-.36.4-1.15.92-2h3.63v1.57c1.17.76,2.44.43,3.72.28-.07-2.31,2.39-1.63,2.89-3,3.71,2.19,7.42.67,11.07,1.35l.6,1.72h9.35c.92-1.16,0-2.43.49-3.76h-3.75l-.73,1.75c-1-.11-.51-.92-.75-1.52-1.41-.91-3.17.17-4.76-.65,0-.4-.06-.85-.09-1.27.36-.16.64-.4.92-.4,4,0,8,0,12,0a2.81,2.81,0,0,0,2.57-1c.84.63.28,1.55.61,2.47-2,0-1.87,2.61-4.13,2.66v7.84h-1.47c-.74-.37-.36-1.19-.75-1.73-1.07-.54-2.22-.21-3.44-.21-.2.55-.4,1.13-.65,1.82H70.61c-.77-1-.16-2.19-.35-3.24.33-1,1.62-.25,2-1.29Zm17.91.16H84.4c-.11,1.41-.49,2.68.19,3.68h5.58Z"/><path class="cls-175" d="M122.26,74.68h4v2h-2v5.9h-3.62c-.46-.29-.38-.79-.38-1.29-1-1.39-2.41-.09-3.57-.83L116,82.68h-3.69V81.21c-.38-.73-1.19-.35-1.85-.83V76.91h8.66C120.64,76.23,121,74.85,122.26,74.68Z"/><path class="cls-175" d="M76.26,70.68h7.48c.6.47.66,1,.19,2H76.26Z"/><path class="cls-118" d="M92.19,62.78c1.65.25,1.65.25,2.07,1.4a1.22,1.22,0,0,1-1.62.36C92.05,64.17,92.32,63.64,92.19,62.78Z"/><path class="cls-75" d="M88.26,29.68c-.7,0-1-.3-1-1A.85.85,0,0,1,88.26,29.68Z"/><path class="cls-75" d="M87.26,26.68v-1c.48,0,.93.07.79.67C88,26.51,87.53,26.57,87.26,26.68Z"/><path class="cls-176" d="M121.26,150.68c.33.68,1,1.38.95,2a26,26,0,0,0,2,10,6,6,0,0,1,0,2v4h-2c.06-.9-.53-1-1.21-1h-4.79v-1h5.9V161l-2-.72V153l-2-.72V132.88c-11.93-.59-39.76-.39-43.86.3v1.5H70.71l-.91,2H68.26v-6h52c0,6.08,0,12.16,0,18.25C120.27,149.65,119.91,150.67,121.26,150.68Z"/><path class="cls-177" d="M106.26,130.68h-36a.76.76,0,0,1,.79-1q17.2,0,34.42,0A.76.76,0,0,1,106.26,130.68Z"/><path class="cls-176" d="M66.26,151.68c-.76-2.49,1.42-4.55,1-7h1c0,2.29,0,4.59,0,6.88s.26,4.79-.18,7.12h-1.8v-7Z"/><path class="cls-177" d="M121.26,150.68c-1.35,0-1-1-1-1.75,0-6.09,0-12.17,0-18.25,1.34,0,1,1,1,1.76C121.27,138.52,121.26,144.6,121.26,150.68Z"/><path class="cls-177" d="M68.26,144.68h-1c0-4.08,0-8.17,0-12.25,0-.72-.35-1.74,1-1.75v14Z"/><path class="cls-178" d="M66.26,151.68v5c-1.65.17-.81,1.45-1,2.25s.33,1.75-1,1.75v-6c.95.08,1-.57,1-1.25S64.92,151.69,66.26,151.68Z"/><path class="cls-179" d="M124.26,168.68v-4c.66.34,1.33.67,2,1v3h-2Z"/><path class="cls-177" d="M114.26,130.68h-5A3.45,3.45,0,0,1,114.26,130.68Z"/><path class="cls-177" d="M116.26,130.68h-1c0-.48.06-.93.66-.79C116.08,129.93,116.15,130.41,116.26,130.68Z"/><path class="cls-180" d="M64.26,156.68v5l-2,1v-6Z"/><path class="cls-87" d="M130.26,76.68V71.19c.72-.78,1.4-.4,2-.51v6Z"/><path class="cls-122" d="M124.26,78.68v-2h2v2Z"/><path class="cls-122" d="M126.26,76.68v-2h1.47C128.34,76.52,128.34,76.52,126.26,76.68Z"/><path class="cls-143" d="M62.26,160.68v10c-1.57-.36-2.07-2.46-3.9-2.37V165.2c.47-.91,1.45-.08,1.92-1.53v-2.5C61,160.39,61.65,160.8,62.26,160.68Z"/><ellipse class="cls-154" cx="63.26" cy="170.18" rx="1.41" ry="0.71"/><path class="cls-96" d="M57.25,174.68a.7.7,0,0,1-.88-.59c0-.08.21-.31.29-.3A.7.7,0,0,1,57.25,174.68Z"/><path class="cls-181" d="M64.26,170.68v-1H95.11c9.29,0,18.58,0,27.87,0,.8,0,2.1.7,2.28-1h1v2h-62Z"/><path class="cls-109" d="M60.26,70.68h2v1.48C60.42,72.76,60.42,72.76,60.26,70.68Z"/><path class="cls-105" d="M71.26,65.69a.7.7,0,0,1,.89.59c0,.08-.22.31-.3.29A.7.7,0,0,1,71.26,65.69Z"/><path class="cls-182" d="M90.17,76.84v3.68H84.59c-.68-1-.3-2.27-.19-3.68Z"/><path class="cls-183" d="M68.26,144.68v-8H69.8l.91-2h1.55c0,2-.07,4,0,6s-.36,4,.69,5.89c-.31-3.46,1.1-6.56,1.68-9.77h33.25c.9,1.23-.21,2.72.83,3.88l1.22-.13c.84-1.25-.32-2.75.78-3.83.46,0,1-.23,1.36.3.6,1.84-.38,3.88.56,5.67h3.62c-.15,2,.33,4-.3,5.91-1.32-.23.06-1.86-1.53-1.71v5.61l1.65.42v4.55c-.8.39-2-.07-1.79,1.63l1.9,2.14c-1.07,1.36-2.22,2-3.82,1.08-.11-1.88-.21-3.77-.31-5.63h-3.8c-.13-.61.31-1.33-.41-1.9h-1.63v7.66H74.1v-5.67H72.26v7.91H70.71l-.92-2H66.26v-4h1.8c.44-2.33.13-4.74.18-7.12S68.26,147,68.26,144.68Z"/><path class="cls-184" d="M108.26,156.68h3.8c.1,1.86.2,3.75.31,5.63,1.6.94,2.75.28,3.82-1.08l-1.9-2.14c-.19-1.7,1-1.24,1.79-1.63v-4.55l-1.65-.42v-5.61c1.59-.15.21,1.48,1.53,1.71.63-1.92.15-4,.3-5.91v-8h-42v-1.5c4.1-.69,31.93-.89,43.86-.3v19.39l2,.72v7.31l2,.72v5.66h-5.9c-.11-.6.27-1.28-.51-2h-5.49c-.13-.61.3-1.32-.41-1.9-.48-.19-1.24.07-1.59-.67Z"/><path class="cls-185" d="M74.26,134.68h42v8h-3.62c-.94-1.79,0-3.83-.56-5.67-.38-.53-.9-.27-1.36-.3-1.1,1.08.06,2.58-.78,3.83l-1.22.13c-1-1.16.07-2.65-.83-3.88H74.64c-.58,3.21-2,6.31-1.68,9.77-1-1.91-.61-3.94-.69-5.89s0-4,0-6Z"/><path class="cls-186" d="M66.26,158.68v8h50v1h-9c-12.76,0-25.52,0-38.28,0-.91,0-2.43-1-2.77,1-2.24-.21-2.79-.76-3-3a5.39,5.39,0,0,0,1-4v-1c1.34,0,.85-1,1-1.75s-.66-2.08,1-2.25Z"/><path class="cls-187" d="M63.26,165.68c.21,2.24.76,2.79,3,3h59c-.18,1.67-1.48,1-2.28,1-9.29,0-18.58,0-27.87,0H62.26v-4Z"/><path class="cls-188" d="M122.26,168.68h-56c.34-1.94,1.86-.94,2.77-1,12.76-.07,25.52,0,38.28,0h13.74C121.73,167.68,122.32,167.78,122.26,168.68Z"/><path class="cls-189" d="M63.26,165.68h-1v-3l2-1A5.39,5.39,0,0,1,63.26,165.68Z"/><path class="cls-190" d="M116.26,166.68h-48v-2h-2v-2h3.53l.92,2h45C116.53,165.4,116.15,166.08,116.26,166.68Z"/><path class="cls-191" d="M110.26,164.68h-38v-7.91H74.1v5.67h32.12v-7.66h1.63c.72.57.28,1.29.41,1.9v5.43c.35.74,1.11.48,1.59.67C110.56,163.36,110.13,164.07,110.26,164.68Z"/><circle class="cls-183" cx="67.26" cy="165.68" r="1.41"/><path class="cls-1" d="M147.27,55.11h-3c-.08-1.49-1.24-.85-2-1h-1c0-.69-.3-1-1-1a5.45,5.45,0,0,1-3-3c0-.69-.3-1-1-1v-8h1v3c.39,1-.92,2.53,1,3,1,1.3.91,3.49,3,4,0,.69.31,1,1,1h1a3.43,3.43,0,0,0,5,0h1c.7,0,1-.31,1-1h1c0,.69.31,1,1,1,0,.69-.3,1-1,1a.85.85,0,0,0-1,1h-1C148.52,54.26,147.36,53.62,147.27,55.11Z"/><path class="cls-7" d="M148.27,35.11h2c0,.69.31,1,1,1s1,.31,1,1-.3,1-1,1c-.08-1.49-1.24-.85-2-1a6.4,6.4,0,0,0-7,0h-2v-1c1.07-.14,1.73-1.49,3-1Z"/><path class="cls-8" d="M140.27,37.11h1v1a.85.85,0,0,0-1,1c-1.9,1.17-2.09,3-2,5h-1v-5a2.46,2.46,0,0,1,2-2Z"/><path class="cls-10" d="M148.27,35.11h-5A3.43,3.43,0,0,1,148.27,35.11Z"/><path class="cls-11" d="M155.27,39.11v2h-2v-3Z"/><path class="cls-10" d="M153.27,38.11v2l-2-1v-1c.7,0,1-.31,1-1C153,37.09,153.3,37.42,153.27,38.11Z"/><path class="cls-12" d="M137.27,39.11v2h-1C136.43,40.35,135.78,39.2,137.27,39.11Z"/><path class="cls-17" d="M140.27,37.11h-1a.85.85,0,0,1,1-1Z"/><path class="cls-10" d="M151.27,36.11c-.69,0-1-.31-1-1C151,35.09,151.3,35.42,151.27,36.11Z"/><path class="cls-51" d="M153.27,41.11h2a.76.76,0,0,1,1,.76c.06,1.8,0,3.59,0,5.46-1.06,1.16-.93,3.32-3,3.78h-2v-1c.7,0,1-.31,1-1,.59.11.87-.25,1-.72C154.1,45.24,154.09,44.34,153.27,41.11Z"/><path class="cls-54" d="M151.27,51.11h2c0,.69-.3,1-1,1S151.25,51.8,151.27,51.11Z"/><path class="cls-56" d="M142.27,54.11c.76.15,1.92-.49,2,1C143.52,55,142.36,55.61,142.27,54.11Z"/><path class="cls-56" d="M147.27,55.11c.09-1.49,1.25-.85,2-1C149.19,55.61,148,55,147.27,55.11Z"/><path class="cls-56" d="M150.27,54.11a.85.85,0,0,1,1-1C151.3,53.8,151,54.14,150.27,54.11Z"/><path class="cls-56" d="M140.27,53.11c.7,0,1,.31,1,1C140.58,54.14,140.25,53.8,140.27,53.11Z"/><path class="cls-12" d="M136.27,49.11c.7,0,1,.31,1,1C136.58,50.14,136.25,49.8,136.27,49.11Z"/><path class="cls-69" d="M138.27,44.11c-.09-2,.1-3.83,2-5h1v4c.13,2-.28,4.06.28,6h1.72c.12.6-.27,1.28.51,2h5.49v1h-7c0-.69-.3-1-1-1-2.09-.51-2-2.7-3-4Z"/><path class="cls-70" d="M149.27,51.11h-5.49c-.78-.72-.39-1.4-.51-2,.16-.81-.72-1-1.06-1.84l7.06-.34V45.11h2v4c-.61.21-1.57-.52-1.86.64.56.65,1.26.24,1.86.36v1h-2Z"/><path class="cls-56" d="M143.27,52.11h5A3.43,3.43,0,0,1,143.27,52.11Z"/><path class="cls-12" d="M138.27,44.11v3c-1.92-.47-.61-2-1-3Z"/><path class="cls-56" d="M149.27,51.11h1c0,.69-.3,1-1,1Z"/><path class="cls-56" d="M141.27,51.11c.7,0,1,.31,1,1C141.58,52.14,141.25,51.8,141.27,51.11Z"/><path class="cls-10" d="M142.27,37.11a6.4,6.4,0,0,1,7,0Z"/><path class="cls-10" d="M149.27,37.11c.76.15,1.92-.49,2,1C150.52,38,149.36,38.61,149.27,37.11Z"/><path class="cls-17" d="M141.27,38.11v-1h1C142.3,37.8,142,38.14,141.27,38.11Z"/><path class="cls-17" d="M141.27,39.11h-1a.85.85,0,0,1,1-1Z"/><path class="cls-82" d="M151.27,47.11v-2c-.14-.81.71-1,.95-1.48-1.58-1.26-.72-3-.95-4.52l2,1v1c.82,3.23.83,4.13,0,7.28-.13.47-.41.83-1,.72C152.12,48.35,152.77,47.2,151.27,47.11Z"/><path class="cls-83" d="M141.27,39.11v-1c.7,0,1-.31,1-1h7c.09,1.5,1.25.85,2,1v1h-10Z"/><path class="cls-56" d="M151.27,50.11c-.6-.12-1.3.29-1.86-.36.29-1.16,1.25-.43,1.86-.64h1C152.3,49.8,152,50.14,151.27,50.11Z"/><path class="cls-128" d="M141.27,39.11h8v6c-1.27-.17-2.59.33-3.76-.21-.37-.64,0-1.43-.8-1.79h-3.44Z"/><path class="cls-129" d="M141.27,43.11h3.44c.75.36.43,1.15.8,1.79,1.17.54,2.49,0,3.76.21v1.82l-7.06.34c.34.87,1.22,1,1.06,1.84h-1.72C141,47.17,141.4,45.12,141.27,43.11Z"/><path class="cls-130" d="M149.27,45.11v-6h2c.23,1.51-.63,3.26.95,4.52-.24.5-1.09.67-.95,1.48Z"/><path class="cls-131" d="M152.27,49.11h-1v-2C152.77,47.2,152.12,48.35,152.27,49.11Z"/></svg>