<svg id="Layer_1" data-name="Layer 1" xmlns="http://www.w3.org/2000/svg" viewBox="0 0 301.4 249.09"><defs><style>.cls-1{fill:#2d74a3;}.cls-2{fill:#646566;}.cls-3{fill:#1b71aa;}.cls-4{fill:#29769e;}.cls-5{fill:#608dab;}.cls-6{fill:#4b86ad;}.cls-7{fill:#88a0ae;}.cls-8{fill:#3d6a85;}.cls-9{fill:#8a99a3;}.cls-10{fill:#1173bb;}.cls-11{fill:#1671b3;}.cls-12{fill:#2e679a;}.cls-13{fill:#3b6e8c;}.cls-14{fill:#8da5b7;}.cls-15{fill:#8aa2b1;}.cls-16{fill:#5c5d5b;}.cls-17{fill:#5d5e5f;}.cls-18{fill:#5c5d5d;}.cls-19{fill:#737475;}.cls-20{fill:#5f5f5f;}.cls-21{fill:#32749d;}.cls-22{fill:#2875b1;}.cls-23{fill:#497ca5;}.cls-24{fill:#1c76b6;}.cls-25{fill:#4a6784;}.cls-26{fill:#59595c;}.cls-27{fill:#5c5c5f;}.cls-28{fill:#5d5d5f;}.cls-29{fill:#636465;}.cls-30{fill:#7fa9c2;}.cls-31{fill:#0d76bc;}.cls-32{fill:#0d74bc;}.cls-33{fill:#1473b1;}.cls-34{fill:#0b75bc;}.cls-35{fill:#0872b9;}.cls-36{fill:#1b76b4;}.cls-37{fill:#1671af;}.cls-38{fill:#1272be;}.cls-39{fill:#0e75bc;}.cls-40{fill:#347eb0;}.cls-41{fill:#2077b4;}.cls-42{fill:#1078b9;}.cls-43{fill:#3f7da3;}.cls-44{fill:#1973b7;}.cls-45{fill:#1474b8;}.cls-46{fill:#1678b7;}.cls-47{fill:#2571a6;}.cls-48{fill:#35698b;}.cls-49{fill:#326586;}.cls-50{fill:#2672a1;}.cls-51{fill:#1f6ea6;}.cls-52{fill:#2775ad;}.cls-53{fill:#2472ae;}.cls-54{fill:#3971a3;}.cls-55{fill:#5d5d5d;}.cls-56{fill:#1472b4;}.cls-57{fill:#1677bb;}.cls-58{fill:#31719a;}.cls-59{fill:#4f504f;}.cls-60{fill:#2c76a5;}.cls-61{fill:#246f9b;}.cls-62{fill:#2673a5;}.cls-63{fill:#1a76b2;}.cls-64{fill:#2573a8;}.cls-65{fill:#1874b1;}.cls-66{fill:#2d74a9;}.cls-67{fill:#507998;}.cls-68{fill:#427394;}.cls-69{fill:#436a81;}.cls-70{fill:#356c84;}.cls-71{fill:#575756;}.cls-72{fill:#535354;}.cls-73{fill:#4477a0;}.cls-74{fill:#266ca5;}.cls-75{fill:#6cabda;}.cls-76{fill:#1b73a5;}.cls-77{fill:#2a6a90;}.cls-78{fill:#427ca7;}.cls-79{fill:#1372bf;}.cls-80{fill:#1274b9;}.cls-81{fill:#1e6fb1;}.cls-82{fill:#326c94;}.cls-83{fill:#3d6387;}.cls-84{fill:#2673a6;}.cls-85{fill:#287aa3;}.cls-86{fill:#156cb7;}.cls-87{fill:#0d77bd;}.cls-88{fill:#1673b3;}.cls-89{fill:#1175bb;}.cls-90{fill:#057aba;}.cls-91{fill:#0579bf;}.cls-92{fill:#1174b8;}.cls-93{fill:#0b74bb;}.cls-94{fill:#207ab9;}.cls-95{fill:#1074b6;}.cls-96{fill:#1071c4;}.cls-97{fill:#0279c3;}.cls-98{fill:#1071c7;}.cls-99{fill:#1877af;}.cls-100{fill:#0c79c2;}.cls-101{fill:#1275ba;}.cls-102{fill:#1979bb;}.cls-103{fill:#2d79ab;}.cls-104{fill:#416b85;}.cls-105{fill:#1974bf;}.cls-106{fill:#456575;}.cls-107{fill:#2873a9;}.cls-108{fill:#3a81ae;}.cls-109{fill:#406a81;}.cls-110{fill:#2f7097;}.cls-111{fill:#3e6681;}.cls-112{fill:#446d84;}.cls-113{fill:#1275b7;}.cls-114{fill:#1274b7;}.cls-115{fill:#1972af;}.cls-116{fill:#0f73c2;}.cls-117{fill:#1972a5;}.cls-118{fill:#2e77a6;}.cls-119{fill:#226dad;}.cls-120{fill:#558aab;}.cls-121{fill:#3781b6;}.cls-122{fill:#508aaa;}.cls-123{fill:#296482;}.cls-124{fill:#0e75ba;}.cls-125{fill:#1672b9;}.cls-126{fill:#0c70bc;}.cls-127{fill:#1573af;}.cls-128{fill:#0f73be;}.cls-129{fill:#1775b8;}.cls-130{fill:#1672bb;}.cls-131{fill:#5fa6d1;}.cls-132{fill:#1473b4;}.cls-133{fill:#0c79bb;}.cls-134{fill:#2e6e99;}.cls-135{fill:#436a80;}.cls-136{fill:#1978be;}.cls-137{fill:#0d77c1;}.cls-138{fill:#0e6aac;}.cls-139{fill:#296996;}.cls-140{fill:#0c75c2;}.cls-141{fill:#0d77c2;}.cls-142{fill:#0d75b7;}.cls-143{fill:#0d79ca;}.cls-144{fill:#306995;}.cls-145{fill:#0a76bb;}.cls-146{fill:#1872b6;}.cls-147{fill:#0277ce;}.cls-148{fill:#2c6b95;}.cls-149{fill:#1b73b1;}.cls-150{fill:#467189;}.cls-151{fill:#0d75bf;}.cls-152{fill:#346986;}.cls-153{fill:#1572ba;}.cls-154{fill:#4981a8;}.cls-155{fill:#0a79b1;}.cls-156{fill:#1770b5;}.cls-157{fill:#3283ba;}.cls-158{fill:#1f6ba7;}.cls-159{fill:#3883bf;}.cls-160{fill:#1375b8;}.cls-161{fill:#1576b8;}.cls-162{fill:#1f70a4;}.cls-163{fill:#0c76b8;}.cls-164{fill:#0b76bf;}.cls-165{fill:#0c76ba;}.cls-166{fill:#1f77aa;}.cls-167{fill:#0e78bb;}.cls-168{fill:#2175b7;}.cls-169{fill:#516f80;}</style></defs><path class="cls-1" d="M121.69,57.68h171c-.52,1.83-2.76,5-5,7v-5h-256v-2h90Z"/><path class="cls-2" d="M182.69,180.68h-1v-1h12v1Z"/><path class="cls-3" d="M103.69,79.68h168v3c-.7,0-1,.31-1,1-.7,0-1,.31-1,1-.7,0-1,.31-1,1-.7,0-1,.31-1,1l-2,1h-2c.1-.59-.27-1.27.28-1.79l1.7-.55c-.17-1.29.48-2.59-.48-3.66H218.46a.89.89,0,0,0-.43.15,2.61,2.61,0,0,0-.34.32v1.52h-62a.78.78,0,0,0-.76-1c-.67-.07-1.32,0-1.24,1h-8c-.12-.6.27-1.28-.36-1.86a6.06,6.06,0,0,0-3.61.22c0,.66.08,1.34-.67,1.64H107.69c-.15-.8.71-1,1-1.56a2.23,2.23,0,0,0-3,.06v3.5h-2Z"/><path class="cls-4" d="M247.69,107.68a10.13,10.13,0,0,0-4,4h-2v-4h4v-2h2v-2h2v-2h2v2a2.46,2.46,0,0,0-2,2A2.46,2.46,0,0,0,247.69,107.68Z"/><path class="cls-5" d="M263.69,89.68c-.12.6.28,1.29-.31,1.82-2.62,2.33-4.7,5.25-7.69,7.18-.49-1.27.85-1.93,1-3,.69,0,1-.3,1-1a2.46,2.46,0,0,0,2-2c.69,0,1-.3,1-1,.69,0,1-.3,1-1,.69,0,1-.3,1-1Z"/><path class="cls-6" d="M241.69,111.68h2v1c-2.53,1-3.48,4-6,5,0-.77-.13-1.52.61-2.17.56-.49,1.43-.85,1.39-1.83A2.46,2.46,0,0,0,241.69,111.68Z"/><path class="cls-5" d="M251.69,102.68v-1c.33-.66.66-1.33,1-2,.69,0,1-.3,1-1h2c-.36,1.82-2.65,2.18-3,4Z"/><path class="cls-7" d="M271.69,81.68v-2h2v1c-.7,0-1,.31-1,1Z"/><path class="cls-8" d="M265.69,87.68v1c-.7,0-1,.31-1,1h-1v-2Z"/><path class="cls-9" d="M28.69,81.68c.15-.75-.5-1.91,1-2v96h-1v-94Z"/><path class="cls-10" d="M281.69,59.68h6v4h-256v-4h10c.13.62-.32,1.34.34,1.86,17.57.67,239,.34,239.66-.36Z"/><path class="cls-11" d="M281.69,59.68v1.5c-.7.7-222.09,1-239.66.36-.66-.52-.21-1.24-.34-1.86Z"/><path class="cls-12" d="M283.69,63.68h4v1c-1.28-.49-1.94.86-3,1C284.35,65,284,64.35,283.69,63.68Z"/><path class="cls-13" d="M30.69,57.68h1v2h-2Z"/><path class="cls-12" d="M31.69,60.68v3c.13.62-.32,1.34.53,2H284.69v1h-254v-4.8C30.68,61.2,30.8,60.62,31.69,60.68Z"/><path class="cls-14" d="M30.69,65.68v1c-.76-.15-1.92.5-2-1v-8h2l-1,2v4.79C29.69,65.16,29.78,65.75,30.69,65.68Z"/><path class="cls-1" d="M284.69,66.68v-1c1.06-.14,1.72-1.49,3-1A2.47,2.47,0,0,1,284.69,66.68Z"/><path class="cls-15" d="M81.69,180.68H29.92c-.68,0-1.3-.07-1.23-1v-4h1c.18,1.34-.43,2.79.44,4H89.69v1h-8Z"/><path class="cls-2" d="M160.69,174.68v-1h2c0,.7.3,1,1,1a2.47,2.47,0,0,1,2,2h-2a.85.85,0,0,0-1-1h-1A.85.85,0,0,0,160.69,174.68Z"/><path class="cls-16" d="M103.69,178.68h-1V144.4c1-1.86,2.31-1.73,3.65-1.73,11.26,0,22.52.06,33.78,0a7.88,7.88,0,0,1,3.57,1.05c0,1-1,1.22-1.44,2H110.69c0,3.87.1,7.64-.07,11.4-.05,1.18,1.12,1.57,1.07,2.57.49,1.28-.86,1.94-1,3-1.34,0-1,1-1,1.75,0,4.08,0,8.17,0,12.26a.69.69,0,0,0-.88.59c0,.08.21.31.29.29a.69.69,0,0,0,.59-.88h1c-.17,1.61,1.68.53,2,1.53-.1.09-.21.3-.33.3C109.46,178.58,106.57,178.63,103.69,178.68Zm20.17-34.83v.83c2.94,0,5.89.06,8.83,0s5.94.36,8.81-.82Zm-15.17,17.33q.5.7,1,0Q109.18,160.49,108.69,161.18Zm-.5,3.51q-.7.5,0,1Q108.88,165.19,108.19,164.69Z"/><path class="cls-17" d="M203.69,144.68v1a66,66,0,0,1-9.47-.81c-4.12-.77-8.5-.2-12.76-.17a.76.76,0,0,0-.77,1,7.43,7.43,0,0,1-3.58,1.07c-2.36-.07-8,1.78-9.73,2.95a12.81,12.81,0,0,0-4.58,5.47,4.64,4.64,0,0,1-1.11,2v7.51h-1v-2c-.2-1.74.78-3.87-2-5v4.82c0,.68-.09,1.29-1,1.22-.61-.12-1.32.3-1.81-.29-.57-1,.07-1.53.64-2-1.94-3-.21-5.63,1.21-8.09.49-.86,1.1-1.53,1-2.58,2.19-3.61,5.71-4.82,9.55-6.13,6.13-2.1,12.3-1.82,18.53-1.86,3,0,5.94,0,8.92,0-.07.89.51,1,1.19,1h5.81C202.66,144.38,203,144.71,203.69,144.68Zm-45,11a.69.69,0,0,0,.59.88c.08,0,.31-.21.3-.29a.71.71,0,0,0-.9-.6.7.7,0,0,0-.59-.89c-.08,0-.31.22-.29.3A.71.71,0,0,0,158.69,155.69Z"/><path class="cls-17" d="M110.69,162.68c.14-1.06,1.49-1.72,1-3h29.56c.73,1,.31,2.06.44,3Z"/><path class="cls-18" d="M160.69,164.68h1c1.92.47.62,2,1,3v6h-2c-1.82-.35-2.18-2.65-4-3,0-.79.17-1.61-.67-2.18-.67-.46-.21-1.21-.33-1.82h1.81a3.2,3.2,0,0,0,1.75,2.94l1.39-1.39c-.23-.57-1.11-.74-.95-1.55.66-.11,1.5.35,1.89-.46C161.38,165.6,160.53,165.47,160.69,164.68Z"/><path class="cls-19" d="M180.69,145.68a.76.76,0,0,1,.77-1c4.26,0,8.64-.6,12.76.17a66,66,0,0,0,9.47.81c-.12.61.29,1.31-.62,2.08-2.06-1.5-4.76-.51-7-1.21a24.63,24.63,0,0,0-7.49-.86C185.92,145.67,183.31,145.68,180.69,145.68Z"/><path class="cls-20" d="M158.69,150.68c.14,1-.47,1.72-1,2.58-1.42,2.46-3.15,5-1.21,8.09-.57.51-1.21,1.05-.64,2,.49.59,1.2.17,1.81.29l-2,3c-1,.08-1-.57-1-1.25V155.34C156,153.59,156.44,151.34,158.69,150.68Z"/><path class="cls-21" d="M173.69,123.68c-1.5-.08-.85-1.24-1-2a.85.85,0,0,0-1-1v-1h2c0,.48-.15,1.3,0,1.37a4.77,4.77,0,0,1,2.61,2.61c.07.17.89,0,1.37,0v4h-1c-2.1-.51-2-2.7-3-4a.71.71,0,0,0,.89-.59c0-.08-.22-.31-.3-.3A.7.7,0,0,0,173.69,123.68Z"/><path class="cls-22" d="M168.69,115.68h-1v-2h4v4a.75.75,0,0,1-1-.76C170.76,115.24,169.55,115.77,168.69,115.68Z"/><path class="cls-23" d="M168.69,115.68c.86.09,2.07-.44,2,1.24a.75.75,0,0,0,1,.76v3C170.54,119.11,168.66,118,168.69,115.68Z"/><path class="cls-24" d="M164.69,124.68h1v4h-2v-3C164.38,125.71,164.71,125.38,164.69,124.68Z"/><path class="cls-19" d="M200.69,143.68h-3.81c-.68,0-1.26-.11-1.19-1h3.8C200.17,142.68,200.75,142.8,200.69,143.68Z"/><path class="cls-2" d="M162.69,171.68v-4c.66.34,1.33.67,2,1v1c-1.5.09-.85,1.25-1,2Z"/><path class="cls-19" d="M203.69,144.68c-.7,0-1-.3-1-1A.85.85,0,0,1,203.69,144.68Z"/><circle class="cls-25" cx="177.19" cy="128.18" r="0.71"/><path class="cls-23" d="M171.69,120.68a.85.85,0,0,1,1,1C172,121.71,171.66,121.38,171.69,120.68Z"/><path class="cls-26" d="M260.69,159.68h1.5a9.59,9.59,0,0,0,1.53-5.87c-.12-3.63,0-7.26,0-11h6.8v36.78h-6.8v-13.9c1.74-.18.5-2.25,2.45-2.6l-5.45-1.86Z"/><path class="cls-27" d="M217.69,176.68h-.5c.73-3.09.47-6.23.49-9.36,0-2.33.08-4.66,0-7-.07-1.4.25-2.73-.81-4.18-1.25-1.7,1-3.54.84-5.48a.76.76,0,0,0,1-.79c0-2,0-3.94,0-6h5.06v15.37l1.23,1.23c1.51.63,3.26-.36,4.79.7-1.53,1.07-3.28.08-4.78.7l-1.41,1.41v15.25H219C218.43,177.86,219.05,176.57,217.69,176.68Z"/><path class="cls-28" d="M217.69,176.68c1.36-.11.74,1.18,1.33,1.86h4.56V163.29l1.41-1.41c1.5-.62,3.25.37,4.78-.7-1.53-1.06-3.28-.07-4.79-.7l-1.23-1.23V143.88h-5.06c0,2.07,0,4,0,6a.76.76,0,0,1-1,.79v-7.74c2.16-.56,4.41-.09,6.95-.33v15.52l1.55,1.55h34.5v1.54l5.45,1.86c-1.95.35-.71,2.42-2.45,2.6-.15-.75.49-1.91-1-2,0-1.37-1.07-1-1.79-1-11.6,0-23.21,0-34.71,0L224.86,164V179.4c-2.35.59-4.61.06-6.68.35C217.38,178.65,217.82,177.63,217.69,176.68Z"/><path class="cls-18" d="M163.69,171.68c.15-.75-.5-1.91,1-2v1c.08,1.5,1.24.85,2,1v2h2c.08,1.5,1.24.85,2,1,0,.34,0,.67,0,1a.69.69,0,0,0-.88.59c0,.08.21.31.29.29a.69.69,0,0,0,.59-.88h3c-.07.89.51,1,1.19,1h3.81c0,1.34,1,1,1.74,1,4.09,0,8.17,0,12.26,0,.75-.15,1.91.5,2-1h5.82c.68,0,1.24-.13,1.18-1h1v3h-8.76c-.68,0-1.32.07-1.24,1h-11c.06-.91-.54-1-1.22-1h-5.78c-.11-.27-.18-.75-.34-.79-.6-.14-.7.31-.66.79h-1c.06-.86-.5-1-1.18-1h-2.82c-.47-1.92-2-.62-3-1a2.47,2.47,0,0,0-2-2Z"/><path class="cls-2" d="M192.69,177.68c-4.09,0-8.17,0-12.26,0-.72,0-1.74.35-1.74-1h14Z"/><path class="cls-29" d="M192.69,179.68c-.08-.93.56-1,1.24-1h8.76c.07.93-.56,1-1.24,1h-8.76Z"/><path class="cls-2" d="M178.69,176.68h-3.81c-.68,0-1.26-.11-1.19-1h3.8C178.17,175.68,178.75,175.8,178.69,176.68Z"/><path class="cls-29" d="M201.69,175.68c.06.87-.5,1-1.18,1h-2.82c-.07-.86.49-1,1.17-1Z"/><path class="cls-29" d="M202.69,178.68v-3C204.06,176.69,204.06,177.68,202.69,178.68Z"/><path class="cls-2" d="M170.69,175.68v-1c1,.38,2.53-.92,3,1Z"/><path class="cls-2" d="M168.69,173.68h-2v-2A2.47,2.47,0,0,1,168.69,173.68Z"/><path class="cls-29" d="M192.69,177.68v-1h2C194.6,178.18,193.44,177.53,192.69,177.68Z"/><path class="cls-2" d="M170.69,174.68c-.76-.15-1.92.5-2-1C169.44,173.83,170.6,173.19,170.69,174.68Z"/><path class="cls-2" d="M166.69,171.68c-.76-.15-1.92.5-2-1C165.44,170.83,166.6,170.19,166.69,171.68Z"/><path class="cls-2" d="M174.69,178.68h5.78c.68,0,1.28.09,1.22,1h-9v-1h2Z"/><path class="cls-2" d="M168.69,177.68h2.82c.68,0,1.24.14,1.18,1h-4Z"/><path class="cls-2" d="M165.69,176.68c1,.38,2.53-.92,3,1C167.7,177.3,166.15,178.61,165.69,176.68Z"/><path class="cls-7" d="M117.69,131.68c0,1.34-1,1-1.75,1-4.42,0-8.84,0-13.25,0v-53h1v50c.12.61-.3,1.31.52,2Z"/><path class="cls-30" d="M88.69,78.68v1h-59c.17-1.66,1.48-1,2.27-1,10,0,19.91,0,29.86,0Z"/><path class="cls-31" d="M155.69,83.68h30v4h-16c-1.27-.17-2.6.33-3.77-.21-.37-.64,0-1.43-.79-1.79h-3.44c-2.11.75-2.51,2.11-1.57,4h1.57v4h-2c.57-2.1-2.29-2.11-2.34-3.84-.81-.5-2,.34-2.64-.63-.15-.52.34-1.32-.69-1.36-.63.53-.21,1.23-.33,1.83h-12c-.13-.61.3-1.32-.39-1.88-1.2,0-2.47-.49-3.61.35v9.53h-2c-.13-.61.31-1.33-.29-1.8-1.21-.64-2.69.46-3.91-.94.87-1.67,3.43-2.46,3.11-5.08H109.74V110.1c-.92,1-1.67,2-3,1.58V86.43a.78.78,0,0,1,.18-.42,2.77,2.77,0,0,1,.35-.33h3.47c1.79,0,3.58,0,5.37,0s3.81.24,5.63-.24V83.68h16c.11.6-.28,1.29.3,1.82h5.57c.18-.75,0-1.47.7-1.82h3.43c.12.61-.31,1.33.21,1.75h5.79V83.68Zm14.18,1.54c1.25.39,2.52.85,4.11-.16A4.73,4.73,0,0,0,169.87,85.22Zm-12.11,3c-.91-.64-1.54-.93-1.95.15C156.39,88.87,156.94,88.84,157.76,88.18Z"/><path class="cls-32" d="M263.69,87.68v2h-1c0-.49-.05-.88-.69-.82-.6.52-.2,1.22-.31,1.82s-.31,1-1,1h-3v2h-2v2c-.32,0-.75-.13-.93,0-1,1-2,2-3.07,3-.7,0-1,.31-1,1-1.5.09-.85,1.25-1,2h-4c-.13-.61.29-1.31-.45-1.93-1.69-.42-1.59.78-1.55,1.93h-2c-.15-.71.46-1.72-1.07-2.06-1.49,1.38-2.57,3.51-5,4.48.52,1.11-.62,2.45.6,3.58h3.49v2h2v2h-3.55l-.91-2h-1.54c-.76.15-1.92-.49-2,1a2.46,2.46,0,0,1-2-3c1.49-.08.85-1.24,1-2,.69,0,1-.3,1-1v-9h2c.11.71-.35,2,.65,1.92,1.8-.16.92,1.72,1.88,2,.92-.34-.12-2.12,1.47-2,.61-.12,1.33.31,1.9-.41.18-.48-.06-1.24,1.08-1.77h7c0-.64,0-1.09-.09-1.82H233.69v-2c-.13-.61.3-1.32-.3-1.81-1.19-.62-2.65.42-3.7-.67V87.68h4v-2c.12-.61-.31-1.32.52-2h21.48v3.71l-2,.67c.35.93-.68,2.13.75,2.62,2.55,0,3.21-2.83,5.29-3.56V83.68h4v-2h1.5c1,1.07.31,2.37.48,3.66l-1.7.55C263.42,86.41,263.79,87.09,263.69,87.68Z"/><path class="cls-33" d="M255.69,83.68H234.21c-.83.68-.4,1.39-.52,2h-4v-2h-12V82.16a2.61,2.61,0,0,1,.34-.32.89.89,0,0,1,.43-.15h45.23v2h-8Z"/><path class="cls-34" d="M217.69,83.68h8v2h2v2c-1.28-.17-2.61.34-3.81-.23l-.41-1.58h-5.6c-.17.63-.28,1.08-.47,1.81H201.69v-4Z"/><path class="cls-35" d="M110.69,85.68h-3.47a2.77,2.77,0,0,0-.35.33.78.78,0,0,0-.18.42v41.25c-1.94-.34-1-1.86-1-2.77-.07-13.07,0-26.15,0-39.23v-2h1a.77.77,0,0,0,.75,1c.68.08,1.32,0,1.25-1h1C110,84.35,110.35,85,110.69,85.68Z"/><path class="cls-36" d="M103.69,129.68v-44h1q0,19.71,0,39.43c0,1.61-.15,3.23,1,4.57Z"/><path class="cls-37" d="M105.69,129.68c-1.16-1.34-1-3-1-4.57q0-19.71,0-39.43h1c0,13.08,0,26.16,0,39.23,0,.91-1,2.43,1,2.77v2Z"/><ellipse class="cls-38" cx="193.69" cy="84.68" rx="11.31" ry="1.41"/><path class="cls-39" d="M110.69,85.68c-.34-.66-.67-1.33-1-2h12v1.75c-1.82.48-3.74.19-5.63.24S112.48,85.68,110.69,85.68Z"/><path class="cls-39" d="M145.69,83.68h-1.43c-.71.35-.52,1.07-.7,1.82H138c-.58-.53-.19-1.22-.3-1.82h3.36c.75-.3.65-1,.67-1.64a6.06,6.06,0,0,1,3.61-.22C146,82.4,145.57,83.08,145.69,83.68Z"/><path class="cls-39" d="M153.69,83.68v1.75H147.9c-.52-.42-.09-1.14-.21-1.75Z"/><path class="cls-37" d="M106.69,83.68h-1v-1.5a2.23,2.23,0,0,1,3-.06c-.26.58-1.12.76-1,1.56Z"/><path class="cls-39" d="M155.69,83.68h-2c-.08-.94.57-1.05,1.24-1A.78.78,0,0,1,155.69,83.68Z"/><path class="cls-31" d="M106.69,83.68h2c.07.94-.57,1.06-1.25,1A.77.77,0,0,1,106.69,83.68Z"/><path class="cls-40" d="M195.69,95.68h20v1H197.41c-2,1-1.73,2.55-1.72,4,0,.7.3,1,1,1,0,.7.3,1,1,1v3c-.62.13-1.34-.31-2,.55.06,7-.06,14.24.07,21.45h1.95v2h2c.12.62-.31,1.33.23,1.77h17.75c-.08-1.35.31-2.5-.26-3.56-.55-.37-1.36,0-1.72-.74v-1.47h2a2.44,2.44,0,0,0,2,2,2.44,2.44,0,0,0,2,2c-.31,1.08,1.95,1.21.5,2.78H196l-1.27-1.28v-26a60.45,60.45,0,0,0-.07-6.46C194.48,97.44,195.51,96.76,195.69,95.68Z"/><path class="cls-41" d="M231.69,123.68c-.27,1.44-1.83,1.81-2.32,3-.72-.25-.87-1.15-1.68-1a2.51,2.51,0,0,0-1.76-2,8.79,8.79,0,0,1-4.24-4h4v2h2c.2.62-.52,1.57,1.17,2-.84-1.72,1.33-2.4.83-4h4v2h-2Z"/><path class="cls-42" d="M225.69,119.68h-5v-1c.79-2.35,2.51-3.8,5-5.47v6.47Z"/><path class="cls-43" d="M233.69,121.68v-2a2.46,2.46,0,0,0,2-2h2A10.13,10.13,0,0,1,233.69,121.68Z"/><path class="cls-43" d="M231.69,123.68v-2h2A2.46,2.46,0,0,1,231.69,123.68Z"/><path class="cls-44" d="M251.69,98.68c1-1,2-2,3.07-3,.18-.16.61,0,.93,0h1c-.15,1.07-1.49,1.73-1,3h-2c-.7,0-1,.31-1,1-.34.67-.67,1.34-1,2h-2c.15-.75-.5-1.91,1-2C251.38,99.71,251.71,99.38,251.69,98.68Z"/><path class="cls-45" d="M241.69,109.68h-2v-4h4v2h-2Z"/><path class="cls-44" d="M245.69,101.68h2v4h-2Z"/><path class="cls-46" d="M247.69,103.68v-2h2v2Z"/><path class="cls-44" d="M243.69,107.68v-2h2v2Z"/><path class="cls-47" d="M257.69,93.68v-2h2v1a2.46,2.46,0,0,1-2,2Z"/><path class="cls-46" d="M257.69,93.68v1c0,.7-.31,1-1,1h-1v-2Z"/><path class="cls-48" d="M261.69,90.68c.11-.6-.29-1.3.31-1.82.64-.06.72.33.69.82C262.71,90.38,262.38,90.71,261.69,90.68Z"/><path class="cls-49" d="M259.69,92.68v-1h1C260.71,92.38,260.38,92.71,259.69,92.68Z"/><path class="cls-45" d="M237.69,117.68h-2v-4h-2v-2h2v-2h1.54l.91,2h1.55v2c0,1-.83,1.34-1.39,1.83C237.56,116.16,237.7,116.91,237.69,117.68Z"/><path class="cls-4" d="M239.69,113.68v-2h2A2.46,2.46,0,0,1,239.69,113.68Z"/><path class="cls-46" d="M252.69,99.68c0-.69.3-1,1-1C253.71,99.38,253.38,99.71,252.69,99.68Z"/><path class="cls-50" d="M29.69,79.68h2v12c.12.61-.3,1.32.31,1.83.16.06.33.2.44.16,1.07-.38,2.66,1,3.25-1,1.49.09.85,1.25,1,2a2.46,2.46,0,0,1-2,2,.85.85,0,0,0-1-1c-.61.12-1.31-.29-1.89.4-.38,2.16-.06,4.14,1.89,5.6v3.81c0,.68.11,1.26,1,1.19.15.76-.5,1.92,1,2,0,.7.3,1,1,1v3h2c.31,1.7,2.24,1,3,2h28c0,.7.3,1,1,1,0,.7.3,1,1,1v1H58c-.3-.85-.49-1.43-.75-2.17-1.24.58-2.63-.43-3.75.81a2.42,2.42,0,0,1-2.77.29c-2.94-1.61-6.05-.63-9.05-.93a4.19,4.19,0,0,1-2.21-.58c-1.15-.64-2.24-1.75-3.79-1.42-.13-.61.3-1.32-.4-1.89-.48-.21-1.24.06-1.61-.67-.13-1.07.33-2.23-.35-3.34H31.69v3.9h-2Z"/><path class="cls-51" d="M29.69,111.68h2v64h-1V142.84c0-9,0-17.92,0-26.88,0-.8.7-2.1-1-2.28Z"/><path class="cls-52" d="M29.69,113.68c1.66.18,1,1.48,1,2.28.05,9,0,17.92,0,26.88v32.84h-1Z"/><path class="cls-53" d="M284.69,65.68H32.22c-.85-.66-.4-1.38-.53-2h252C284,64.35,284.35,65,284.69,65.68Z"/><path class="cls-54" d="M30.69,65.68c-.91.07-1-.52-1-1.21V59.68h2v1c-.89-.06-1,.52-1,1.2Z"/><path class="cls-55" d="M103.69,178.68c2.88-.05,5.77-.1,8.66-.17.12,0,.23-.21.33-.3-.31-1-2.16.08-2-1.53h32.87v2.64c-.8.74-1.83.34-2.77.34q-17.41,0-34.83,0C105.17,179.65,103.86,180.35,103.69,178.68Z"/><path class="cls-55" d="M109.69,176.68c0-4.08,0-8.17,0-12.25,0-.72-.35-1.74,1-1.75v14Z"/><path class="cls-30" d="M89.69,81.68h1v98h-1v-98Z"/><path class="cls-56" d="M89.69,133.68v14c-1.66.17-1,1.47-1,2.27,0,9.91,0,19.82,0,29.73h-57v-36c.61.13,1.33-.31,2,.54v32.69a.91.91,0,0,0,.16.43,1.69,1.69,0,0,0,.3.34H79.69c1.27-.18,2.62.35,4.09-.37-1.08-2.18,1.27-1.2,1.79-2V144l-1.76-.62c-.77-2.09,1.42-1.33,1.88-2.18v-5.51h2.43C89.18,135.42,88.07,133.5,89.69,133.68Z"/><path class="cls-57" d="M88.69,179.68c0-9.91,0-19.82,0-29.73,0-.8-.69-2.1,1-2.27v32Z"/><path class="cls-58" d="M31.69,175.68v4H30.13c-.87-1.21-.26-2.66-.44-4h2Z"/><path class="cls-59" d="M163.69,171.68v3c-.7,0-1-.3-1-1v-2Z"/><path class="cls-60" d="M105.69,129.68h9.64c.5-.85.17-1.65.93-2,.43-.05,1,.18,1.36-.48,0-1,.1-2.13.16-3.35,1.28-.54,2.72.36,3.82-.55.07-1.15.13-2.27.19-3.32l2-.71V116c.68-.48,1.5-.12,1.87-.85v-1.47h1.54l.91-2h1.55c.5,2.29-1.68,3.36-2.6,4.83a95.77,95.77,0,0,0-5.4,9.17,18.89,18.89,0,0,0-4,6H104.21c-.82-.69-.4-1.39-.52-2Z"/><path class="cls-61" d="M135.69,97.68h2v-4h2v-2h2v-2h12v2h-1c-.12-.28-.23-.81-.35-.81-2.77,0-5.54-.05-8.31,0-.12,0-.23.53-.34.81-.7,0-1,.31-1,1-.7,0-1,.31-1,1v1c-.7,0-1,.31-1,1-2.65,3.12-4.05,7.11-7,10a.7.7,0,0,0-.59-.89c-.08,0-.31.22-.29.3a.7.7,0,0,0,.88.59,18.8,18.8,0,0,1-4,6v-3.53l2-.9c-.28-.58-1.12-.76-1-1.57,1.3-.51,1.44-2.35,3-2.64a6,6,0,0,0,0-1.36c1.49-.08.85-1.24,1-2C136.18,99.6,135.54,98.44,135.69,97.68Z"/><path class="cls-62" d="M136.69,114.68c2.11-2,2.63-5.17,5-7v2c.18,1.34-.43,2.79.44,4h1.56v2h-1c-1.5.09-.85,1.25-1,2v2h-2v-3c-.14-1,.34-2.07-.61-3.07-.37,1.55-1.73,2.52-1.39,4.07h-2C135.2,116.41,136.54,115.75,136.69,114.68Z"/><path class="cls-63" d="M141.69,109.68v-2a18.89,18.89,0,0,1,4-6h4v2H148.1a8.42,8.42,0,0,0-1.41,6c-1.68.35-.33-2.35-2-2h-.54l-.9,2Z"/><path class="cls-64" d="M129.69,126.68v-1a17.21,17.21,0,0,0,3.92-5.79c.51-1.06.92-1.89,2.08-2.21v6l-1.67-.86c-.62.53-.22,1.23-.33,1.83v1c-.6.11-1.28-.27-2,.51v5.49c-.6-.1-1.28.27-2-.5Z"/><path class="cls-65" d="M163.69,107.68a2.44,2.44,0,0,1-2-2,2.47,2.47,0,0,0-2-2v-4h1.49c.2,1.4,2,1.8,2.22,2.46.43,1.42.7,2.75,1.94,3.7.67.51.21,1.23.35,1.84Z"/><path class="cls-66" d="M150.69,103.68a16.17,16.17,0,0,1,5,8v2h-2v-4h-2v-3.62c-.85-.52-1.64-.19-2-.92v-1.46Z"/><path class="cls-61" d="M158.69,99.68c-2.37-1-2.6-3.56-4-5.28-.3-.36-.43-.83-1-.72v-2h1.54l.91,2h1.55c.18,1.34-.43,2.79.44,4h1.56v2Z"/><path class="cls-67" d="M149.69,101.68h-4c-.27-1.5.54-2.37,1.84-3C149,99.09,149.92,100,149.69,101.68Z"/><path class="cls-68" d="M153.69,113.68h2v-2l2,1v1c.06.87-.5,1-1.18,1h-2.82Z"/><path class="cls-69" d="M150.69,103.68h-1v-2C151.18,101.77,150.54,102.93,150.69,103.68Z"/><path class="cls-70" d="M158.69,99.68h1v2C158.19,101.6,158.84,100.44,158.69,99.68Z"/><path class="cls-71" d="M123.86,143.85H141.5c-2.87,1.18-5.86.74-8.81.82s-5.89,0-8.83,0Z"/><path class="cls-55" d="M108.69,161.18q.5-.69,1,0Q109.18,161.89,108.69,161.18Z"/><path class="cls-55" d="M108.19,164.69q.69.5,0,1Q107.49,165.19,108.19,164.69Z"/><path class="cls-55" d="M109.68,176.69a.69.69,0,0,1-.59.88c-.08,0-.31-.21-.29-.29A.69.69,0,0,1,109.68,176.69Z"/><path class="cls-72" d="M155.69,166.68l2-3c.91.07,1-.54,1-1.22v-4.82c2.78,1.17,1.8,3.3,2,5-.28.11-.76.18-.8.34-.13.6.31.7.8.66v1c-.16.79.69.92.89,1.54-.39.81-1.23.35-1.81.74-.26-.92.37-1.81-.68-2.2-.67.69-.58,1.33.68,2.2-.24.53.64.7.87,1.27l-1.39,1.39a3.2,3.2,0,0,1-1.75-2.94Z"/><path class="cls-20" d="M158.68,155.68a.7.7,0,0,1-.88-.59c0-.08.21-.31.29-.3A.7.7,0,0,1,158.68,155.68Z"/><path class="cls-20" d="M158.69,155.69a.7.7,0,0,1,.89.59c0,.08-.22.31-.3.29A.69.69,0,0,1,158.69,155.69Z"/><path class="cls-18" d="M160.69,163.68c-.49,0-.93-.06-.8-.66,0-.16.52-.23.8-.34Z"/><path class="cls-73" d="M129.69,126.68v4.5c.72.77,1.4.4,2,.5h33.22a.87.87,0,0,0,.43-.16,2.72,2.72,0,0,0,.35-.3v-4.54c2.7,3.56,2.7,3.56,3,5.47-4,.75-28.34,1-42.09.34A12.9,12.9,0,0,1,129.69,126.68Z"/><path class="cls-74" d="M186.69,91.68v37h-1v-39h4v1C188.7,91.06,187.15,89.76,186.69,91.68Z"/><path class="cls-75" d="M186.69,91.68c.46-1.92,2-.62,3-1h29v1Z"/><path class="cls-76" d="M218.69,91.68v-1c.69,0,1-.3,1-1,1.27.17,2.59-.32,3.76.22.37.64.05,1.43.8,1.78h3.44v2h-2C223.75,91.62,221.22,91.66,218.69,91.68Z"/><path class="cls-77" d="M185.69,128.68h1c-.38,1,.92,2.53-1,3-1.63,0-3.32.31-4.72-.78l-.76.76c-.54-.28-.72-1.11-1.52-1v-1h5C184.44,129.53,185.6,130.18,185.69,128.68Z"/><path class="cls-78" d="M178.69,130.68c.8-.13,1,.7,1.52,1l.76-.76c1.4,1.09,3.09.75,4.72.78.06.92-.54,1-1.22,1h-5.78Z"/><path class="cls-79" d="M171.69,115.68v-2c.12-.61-.31-1.32.38-1.88,1.2-.06,2.47-.48,3.62.34v1.54c.12,2-.28,4,.27,6,1.11-.43.34-1.65,1.29-2,.8.4.05,1.61,1,2h1.44V121c-.37,1.08-1.62.32-2,1.25v1.43c-.48,0-1.3.15-1.37,0a4.77,4.77,0,0,0-2.61-2.61c-.17-.07,0-.89,0-1.37.58-1.29-1.74-2.39.05-4Z"/><path class="cls-80" d="M179.69,129.68h-2v-4h3.54l.91-2h1.55a3.45,3.45,0,0,1,0,5c-1.14-1.78-2.6-.88-4-.8Z"/><path class="cls-81" d="M171.69,115.68h2.05c-1.79,1.61.53,2.71-.05,4h-2v-4Z"/><path class="cls-79" d="M179.69,125.68h-2v-2h2Z"/><path class="cls-81" d="M173.69,123.68a.7.7,0,0,1,.59-.89c.08,0,.31.22.3.3A.71.71,0,0,1,173.69,123.68Z"/><path class="cls-82" d="M141.69,120.68h21v1c0,.7.3,1,1,1v1h-2v-2H142.93C142.25,121.68,141.61,121.62,141.69,120.68Z"/><path class="cls-83" d="M164.69,124.68c0,.7-.31,1-1,1v-2A.85.85,0,0,1,164.69,124.68Z"/><path class="cls-84" d="M163.69,122.68c-.7,0-1-.3-1-1A.85.85,0,0,1,163.69,122.68Z"/><path class="cls-85" d="M167.69,113.68l-2-1v-1h2Z"/><circle class="cls-78" cx="178.19" cy="130.18" r="0.71"/><circle class="cls-78" cx="177.19" cy="129.18" r="0.71"/><path class="cls-39" d="M175.69,113.68v-1.54c-1.15-.82-2.42-.4-3.62-.34-.69.56-.26,1.27-.38,1.88h-2v-4.2c-2.75,1.5-1.44-1.34-2.49-1.79-.52.32-.71,1.12-1.51,1v-1c-.14-.61.32-1.33-.35-1.84-1.24-1-1.51-2.28-1.94-3.7-.2-.66-2-1.06-2.22-2.46h-1.49v-6h2v-4c.6.13,1.31-.29,1.83.32.3.54,0,1.32.71,1.68,1.08-.13,2.24.32,3.27-.29.32-.56,0-1.35.74-1.71a10.34,10.34,0,0,1,1.45.07c.13.53-.29,1.23.27,1.72h4.74l-.17-1.66c-1.67,0-3.26,0-4.84-.06V87.68h18v2h-7.8c-.23,1.53-.44,2.77.14,3.89l1.66.33v11.78c-.61.16-.82-.38-1.18-.67a3.66,3.66,0,0,1-.32-.3c.42-.51-1,.1-.5.28v8.69a2.37,2.37,0,0,0-2.48,1C176.67,114.38,176.49,113.55,175.69,113.68Z"/><path class="cls-86" d="M165.69,108.68c.8.13,1-.67,1.51-1,1.05.45-.26,3.29,2.49,1.79v4.2h-2v-2h-2v-3Z"/><path class="cls-85" d="M165.69,108.68v2l-2-1v-2h2Z"/><path class="cls-87" d="M151.69,121.68h6v2h4v2h2v3h2v1H158.1c-.58-.81-.21-1.62-1.07-2.06-.93.37-2.12-.34-3.17.39-.31.53,0,1.32-.73,1.67h-3.44c-.17-.81.75-1,1-1.68-1.41-.59-2.89-.24-4.33-.3a7.37,7.37,0,0,0-4.45.68c-1.2-1.39-2.81-.39-4.19-.7v-2h5.75l.53-2.05c1.14.36,2.4-.44,3.61.41.19.75-.07,1.81,1.77,1.58.51-.42.31-2.18,2-2.17C152,123.45,151.55,122.3,151.69,121.68Z"/><path class="cls-2" d="M170.68,175.69a.69.69,0,0,1-.59.88c-.08,0-.31-.21-.29-.29A.69.69,0,0,1,170.68,175.69Z"/><path class="cls-2" d="M174.69,178.68h-1c0-.48.06-.93.66-.79C174.51,177.93,174.58,178.41,174.69,178.68Z"/><path class="cls-50" d="M89.69,81.68v18c-.61-.11-1.3.28-2-.51V81.68h-34c.06-.9-.53-1-1.21-1H47.69v-1h41c0,.7.3,1,1,1Z"/><path class="cls-30" d="M89.69,80.68c-.7,0-1-.3-1-1A.85.85,0,0,1,89.69,80.68Z"/><ellipse class="cls-88" cx="39.69" cy="80.18" rx="11.31" ry="0.71"/><path class="cls-89" d="M133.69,101.68a6,6,0,0,1,0,1.36c-1.54.29-1.68,2.13-3,2.64-2.31-.64,0-3.06-1.71-4.1-1.72.92-2.46-.71-3.57-1.62-.3-.26-.86-.21-1.22-.28-.89.75-.33,1.64-.52,2.42l2,1.89c-.17,1.33.3,2.5-.34,3.52-.56.3-1.34,0-1.65.72,1.67,1.64,3.1-.92,4.92-.4l-.81,1.52c.52.64,1.24.21,1.85.33v2h-1.55l-.91,2c-.56,0-1,0-1.52,0,0-.62-.08-1.22-.12-1.7-.78-.45-1.34-.45-1.88.16,0,.38.07.81.12,1.42.66,0,1.25.09,1.88.12,0,.48,0,1,0,1.45-.37.73-1.19.37-1.87.85v3.27l-2,.71c-.06,1-.12,2.17-.19,3.32-1.1.91-2.54,0-3.82.55-.06,1.22-.11,2.34-.16,3.35-.38.66-.93.43-1.36.48-.76.35-.43,1.15-.93,2h-8.64v-2a.76.76,0,0,0,1-.78q0-6.21,0-12.43a.77.77,0,0,0-1-.79v-2c1.38.39,2.13-.54,3-1.58V89.86H134.6c.32,2.62-2.24,3.41-3.11,5.08,1.22,1.4,2.7.3,3.91.94.6.47.16,1.19.29,1.8-.15.76.49,1.92-1,2S133.84,100.93,133.69,101.68Z"/><path class="cls-90" d="M187.69,87.68h-2v-2h16v2Z"/><path class="cls-80" d="M169.69,87.68v2h-1.45c-.74.36-.42,1.15-.74,1.71-1,.61-2.19.16-3.27.29-.73-.36-.41-1.14-.71-1.68-.52-.61-1.23-.19-1.83-.32v-4h3.44c.74.36.42,1.15.79,1.79C167.09,88,168.42,87.51,169.69,87.68Z"/><path class="cls-39" d="M157.69,93.68h-1.55l-.91-2h-1.54v-2c.12-.6-.3-1.3.33-1.83,1,0,.54.84.69,1.36.67,1,1.83.13,2.64.63.05,1.73,2.91,1.74,2.34,3.84Z"/><path class="cls-91" d="M141.69,89.68v2h-4V88.15c1.14-.84,2.41-.4,3.61-.35C142,88.36,141.56,89.07,141.69,89.68Z"/><path class="cls-39" d="M161.69,85.68v4h-1.57C159.18,87.79,159.58,86.43,161.69,85.68Z"/><path class="cls-39" d="M169.87,85.22a4.73,4.73,0,0,1,4.11-.16C172.39,86.07,171.12,85.61,169.87,85.22Z"/><path class="cls-89" d="M137.69,91.68h2v2h-2Z"/><path class="cls-39" d="M157.76,88.18c-.82.66-1.37.69-1.95.15C156.22,87.25,156.85,87.54,157.76,88.18Z"/><path class="cls-92" d="M187.69,87.68H217.4c.19-.73.3-1.18.47-1.81h5.6l.41,1.58c1.2.57,2.53.06,3.81.23h2V89.2c1.05,1.09,2.51,0,3.7.67.6.49.17,1.2.3,1.81h-9.44c-.75-.35-.43-1.14-.8-1.78-1.17-.54-2.49-.05-3.76-.22h-32Z"/><path class="cls-44" d="M235.69,95.68h-2v-2h15.86c0,.73.06,1.18.09,1.82h-7c-1.14.53-.9,1.29-1.08,1.77-.57.72-1.29.29-1.9.41v-2Z"/><path class="cls-93" d="M241.69,105.68h-2v2H236.2c-1.22-1.13-.08-2.47-.6-3.58,2.45-1,3.53-3.1,5-4.48,1.53.34.92,1.35,1.07,2.06Z"/><path class="cls-94" d="M227.69,108.68v-1c1.75-.68,2.59-2.41,4.05-3.47-.34-2.53.68-5.21-1.05-7.53.69,0,1-.3,1-1h2v9c-.7,0-1,.31-1,1-.7,0-1,.31-1,1-.7,0-1,.31-1,1-.7,0-1,.31-1,1Z"/><path class="cls-95" d="M255.69,83.68h4v3.44c-2.08.73-2.74,3.53-5.29,3.56-1.43-.49-.4-1.69-.75-2.62l2-.67Z"/><path class="cls-96" d="M241.69,105.68v-4h4v4h-4Z"/><path class="cls-97" d="M229.69,87.68h-2v-2h6v2Z"/><path class="cls-93" d="M235.69,95.68h4v2c-1.59-.16-.55,1.62-1.47,2-1-.32-.08-2.2-1.88-2C235.34,97.68,235.8,96.39,235.69,95.68Z"/><path class="cls-45" d="M229.69,108.68c0-.69.3-1,1-1h1a2.46,2.46,0,0,0,2,3v1c-1.28.49-1.94-.85-3-1-.7,0-1-.3-1-1Z"/><path class="cls-98" d="M229.69,91.68h4v2h-4Z"/><path class="cls-44" d="M245.69,101.68h-2c0-1.15-.14-2.35,1.55-1.93C246,100.37,245.56,101.07,245.69,101.68Z"/><path class="cls-99" d="M233.69,111.68v-1c.08-1.49,1.24-.85,2-1v2Z"/><path class="cls-45" d="M231.69,106.68c0-.69.3-1,1-1-.15.76.49,1.92-1,2Z"/><path class="cls-46" d="M251.69,98.68c0,.7-.31,1-1,1C250.66,99,251,98.66,251.69,98.68Z"/><path class="cls-45" d="M232.69,105.68c0-.69.3-1,1-1C233.71,105.38,233.38,105.71,232.69,105.68Z"/><path class="cls-92" d="M229.69,85.68h-4v-2h4Z"/><path class="cls-100" d="M106.69,113.68a.77.77,0,0,1,1,.79q0,6.21,0,12.43a.76.76,0,0,1-1,.78Z"/><path class="cls-101" d="M215.69,125.68v1.47c.36.73,1.17.37,1.72.74.57,1.06.18,2.21.26,3.56H199.92c-.54-.44-.11-1.15-.25-1.75.62,0,1.21-.07,1.7-.11.45-.78.45-1.34-.16-1.89l-1.42.12c0,.66-.09,1.26-.12,1.88-.57,0-1.15,0-2,0v-2c-.3-2.66.82-5.49-1-8,1.65-3.83,1.36-7.66-.08-11.71,1.42-.24,1-1.36,1.08-2.33v-4c6.66-.09,13.34.21,20-.18V99.68h2c0,.79.21,1.66-.67,2.16-1.57.9-1.34,2.41-1.33,3.84H214l-.65,2c-3.3.11-6.5-.08-9.65.11v2.92c-.81.15-1-.71-1.54-1-.65.45-.48,1.14-.45,1.76s-.33,1.63.52,2.2h1.47v2c-.28.11-.76.18-.8.34-.13.6.31.7.8.66v1a2.48,2.48,0,0,0-1.89,1.82c1.81.53,2.43-.51,2.89-1.82h1c.18,1.34-.43,2.79.44,4h4.56c.36.84-1.2.92-.73,1.86a6.51,6.51,0,0,1,3.73,1.14c0,.7.3,1,1,1Zm-3.93-20.08c-.14-.88.14-1.42-.27-1.67h-5.85c.11.71-.17,1.26.53,1.67Z"/><path class="cls-102" d="M197.69,105.68c0,1,.34,2.09-1.08,2.33,1.44,4,1.73,7.88.08,11.71,1.82,2.47.7,5.3,1,8h-1.95c-.13-7.21,0-14.43-.07-21.45C196.35,105.37,197.07,105.81,197.69,105.68Z"/><path class="cls-103" d="M219.69,99.68h-2v-2h-2c-5.42,0-10.83,0-16.25,0-.72,0-1.75-.36-1.75,1v1c-.7,0-1,.31-1,1h-1c0-1.45-.26-3,1.72-4h22.28c.33.67.66,1.34,1,2C220,98.66,219.66,99,219.69,99.68Z"/><path class="cls-102" d="M195.69,100.68h1v1C196,101.71,195.66,101.38,195.69,100.68Z"/><path class="cls-102" d="M197.69,101.68v1c-.7,0-1-.3-1-1Z"/><path class="cls-103" d="M217.69,105.68c0-1.43-.24-2.94,1.33-3.84.88-.5.66-1.37.67-2.16h3c-.21,1.85.84,4.21-2,5a.7.7,0,0,0-.59-.89c-.08,0-.31.22-.29.3a.7.7,0,0,0,.88.59l-1,2h-1A.85.85,0,0,0,217.69,105.68Z"/><path class="cls-94" d="M229.69,91.68v2h2v2c-.7,0-1,.31-1,1a5.39,5.39,0,0,1-3-3c.27-.11.75-.17.79-.33.13-.6-.31-.7-.79-.67v-1Z"/><path class="cls-104" d="M221.69,99.68h-2c0-.69.3-1,1-1A.85.85,0,0,1,221.69,99.68Z"/><path class="cls-45" d="M235.69,117.68a2.46,2.46,0,0,1-2,2h-6v2h-2v-4Z"/><path class="cls-105" d="M227.69,121.68v-2h2c.5,1.61-1.67,2.29-.83,4C227.17,123.25,227.89,122.3,227.69,121.68Z"/><path class="cls-105" d="M235.69,117.68h-10v-4.47c-2.49,1.67-4.21,3.12-5,5.47h-1a.85.85,0,0,0-1-1v-1a.71.71,0,0,0,.89-.59c0-.08-.22-.31-.3-.3a.7.7,0,0,0-.59.89c-.7,0-1-.3-1-1,.08-.87-.44-2.07,1.23-2a.76.76,0,0,0,.77-1v-1c1.84.39,3.34-.62,4.78-1.41a4.43,4.43,0,0,1,2.22-.59h3c0,.7.3,1,1,1,.21,1-2.06,1.46-.5,3h5.5Z"/><path class="cls-106" d="M219.69,112.68a.76.76,0,0,1-.77,1c-1.67,0-1.15,1.15-1.23,2-1,.06-1.19-1-1.87-1.33C216.51,112.36,218.17,112.69,219.69,112.68Z"/><path class="cls-107" d="M203.69,109.68v-1.92c3.15-.19,6.35,0,9.65-.11l.65-2h3.7v1c-1.17,1.91-3,2.1-5,2h-2.83c-.68,0-1.24.14-1.17,1h-5Z"/><path class="cls-108" d="M203.69,109.68h3c.07,1.26-1,.86-2,1.28.28,1.18-.88,2.69,1,3.72,0,.7.3,1,1,1v1c-.7,0-1,.31-1,1h-2v-1c.27-.11.75-.17.79-.33.13-.6-.31-.7-.79-.67v-6Z"/><path class="cls-108" d="M208.69,109.68c-.07-.86.49-1,1.17-1h2.83v1Z"/><path class="cls-99" d="M229.69,109.68h-3c0-.69.3-1,1-1h2Z"/><path class="cls-109" d="M210.69,121.68h-3v-4h1a2.44,2.44,0,0,0,2,2c0,.7.3,1,1,1v1Z"/><path class="cls-102" d="M210.69,121.68h1a2.47,2.47,0,0,1,2,2v1a6.51,6.51,0,0,0-3.73-1.14C209.49,122.6,211.05,122.52,210.69,121.68Z"/><path class="cls-110" d="M213.69,124.68v-1a.85.85,0,0,1,1,1v1C214,125.71,213.66,125.38,213.69,124.68Z"/><path class="cls-40" d="M214.69,125.68v-1a.85.85,0,0,1,1,1Z"/><path class="cls-111" d="M217.69,106.68v-1a.85.85,0,0,1,1,1Z"/><path class="cls-112" d="M205.69,117.68c0-.69.3-1,1-1h1v1Z"/><path class="cls-99" d="M233.69,113.68h-3.5c-1.56-1.54.71-2,.5-3,1.06.15,1.72,1.49,3,1Z"/><path class="cls-113" d="M53.69,81.68h34v8H84l-.64-1.87c-.87-.17-1.67-.35-1.71.87l-2,1c-.12-.6.28-1.3-.52-2H68.69c-6.34.1-12.69-.2-19,.19v1.81H40.06c-.52.84-.18,1.64-.93,2H31.69v-2c.6-.12,1.31.3,2.14-.69V83.46H49.72c-.32-1.27-2.22-.17-2-1.78Zm-3.33,3.83H61.59V83.84H52Z"/><path class="cls-114" d="M31.69,123.68v-2h2v-4a25,25,0,0,0,2.87,0c1-.11,2.36.61,3.1-.51s1.4,1.39,2,0v-1.44c3,.3,6.11-.68,9.05.93a2.42,2.42,0,0,0,2.77-.29c1.12-1.24,2.51-.23,3.75-.81.26.74.45,1.32.75,2.17H73.69v5.63c-.85.52-1.64.19-2,.92v3.45h-2a88.27,88.27,0,0,1-9.49-.09c-2-.2-3.27,1.95-5.08,1.06-2.92-1.45-6-.74-9-1-1.08-2.29-1.78-4.82-4.39-5.93v-2h-6v2c-.2,1.34.45,2.8-.5,4.06-1.31-.61-1.31-.61-2.06-2.06Zm30-2c-.13-.61.3-1.32-.39-1.88-1.2,0-2.47-.49-3.61.35v3.53c.11.61-.29,1.31.28,1.8h7.61v-3.8Z"/><path class="cls-88" d="M47.69,81.68c-.19,1.61,1.71.51,2,1.78H33.83V89c-.83,1-1.54.57-2.14.69v-8Z"/><path class="cls-115" d="M33.69,117.68v4h-2v-13.9h1.64c.68,1.11.22,2.27.35,3.34.37.73,1.13.46,1.61.67.7.57.27,1.28.4,1.89h-2Z"/><path class="cls-116" d="M33.69,117.68v-4h2c1.55-.33,2.64.78,3.79,1.42a4.19,4.19,0,0,0,2.21.58v1.44c-.63,1.42-1.24-1.16-2,0s-2,.4-3.1.51A25,25,0,0,1,33.69,117.68Z"/><path class="cls-117" d="M47.69,81.68h-16v-1H52.48c.68,0,1.27.1,1.21,1Z"/><path class="cls-118" d="M42.69,91.68c-2.57-.13-4,2.06-6,3-.15-.75.49-1.91-1-2v-1h3.44c.75-.36.41-1.16.93-2h6.63c0,1.35-1,.86-1.75,1S42.85,90,42.69,91.68Z"/><path class="cls-119" d="M34.69,96.68c.16,1.77-1.52,3.17-1,5-1.95-1.46-2.27-3.44-1.89-5.6.58-.69,1.28-.28,1.89-.4C33.66,96.38,34,96.71,34.69,96.68Z"/><path class="cls-88" d="M35.69,91.68v1c-.59,1.94-2.18.61-3.25,1-.11,0-.28-.1-.44-.16-.61-.51-.19-1.22-.31-1.83Z"/><path class="cls-120" d="M45.69,113.68v1h-4v-1h4Z"/><path class="cls-121" d="M41.69,113.68v1c-.76-1-2.69-.3-3-2C39.67,113.06,41.22,111.76,41.69,113.68Z"/><path class="cls-121" d="M38.69,112.68h-2v-2h1c0,.7.3,1,1,1Z"/><ellipse class="cls-122" cx="72.69" cy="117.18" rx="1.41" ry="0.71"/><path class="cls-123" d="M34.69,96.68c-.7,0-1-.3-1-1A.85.85,0,0,1,34.69,96.68Z"/><path class="cls-122" d="M70.69,115.68h1v1C71,116.71,70.66,116.38,70.69,115.68Z"/><path class="cls-124" d="M41.69,177.68H34.15a1.69,1.69,0,0,1-.3-.34.91.91,0,0,1-.16-.43V144.22c-.67-.85-1.39-.41-2-.54v-8a.77.77,0,0,0,1-.75c.08-.68.08-1.32,1-1.25.14,2-.33,4.08.31,6l1.27-.07c1.14-1.11-.36-2.88.93-3.95h1.49v6c-.62.13-1.34-.31-1.75.22a1.34,1.34,0,0,0-.06,1.48c1.12.85,2.6-.27,3.81.79,0,2.54,0,5.18,0,7.82s-.11,5.17.08,7.66c1,.07,1.49-.1,1.93.63-.12,2.35.18,4.91-.14,7.2-1.72.71-2.17-1.53-3.69-.54v8.5c1.28.69,2.75-.37,3.82.72Z"/><path class="cls-125" d="M37.69,135.68H36.2c-1.29,1.07.21,2.84-.93,3.95L34,139.7c-.64-1.94-.17-4-.31-6a1.28,1.28,0,0,0,.48,0,1.39,1.39,0,0,0,.36-.33c-1.63-1.6-.2-3.94-1.21-5.66H31.69v-4h1.44c.75,1.45.75,1.45,2.06,2.06,1-1.26.3-2.72.5-4.06h2v-2h2v2h2c2.61,1.11,3.31,3.64,4.39,5.93,3,.3,6.12-.41,9,1,1.81.89,3.13-1.26,5.08-1.06a88.27,88.27,0,0,0,9.49.09,7.76,7.76,0,0,1-5.76,2c-4.75,0-9.5,0-14.24,0,.06-.88-.52-1-1.2-1h-3.8a6.4,6.4,0,0,0-7,0h-1c0-.48-.07-.85-1-.84,0,1.69,0,3.41,0,5.12a.76.76,0,0,0,1,.72h1v2Z"/><path class="cls-126" d="M31.69,127.68h1.63c1,1.72-.42,4.06,1.21,5.66a1.39,1.39,0,0,1-.36.33,1.28,1.28,0,0,1-.48,0c-.94-.07-.94.57-1,1.25a.77.77,0,0,1-1,.75Z"/><path class="cls-127" d="M87.69,91.68v7.49c.7.79,1.39.4,2,.51v34c-1.62-.18-.51,1.74-1.57,2H85.69v-2c.17-1.27-.33-2.6.24-3.82.62-.28,1.4,0,1.79-.8s-.64-1.28-1-2c.73-.68,1.54-1.35.47-2.41-.89,1.39-2.28.93-3.53,1v-2h2v-3c1,.06,1.18-1,1.88-1.33.07-1.22.43-2.45-.22-3.56l-1.66-.33V95.68c.86.07,1-.49,1-1.17,0-.94,0-1.89,0-2.83Zm-1,30.5q.5.7,1,0Q87.18,121.49,86.69,122.18Z"/><path class="cls-128" d="M41.69,177.68v-1.52c-1.07-1.09-2.54,0-3.82-.72v-8.5c1.52-1,2,1.25,3.69.54.32-2.29,0-4.85.14-7.2-.44-.73-1-.56-1.93-.63-.19-2.49-.05-5.08-.08-7.66s0-5.28,0-7.82c-1.21-1.06-2.69.06-3.81-.79a1.34,1.34,0,0,1,.06-1.48c.41-.53,1.13-.09,1.75-.22h3.75c.3-1.11.52-1.82-.74-2-1.55-.24-1.25-1.08-.51-2h1.5c2.62,0,5.24,0,7.87,0s5.44-.08,8.13.07v1.92c.22,1.34-.5,2.84.41,3.95,1.85.36,1.38-1.13,2-1.86,1.75-.39,3.73.34,5.49-.38.11-.59.21-1,.34-1.71h7.78c.12.61-.3,1.32.42,1.92h5.15c.71-.58.07-2,1.67-2,1.2,0,.62-1.23.76-1.94h4v3.51c-.46.85-2.65.09-1.88,2.18l1.76.62v31.33c-.52.79-2.87-.19-1.79,2-1.47.72-2.82.19-4.09.37-.16-2.08-.16-2.08-2-1.47v1.47Zm33.91-5.14c-.86.24-1.41-.08-1.76.51-.11.88-.55,1.84.37,2.66.42-.12,1,.2,1.39-.51Z"/><path class="cls-129" d="M85.69,137.68h-4c0-.47-.15-1.29,0-1.37a4.72,4.72,0,0,0,2.61-2.6c.07-.18.89,0,1.37,0v4Z"/><path class="cls-57" d="M77.69,177.68v-1.47c1.84-.61,1.84-.61,2,1.47Z"/><path class="cls-130" d="M129.69,109.68c-.61-.12-1.33.31-1.85-.33l.81-1.52c-1.82-.52-3.25,2-4.92.4.31-.75,1.09-.42,1.65-.72.64-1,.17-2.19.34-3.52l-2-1.89c.19-.78-.37-1.67.52-2.42.36.07.92,0,1.22.28,1.11.91,1.85,2.54,3.57,1.62,1.72,1-.6,3.46,1.71,4.1-.14.81.7,1,1,1.57l-2,.9Z"/><path class="cls-131" d="M152.69,91.68h-9c.11-.28.22-.81.34-.81,2.77-.05,5.54,0,8.31,0C152.46,90.87,152.57,91.4,152.69,91.68Z"/><path class="cls-130" d="M133.69,101.68c.15-.75-.5-1.91,1-2C134.54,100.44,135.18,101.6,133.69,101.68Z"/><path class="cls-130" d="M133.68,105.68a.7.7,0,0,1-.88-.59c0-.08.21-.31.29-.3A.7.7,0,0,1,133.68,105.68Z"/><path class="cls-132" d="M151.69,121.68c-.14.62.32,1.77-.35,1.77-1.68,0-1.48,1.75-2,2.17-1.84.23-1.58-.83-1.77-1.58-1.21-.85-2.47-.05-3.61-.41l-.53,2.05h-5.76a.7.7,0,0,0-.59-.89c-.08,0-.31.22-.29.3a.7.7,0,0,0,.88.59c0,.67,0,1.34,0,2-1.13.29-2,.95-2,2.15,0,1.51-2.33.2-2,1.85h-2v-5.49c.72-.78,1.4-.4,2-.51.27-.11.75-.17.79-.33.13-.6-.31-.7-.79-.67.11-.6-.29-1.3.33-1.83l1.67.86v-4l2-1a.69.69,0,0,0,.59.88c.08,0,.31-.21.3-.29a.7.7,0,0,0-.89-.59v-1l2-1v3h2v1c-.08.94.56,1,1.24,1Z"/><path class="cls-133" d="M141.69,109.68h1.54l.9-2h.54c1.69-.35.34,2.35,2,2h3v2a4.6,4.6,0,0,0-4,2h-3.56C141.26,112.47,141.87,111,141.69,109.68Z"/><path class="cls-134" d="M143.69,113.68h10v1h-10Z"/><path class="cls-24" d="M139.69,116.68l-2,1c-.34-1.55,1-2.52,1.39-4.07C140,114.61,139.55,115.72,139.69,116.68Z"/><path class="cls-24" d="M137.69,117.68v1l-2,1v-2Z"/><path class="cls-135" d="M142.69,116.68v1h-1c.15-.75-.5-1.91,1-2Z"/><path class="cls-136" d="M149.69,109.68h-3a8.42,8.42,0,0,1,1.41-6h1.59v1.46c.36.73,1.15.4,2,.92v4.62Zm-1.5-2c-.47.33-.47.66,0,1C148.65,108.35,148.65,108,148.19,107.69Z"/><path class="cls-24" d="M133.69,124.68c.48,0,.92.07.79.67,0,.16-.52.22-.79.33Z"/><path class="cls-137" d="M151.69,110.68v-1h2v4h-4v-2C150.44,111.53,151.6,112.18,151.69,110.68Z"/><path class="cls-65" d="M157.69,93.68h2v4h-1.56C157.26,96.47,157.87,95,157.69,93.68Z"/><path class="cls-18" d="M159.85,167.23c-1.34-1.14-1.43-1.78-.76-2.47C160.14,165.15,159.51,166,159.85,167.23Z"/><path class="cls-24" d="M133.69,131.68c-.3-1.65,2.05-.34,2-1.85,0-1.2.84-1.86,2-2.15.11.61-.29,1.31.52,2h14.92c.74-.35.42-1.14.73-1.67,1-.73,2.24,0,3.17-.39.86.44.49,1.25,1.07,2.06h7.59v1.54a2.72,2.72,0,0,1-.35.3.87.87,0,0,1-.43.16Z"/><path class="cls-80" d="M181.69,105.68V93.9L180,93.57c-.58-1.12-.37-2.36-.14-3.89h5.8v14c-1.37,0-1,1.06-1,1.78,0,4.15,0,8.3,0,12.44,0,.72.38,1.77-1,1.78-.15-2.62.3-5.29-.24-7.77-1.42.06,0,1.7-1.76,1.56Z"/><path class="cls-138" d="M183.69,119.68c1.36,0,1-1.06,1-1.78,0-4.14,0-8.29,0-12.44,0-.72-.38-1.76,1-1.78v25c-.09,1.5-1.25.85-2,1v-1a3.45,3.45,0,0,0,0-5Z"/><path class="cls-139" d="M189.69,89.68h30c0,.7-.31,1-1,1h-29Z"/><path class="cls-92" d="M227.69,92.68c.48,0,.92.07.79.67,0,.16-.52.22-.79.33Z"/><path class="cls-140" d="M183.69,128.68v1h-4v-1.8C181.09,127.8,182.55,126.9,183.69,128.68Z"/><path class="cls-141" d="M183.69,119.68v4h-1.55l-.91,2h-1.54v-2h-2v-1.43c.38-.93,1.63-.17,2-1.25V105c-.48-.18.92-.79.5-.28a3.66,3.66,0,0,0,.32.3c.36.29.57.83,1.18.67v7.79c1.71.14.34-1.5,1.76-1.56C184,114.39,183.54,117.06,183.69,119.68Z"/><path class="cls-142" d="M179.69,113.68v6h-1.44c-.95-.34-.2-1.55-1-2-.95.32-.18,1.54-1.29,2-.55-2-.15-4-.27-6,.8-.13,1,.7,1.52,1A2.37,2.37,0,0,1,179.69,113.68Z"/><path class="cls-84" d="M161.69,123.68h-4v-2h4Z"/><path class="cls-84" d="M163.69,125.68h-2v-2h2Z"/><path class="cls-80" d="M169.7,89.81h4.83l.17,1.66H170C169.4,91,169.82,90.28,169.7,89.81Z"/><path class="cls-132" d="M149.69,129.68H138.21c-.81-.69-.41-1.39-.52-2,1.38.31,3-.69,4.19.7a7.37,7.37,0,0,1,4.45-.68c1.44.06,2.92-.29,4.33.3C150.44,128.72,149.52,128.87,149.69,129.68Z"/><path class="cls-89" d="M85.69,95.68v8h-2v2h-5c.13-.8-.69-1-1-1.52,1.08-1.25,2.82.26,4-1l-.18-1.5H77.69v-1.31c-.37-1.08-1.62-.32-2-1.25V97.68h6v-9c0-1.22.84-1,1.71-.87L84,89.68h3.65v2h-1c-1,.24-2.22-.6-2.67.1-1,2.61,1.39,1.42,1.67,2.47Z"/><path class="cls-143" d="M125.73,113.72l-1.9-.14c0-.61-.09-1-.12-1.42.54-.61,1.1-.61,1.88-.16C125.63,112.48,125.68,113.08,125.73,113.72Z"/><circle class="cls-32" cx="232.69" cy="94.68" r="1.41"/><path class="cls-144" d="M230.69,96.68c0-.69.3-1,1-1C231.71,96.38,231.38,96.71,230.69,96.68Z"/><path class="cls-99" d="M231.69,106.68v1h-1C230.66,107,231,106.66,231.69,106.68Z"/><path class="cls-145" d="M215.69,97.68h2v3.82c-6.66.39-13.34.09-20,.18v-2h17.24a.85.85,0,0,0,.42-.17,2.26,2.26,0,0,0,.34-.35Z"/><path class="cls-146" d="M211.76,105.6h-5.59c-.7-.41-.42-1-.53-1.67h5.85C211.9,104.18,211.62,104.72,211.76,105.6Z"/><path class="cls-102" d="M205.69,117.68h2v4h-1.56C205.26,120.47,205.87,119,205.69,117.68Z"/><path class="cls-102" d="M203.69,110.68v3h-1.47c-.85-.57-.48-1.45-.52-2.2s-.2-1.31.45-1.76C202.71,110,202.88,110.83,203.69,110.68Z"/><path class="cls-102" d="M203.69,117.68h1c-.46,1.31-1.08,2.35-2.89,1.82A2.48,2.48,0,0,1,203.69,117.68Z"/><path class="cls-147" d="M199.65,129.72l.14-1.9,1.42-.12c.61.55.61,1.11.16,1.89Z"/><path class="cls-102" d="M203.69,115.68c.48,0,.92.07.79.67,0,.16-.52.22-.79.33-.49,0-.93-.06-.8-.66C202.93,115.86,203.41,115.79,203.69,115.68Z"/><path class="cls-101" d="M215.69,97.68v1.48a2.26,2.26,0,0,1-.34.35.85.85,0,0,1-.42.17H198.69a.85.85,0,0,0-1-1c0-1.34,1-1,1.75-1C204.86,97.67,210.27,97.68,215.69,97.68Z"/><path class="cls-102" d="M197.69,98.68a.85.85,0,0,1,1,1h-1Z"/><path class="cls-102" d="M197.69,99.68v1h-1C196.66,100,197,99.66,197.69,99.68Z"/><circle class="cls-101" cx="197.19" cy="101.18" r="0.71"/><path class="cls-148" d="M220.68,104.68a.7.7,0,0,1-.88-.59c0-.08.21-.31.29-.3A.7.7,0,0,1,220.68,104.68Z"/><path class="cls-106" d="M218.69,116.68a.7.7,0,0,1,.59-.89c.08,0,.31.22.3.3A.71.71,0,0,1,218.69,116.68Z"/><path class="cls-149" d="M81.69,88.68v9h-11c0-1-1-1.21-1.43-2-2.27,0-4.57,0-6.86,0s-4.52-.26-6.71.21v1.77h-6v-2a.76.76,0,0,1,.77-1c1.65,0,3.3,0,4.95,0,.68,0,1.35,0,1.28-1h5c6-.2,11.74,1.9,18,2v-6Z"/><path class="cls-150" d="M49.69,89.68V87.87c6.31-.39,12.66-.09,19-.19v1c-5.09,0-10.17,0-15.25,0-.72,0-1.75-.36-1.75,1Z"/><path class="cls-151" d="M50.36,85.51,52,83.84h9.56v1.67Z"/><path class="cls-152" d="M68.69,88.68v-1H79.17c.8.7.4,1.4.52,2h-3c-.09-1.49-1.25-.85-2-1Z"/><path class="cls-153" d="M61.69,121.68h3.89v3.8H58c-.57-.49-.17-1.19-.28-1.8h4Z"/><path class="cls-154" d="M71.69,126.68v-2.45c.36-.73,1.15-.4,2-.92v-4.63h1v5c-.34.67-.67,1.34-1,2v1Z"/><path class="cls-155" d="M59.69,123.68h-2v-3.53c1.14-.84,2.41-.4,3.61-.35.69.56.26,1.27.39,1.88h-2Z"/><path class="cls-115" d="M37.69,119.68v2h-2v-2Z"/><path class="cls-115" d="M41.69,121.68h-2v-2h2Z"/><path class="cls-125" d="M41.69,137.68h-1.5c-.74.9-1,1.74.51,2,1.26.2,1,.91.74,2H37.69v-6h4Z"/><path class="cls-156" d="M41.69,137.68v-2h-4v-1c4.23-.26,8.25,1.4,12.55,1.1,5.46-.39,11-.1,16.45-.1,1.49.09.85,1.25,1,2-1.28.18-2.61-.33-3.78.22-.36.64,0,1.44-.79,1.78H57.69v-1.92c-2.69-.15-5.42,0-8.13-.07S44.31,137.68,41.69,137.68Z"/><path class="cls-157" d="M43.69,128.68h-6a6.4,6.4,0,0,1,7,0Z"/><path class="cls-158" d="M36.69,133.68a.76.76,0,0,1-1-.72c-.06-1.71,0-3.43,0-5.12.93,0,1,.36,1,.84Z"/><path class="cls-159" d="M43.69,128.68h4.8c.68,0,1.26.12,1.2,1h-6Z"/><ellipse class="cls-159" cx="37.19" cy="131.18" rx="0.71" ry="3.54"/><path class="cls-160" d="M77.69,111.68c-2.59-2.58-6-2.78-9.3-2.92-5.89-.26-11.8-.08-17.7-.08-.15-1.06-1.49-1.72-.94-3,.53-.11,1.22.3,1.8-.35a6.06,6.06,0,0,0-.23-3.63l-1.5.14c0,1.34,0,2.6-.07,3.84H47.69v-8h6v3.74c1.72,0,2.07,1.22,2.56,2.26h1.44c.12.62-.32,1.34.53,2,2.45,0,5.08,0,7.72,0a64.52,64.52,0,0,0,7.75-.14v-3.85h7.82l.18,1.5c-1.17,1.24-2.91-.27-4,1,.3.53,1.12.72,1,1.52-.94.12-1.92-.26-2.89.35,0,.39,0,.83-.06,1.21,1.16,1.17,3-.41,4,1.06,0,.51-.06,1,.37,1.27h3.63v-5.89h2v9h-1c-.11-.27-.18-.75-.34-.79-.6-.14-.7.31-.66.79v1h-2c-1,0-1.34-.82-1.83-1.38C79.21,111.56,78.46,111.69,77.69,111.68Z"/><path class="cls-161" d="M85.69,133.68c-.48,0-1.3-.15-1.37,0a4.72,4.72,0,0,1-2.61,2.6c-.17.08,0,.9,0,1.37-.14.71.44,2-.76,1.94-1.6,0-1,1.4-1.67,2H74.11c-.72-.6-.3-1.31-.42-1.92.7-.1,1.59.37,2-.66.25-1.28-1.74-1.9-1-3.34h2.78c-.61-2.26,2.64-1.85,2.64-3.9,1.15-.45,2.55.5,3.58-.6v-5.5c1.25-.05,2.64.41,3.53-1,1.07,1.06.26,1.73-.47,2.41.33.67,1.32,1,1,2s-1.17.52-1.79.8C85.36,131.08,85.86,132.41,85.69,133.68Z"/><path class="cls-161" d="M83.69,113.68v-1h2v2.78l1.66.33c.65,1.11.29,2.34.22,3.56-.7.38-.91,1.39-1.88,1.33-.38-1,.92-2.53-1-3,0-.79.17-1.61-.67-2.18C83.35,115,83.81,114.29,83.69,113.68Z"/><path class="cls-162" d="M83.69,123.68v-5c0-.69.3-1,1-1,1.92.47.62,2,1,3v3Z"/><path class="cls-162" d="M81.69,126.68c.93.08.94-.57,1-1.24a.79.79,0,0,1,1-.76v5h-2v-3Z"/><path class="cls-113" d="M85.69,95.68V94.25c-.28-1-2.72.14-1.67-2.47.45-.7,1.67.14,2.67-.1,0,.94,0,1.89,0,2.83C86.69,95.19,86.55,95.75,85.69,95.68Z"/><path class="cls-161" d="M86.69,122.18q.5-.69,1,0Q87.18,122.89,86.69,122.18Z"/><path class="cls-163" d="M74.69,135.68c-.74,1.44,1.25,2.06,1,3.34-.41,1-1.3.56-2,.66H65.91c-.13.67-.23,1.12-.34,1.71-1.76.72-3.74,0-5.49.38-.6.73-.13,2.22-2,1.86-.91-1.11-.19-2.61-.41-3.95h5.43c.75-.34.43-1.14.79-1.78,1.17-.55,2.5,0,3.78-.22h5.56C73.92,136.83,73.34,135.58,74.69,135.68Z"/><path class="cls-57" d="M75.6,172.54v2.66c-.41.71-1,.39-1.39.51-.92-.82-.48-1.78-.37-2.66C74.19,172.46,74.74,172.78,75.6,172.54Z"/><path class="cls-24" d="M137.69,118.69a.7.7,0,0,1,.89.59c0,.08-.22.31-.3.29A.69.69,0,0,1,137.69,118.69Z"/><path class="cls-24" d="M137.68,125.68a.7.7,0,0,1-.88-.59c0-.08.21-.31.29-.3A.7.7,0,0,1,137.68,125.68Z"/><path class="cls-63" d="M149.69,111.68v2h-4A4.6,4.6,0,0,1,149.69,111.68Z"/><path class="cls-63" d="M151.69,110.68c-.09,1.5-1.25.85-2,1v-2Z"/><path class="cls-63" d="M148.19,107.69c.46.33.46.66,0,1C147.72,108.35,147.72,108,148.19,107.69Z"/><path class="cls-164" d="M83.69,105.68v3.89H80.06c-.43-.27-.38-.76-.37-1.27-1-1.47-2.79.11-4-1.06,0-.38,0-.82.06-1.21,1-.61,2-.23,2.89-.35Z"/><path class="cls-165" d="M77.69,101.68h-4v-4h2v1.44c.38.93,1.63.17,2,1.25Z"/><path class="cls-89" d="M73.69,97.68v7.85a64.52,64.52,0,0,1-7.75.14c-2.64,0-5.27,0-7.72,0-.85-.66-.41-1.38-.53-2,.12-.61-.31-1.32.72-2.15H71.67v-1.16c-.33-1.1-1.6-.32-2-1.24V97.68h4Z"/><path class="cls-165" d="M69.69,97.68v1.45c.38.92,1.65.14,2,1.24v1.16H58.41c-1,.83-.6,1.54-.72,2.15H56.25c-.49-1-.84-2.23-2.56-2.26V97.68h16Z"/><path class="cls-166" d="M49.69,97.68h-2v2h-2v2c-2.08.16-2.08.16-1.48,2h1.48v2h4c-.49,1.28.85,1.94,1,3-2.18.71-3.95-1-6-1a.85.85,0,0,0-1-1,.85.85,0,0,0-1-1v-6c1.49-.08.85-1.24,1-2a2.47,2.47,0,0,0,3-2h3Z"/><path class="cls-160" d="M69.69,97.68h-14V95.91c2.19-.47,4.47-.16,6.71-.21s4.59,0,6.86,0c.42.79,1.48,1,1.43,2Z"/><path class="cls-113" d="M74.69,89.68v-1c.75.15,1.91-.49,2,1Z"/><path class="cls-114" d="M59.69,123.68v-2h2v2Z"/><path class="cls-129" d="M79.69,129.68h4v1.5c-1,1.1-2.43.15-3.58.6,0,2.05-3.25,1.64-2.64,3.9H74.69c-1.35-.1-.77,1.15-1.44,2H67.69c-.15-.75.49-1.91-1-2,.16-1.65,1.47-.72,2.25-1s2.41.94,2.75-1C75.77,132.66,75.77,132.66,79.69,129.68Z"/><path class="cls-167" d="M47.69,105.68h-2v-6h2Z"/><path class="cls-168" d="M82.69,118.68c-.38-1,.92-2.53-1-3v-2h2c.12.61-.34,1.36.33,1.82.84.57.67,1.39.67,2.18-.7,0-1,.31-1,1Z"/><path class="cls-166" d="M49.82,105.67v-3.84l1.5-.14a6.06,6.06,0,0,1,.23,3.63C51,106,50.28,105.56,49.82,105.67Z"/><path class="cls-168" d="M84.69,112.68h-1c0-.48.06-.93.66-.79C84.51,111.93,84.58,112.41,84.69,112.68Z"/><path class="cls-169" d="M81.69,129.68h-1c0-.69.3-1,1-1Z"/><path class="cls-160" d="M45.69,101.68v2H44.21C43.61,101.84,43.61,101.84,45.69,101.68Z"/></svg>