<?xml version="1.0" encoding="utf-8"?>
<!-- Generator: Adobe Illustrator 25.2.0, SVG Export Plug-In . SVG Version: 6.00 Build 0)  -->
<svg version="1.1" id="Layer_1" xmlns="http://www.w3.org/2000/svg" xmlns:xlink="http://www.w3.org/1999/xlink" x="0px" y="0px"
	 viewBox="0 0 516.6 149.1" style="enable-background:new 0 0 516.6 149.1;" xml:space="preserve">
<path d="M171.4,0.9L170.8,0L65,51.8c3.5-4.4,8.1-7.6,8.7-11.5c0.7-4.1-2.5-8.8-3.9-13.2c-0.1-0.3-0.2-0.6-0.3-0.9
	c-2.5-7-5-14-7.8-22.1c-1.2,2.9-2,4.7-2.7,6.5c-6.4,16.2-12.7,32.5-19.4,48.7c-1.4,3.1-3.8,5.6-6.8,7.3c-7.3,4-14.9,7.3-22.4,10.9
	C7.1,79,3.9,80.7,0,82.7l47.8,17c-5.4,1.4-11,2.2-16.7,2.2c-3.6,0-5.3,1.6-6.7,4.7c-4.8,10.8-9.8,21.5-14.8,32.2
	c-1.4,2.9-2.7,5.9-4.7,10.2c2.7-1.8,4-2.7,5.3-3.6C27,133.2,43.9,121,60.7,108.6c2.5-2.2,6.1-2.7,9.2-1.3c12.5,4.6,25,9,37.6,13.4
	c5.3,1.9,10.6,3.6,15.9,5.5c0.1-0.3,0.3-0.6,0.4-0.9L72.7,82.4L171.4,0.9z M78.4,99.5l-0.5,1L23.8,81.3l81.3-39l0.6,0.8L58.2,82.4
	L78.4,99.5z"/>
<g>
	<path d="M166.7,90.2c0.3,3.8,3.8,7.3,10.4,7.3c6.1,0,9.4-2.7,9.4-6.8c0-3.5-2.7-5.3-7.9-6.4l-7.8-1.8c-7.3-1.6-13.4-5.7-13.4-14.5
		c0-10.2,8.7-15.9,19.7-15.9c11.6,0,19.4,6.4,19.5,15.6h-10.3c-0.3-3.7-3.3-7-9.3-7c-5.3,0-8.6,2.5-8.6,6.5c0,3,2.4,5,7.1,6l7.9,1.8
		c7.6,1.6,14.1,5.3,14.1,14.8c0,10.2-8,16.5-20.8,16.5c-15.3,0-20.3-8.6-20.4-15.9h10.4V90.2z"/>
	<path d="M208.9,55.1h10.4v9.6h7.8V73h-7.8v19.2c0,3.9,1.7,5.1,5.8,5.1c0.9,0,1.8,0,2.2-0.1v7.9c-0.8,0.2-2.7,0.3-4.8,0.3
		c-10.2,0-13.8-3.4-13.8-11.7V72.9h-5.8v-8.3h6L208.9,55.1L208.9,55.1z"/>
	<path d="M246.3,105.8c-7.9,0-13.3-4.6-13.3-12.3c0-7.3,5.1-12,14.4-12h9.7v-3.6c0-3.8-2.3-5.9-6.3-5.9c-3.9,0-6.2,2.1-6.4,5.2h-10
		c0.3-6.7,4.5-13.2,16.6-13.2c9.4,0,16.6,4.3,16.6,13.9v27.2h-10.1v-4.9H257C255.6,103.2,252.2,105.8,246.3,105.8z M257.1,91.9v-4.2
		h-7.2c-4.2,0-6.4,2-6.4,5c0,3.6,3,5.4,6.2,5.4C253.8,98.1,257.1,95.6,257.1,91.9z"/>
	<path d="M276.9,64.6h10.7v5.7h0.5c0.9-2.6,3.9-6.3,9.4-6.3c1.5,0,2.6,0.1,3.3,0.3v9.2c-0.8-0.3-2.5-0.4-4.1-0.4
		c-6.5,0-8.8,3.8-8.8,9.3v22.7h-11V64.6z"/>
	<path d="M355.4,105.2h-32.7v-52h11v42.7h21.7V105.2z"/>
	<path d="M372.5,105.8c-7.9,0-13.3-4.6-13.3-12.3c0-7.3,5.1-12,14.4-12h9.8v-3.6c0-3.8-2.3-5.9-6.3-5.9c-3.9,0-6.2,2.1-6.4,5.2h-10
		c0.3-6.7,4.5-13.2,16.6-13.2c9.4,0,16.6,4.3,16.6,13.9v27.2h-10.1v-4.9h-0.5C381.8,103.2,378.4,105.8,372.5,105.8z M383.3,91.9
		v-4.2h-7.2c-4.2,0-6.4,2-6.4,5c0,3.6,3,5.4,6.2,5.4C380,98.1,383.3,95.6,383.3,91.9z"/>
	<path d="M414.3,98.9h-0.5v6.3h-10.6V50.4H414v20.2h0.5c1.8-3.8,6.2-6.5,11.6-6.5c9.1,0,15.3,6.6,15.3,19v3.5c0,12.1-6,19-15.3,19
		C420.3,105.6,416.3,103,414.3,98.9z M430.4,86.3v-2.7c0-7.2-3.3-10.9-7.9-10.9c-5.1,0-8.5,3.7-8.5,10.9v2.7c0,7.2,3.3,11,8.5,11
		C427.1,97.2,430.4,93.4,430.4,86.3z"/>
	<path d="M447.8,86.5V83c0-12.1,7.5-19,18.2-19c11.1,0,18.1,7.5,18.1,19.2v4h-25.8v1.2c0,5.8,3.4,9.4,8.2,9.4c3.9,0,6.7-1.9,7.4-5.1
		h9.9c-0.8,6.4-6.1,13.2-17.3,13.2C455.2,105.9,447.8,99,447.8,86.5z M473.7,80.6L473.7,80.6c0-5.1-3-8.8-7.7-8.8s-7.8,3.8-7.8,8.8
		v0.1L473.7,80.6L473.7,80.6z"/>
	<path d="M492.3,50.4H503v54.7h-10.7V50.4z"/>
</g>
</svg>
